<?xml version="1.0" standalone="no"?>
<!DOCTYPE svg PUBLIC "-//W3C//DTD SVG 1.1//EN" "http://www.w3.org/Graphics/SVG/1.1/DTD/svg11.dtd" >
<svg xmlns="http://www.w3.org/2000/svg">
<metadata></metadata>
<defs>
<font id="typewriterbold" horiz-adv-x="1302" >
<font-face units-per-em="2048" ascent="1638" descent="-410" />
<missing-glyph horiz-adv-x="552" />
<glyph horiz-adv-x="2048" />
<glyph horiz-adv-x="2048" />
<glyph unicode="&#xd;" horiz-adv-x="2048" />
<glyph unicode=" "  horiz-adv-x="552" />
<glyph unicode="&#x09;" horiz-adv-x="552" />
<glyph unicode="&#xa0;" horiz-adv-x="552" />
<glyph unicode="!" horiz-adv-x="870" d="M215 68v65v51l14 25l27 27l8 30l41 25l123 6l6 4l47 -10h37l57 -41l13 -14l10 -64l-4 -76l-31 -84l-61 -49l-68 -18l-65 4l-58 18l-55 23l-8 41l-12 12zM236 1102v14l18 8l-18 60l12 100l8 57l80 72l110 12l72 -12l45 -35l6 -28v-13l35 -37l14 -40l-14 -48l12 -10v-18 l-12 -10l-10 -177l-12 -65l-7 -107l-22 -69l-10 -107l2 -106l8 -29l-6 -31l-12 -16l-7 -59l-34 -35l-41 -23l-66 4l-45 13h-20l-35 47l12 139l-12 53v90v17l12 24l-23 35v16l11 15l-6 65l-11 23l6 29l-12 36l12 35l-6 35l-16 10v56z" />
<glyph unicode="&#x22;" horiz-adv-x="1075" d="M141 1219l17 22l-8 19v24l6 37l10 8v17l47 49l53 28l51 -4l56 4l47 -45l16 -53v-76l-4 -67l-12 -52l-12 -16v-100l-17 -60v-22l8 -12v-31l-8 -10v-78l-14 -23v-41l-29 -30l-43 -13h-33l-28 21l-15 69l-4 45l-12 37v60l-12 10l-6 154l-13 12l-8 57l-16 41zM618 1329v14h13 l6 -6l6 6v19l23 22l6 19l22 20l54 11l40 14l70 -16l19 -13l34 -53l15 -63l-15 -62l-10 -10l10 -17v-14h-2l-14 -35v-10h-4l-6 -6v-19l10 -12l-18 -28v-48l14 -24l-19 -35l-6 -51l6 -62l5 -4l-11 -12l-8 -66l-8 -16l-8 -47l-54 -35l-26 10l-33 -10l-41 41v29l-2 51l-14 172v6 l-10 6v78l-15 10l-4 31l12 12l-12 39v49l-12 11l-6 75l12 21z" />
<glyph unicode="#" horiz-adv-x="1380" d="M10 -297l31 10v47l16 13l6 30l13 11v18l24 23l9 53l12 45l14 12l4 23l17 39v6l-4 8h12l29 39l26 72l-8 12l-25 -8l-8 -4l-8 12l-25 -23l-12 13h-55l-35 8l-23 16l-6 41l19 78l14 12l4 27l-26 4l16 12l-4 6l45 23h84l51 10l39 -6h14v-6l13 -12h24l21 47l4 24l12 23l18 22 l7 37v17l-25 24l-76 2l-18 -6l-94 2l-35 16l-23 17l-12 12h-25l13 62l8 26l10 13v8l-4 4l-2 22l-6 29l65 31l80 -4l15 6l110 -2l80 -6l37 22l25 51l20 58l10 22l-4 6l19 19l-15 22l-4 4h12l29 47l19 50l34 82v18h6l13 25v16l16 18v47h6l25 60v14h10l31 31l78 -4l24 10l60 -4 l37 -53l10 -25h6l8 -8l-24 -33l-19 -59l-47 -41l-14 -31v-22l-9 -19v-22l-18 -13v-12h-6l-14 -65l-23 -58l-18 -47l-11 -12l-14 -35l-27 -41v-23h62l65 7l29 22l25 41l14 76l10 8l19 16v11l-11 14l23 10l12 72v4l-4 6l33 29v43l8 31l29 45l22 49l-12 22l12 13v14l6 8l-12 12 v7l35 14l6 10l53 29h60l125 -39l14 -33v-22l-14 -13l-7 -41l-26 -47v-12l-19 -12l-18 -19l-6 -41l-35 -69v-25l-25 -16l7 -19v-24h-7l-71 -117v-23h-6l2 -24v-12l51 -11h57l41 -14l25 -16v-25l-13 -139l-18 -17l-41 -12l-88 -12l-14 8l-17 -8l-41 4l-22 -4h-21l-6 -19 l-26 -45v-22l-31 -49v-31l-4 -6l8 -13l43 13l31 -2l28 2l17 -6l18 6h70h35l20 -6l4 -27l-14 -57l-10 -6v-15l10 -22l-2 -47l-23 -23l-6 -18l-16 -15l-35 -4l-59 2l-48 -6l-10 10l-41 4l-16 -12l-41 -8l-21 8h-24l-29 -8l-18 -53v-60l-31 -75l-18 -15v-26l-21 -48l-22 -34 l-7 -31v-25l-14 -12v-35l-20 -24v-33l-56 -49l-135 -13l-55 7l-17 34h-8l-10 15l10 35h8l9 34l20 47v23l21 35v41h6l26 59l-4 6l37 21l25 82l53 59v39l6 4l-12 12l-60 7l-53 -9h-16l-49 -49v-16l-11 -10v-19l-12 -14v-29l-20 -57l-31 -21l14 -37l-20 -24l-25 -88l-4 -41 l-16 -23v-41l-25 -41v-20l-59 -29l-35 10l-41 -10l-82 15l-12 18l-4 4l-19 45l15 12zM530 379l25 -12l10 12h19l12 -6v-6h18l76 -2l25 24l6 33l16 39l-6 2l12 16h5v23l20 26v31l-61 -6l-64 12h-29l-18 -12l-12 -25l6 -6l-25 -41v-20l-28 -51h-7v-31z" />
<glyph unicode="$" d="M111 360v74v27l4 6v16l75 41l107 -2l70 -30l12 -19l-6 -33v-41l12 -14l25 -47l16 -37l53 -41h70l18 19l-22 59l16 22v39v74l6 8v11l-18 16l8 24l-18 17l-4 33l-56 32l-65 25l-13 12l-57 11l-53 34v19l-29 22v13l-29 30l-32 60v18l-33 45l6 76l-6 59l10 31l6 82l35 53 l19 41l65 58l57 18l60 37l96 12l19 -20l32 43l13 65l4 35l41 16l49 -12l16 12l78 -4l29 -12l16 -23l-4 -88l47 -24l72 -12l69 -31l47 -45v-10l35 -25l6 -8l25 -47l18 -4l7 -39l12 -17l10 -41l23 -41l-6 -45l18 -12l-6 -25v-18h-6l-19 -25l-22 -16l-74 4l-72 -10l-47 6 l-35 16l-30 68l10 31l-4 16l-37 45l-41 -10l-31 -35l-6 -35l-4 -96v-39l10 -12v-19l25 -28l28 -13l50 -6l41 -22l47 -8h16l49 -35l29 -35l35 -12l41 -54l47 -41l20 -86l-4 -88v-61l-16 -37l6 -4l-12 -37l6 -16v-11h-6l-19 -18v-18l-10 -11v-18l-35 -43l-24 -33h-13l-45 -59 l-61 -31l-58 -22h-24l-49 -35l-64 -25l8 -59l11 -17l-19 -59l-16 -12l-139 -17l-41 29l-43 6l-4 31v10l14 12v76l-14 29l-37 20h-47l-41 29l-50 4l-38 37l-43 16l-11 17l-12 12h-18l-23 49l-6 4l-59 90l-17 17l-6 75zM426 981h12l19 -31l28 -24l50 -4l26 24l6 133l-28 25 l-13 -10h-16l-49 -9v-12l-4 -4h-13v-16l-12 -15zM772 399l14 -20l-4 -60l4 -63l27 -6l84 41l37 53l12 57l-12 56l-19 26l-28 9l-84 30l-6 -24l-11 -15v-49l-14 -14v-21z" />
<glyph unicode="%" horiz-adv-x="1351" d="M23 819l20 62l-4 55l-2 57l-12 43l38 70l17 70l33 57l49 51l6 25h6l10 24h6l13 25l71 24l35 21l43 -4l39 4l25 12h57l31 -16l59 -17l60 -57h4l47 -68l37 -73v-23l10 -10v-74l-10 -8v-41l-6 -8v-16l-25 -25l-12 -59l-58 -111l-47 -76h-14l-21 -43l-55 -53l-57 -25l-82 -8 l-49 -14l-39 14h-31l-18 8h-17l-84 74l-41 57l-16 43l-8 5zM109 -303l4 57l55 72l22 70l72 122l82 103l35 98l61 78l9 29l18 16l18 53l29 41l8 25l35 41v12h6l27 70l24 28l31 33l19 45l22 29l29 72l22 40l15 37l-13 23l47 35l13 30l24 23l17 49h6l35 88l49 60l16 51l8 12v18 l60 86l30 56l52 51l47 -10l45 -13l35 -28l12 -15v-22l6 -4v-25l-35 -41l-16 -43l-25 -22l-18 -49l-23 -35v-25l-22 -22l-6 -35l-19 -10l-14 -23l8 -8l-31 -25l-10 -45l-31 -49l-28 -33l-35 -94l-41 -47l-25 -65l-30 -35l-4 -37l-19 -47l-65 -101h-4l-23 -34v-13l-80 -94 l-16 -41l-17 -16v-17l-12 -14l-6 -41l-31 -41l-22 -72l-13 -28l-41 -45v-21l-51 -94l-37 -59h-6l-12 -41v-7l-10 -10v-24l-23 -25v-8l-20 -19v-18l-23 -25l-6 -16l-29 -18l-63 -7l-27 -6l-47 19v12l-12 12zM238 891l8 -53l45 -29l43 6l10 12h14l33 33l66 66v47l24 31v24l8 8 l9 107l-25 41l-6 -6l-10 14h-8l-48 6l-51 -14l-59 -58l12 -10v-6l-16 -16l-41 -103h-8l8 -57zM616 -158l7 66l18 57v53l16 31l7 41l10 10v25l74 82l51 102l22 10l19 23l4 -4l47 41l41 6l61 16l88 -6l113 -22v-6l70 -54l16 -28l25 -25l12 -24l-8 -62l12 -72l-4 -125l-12 -12 l-29 -121l-49 -80l-47 -51v-16l-47 -55h-17l-12 -11l-82 -43l-6 -16h-72l-16 10l-84 6l-10 13l-66 6l-57 35l-66 88l-22 32zM844 -115l14 -73l23 -27h43l8 10h20l70 49l29 43l6 39l24 35l6 29l17 22l-10 54l10 47l-23 49l-41 16l-14 -12h-16l-29 -4l-41 -41l-37 -53l-29 -66 l-16 -37z" />
<glyph unicode="&#x26;" d="M0 414l25 69l6 19l2 47l43 72l65 75l19 17h22l19 18h12l27 35l41 18l14 19v18l-25 23v26l-16 15l-14 10l-4 37l-19 26h-4v21l4 4l-22 53l6 82l22 84l35 76l41 31l12 22l95 53l65 13l80 4l92 -17l49 -18l37 -25l37 -10l45 -59l35 -53v-11h-4l-8 -30v-19l12 -10l14 -47 l-14 -66l-17 -22v-17l-12 -14l-6 -51v-21l-45 -32l-14 -29l-60 -72l-22 -30l-4 -17v-10l26 -84l56 -53h20l47 67l6 17l33 59l14 70l11 30l32 11l90 30h93l84 -39l61 -41v-10l33 -22l6 -31l18 -12l2 -82l7 -6l-9 -11l-8 -61l-35 -51l-59 -31l-64 -16l-59 6l-53 22l-14 19h-39 l-31 -47l-35 -35l-33 -53v-54l33 -55l59 -43l35 2l25 25v59l16 25l37 24l41 10l59 -6l66 -47l41 -51v-47v-35l-14 -41v-33l-35 -51l-47 -41v-12h-4l-7 -6v-10l-100 -35l-67 -15l-80 19l-17 6h-14l-47 57v15l-64 69h-24l-33 -24l-18 -29l-103 -63l-45 -17l-129 -24l-24 -15 l-107 15l-94 28l-105 88l-34 64v24l-19 17l-6 35l-16 22v19l-15 14v100v35zM258 319l53 -63l54 -31l94 -8l28 16l72 41l23 33v37l-35 51v19l-29 24l-6 29l-35 35l-14 10l-41 14v4h-8l-15 -10l-51 -12l-61 -57h-11l-12 -25h-6v-72v-35zM446 1042l17 -10l55 -100l17 -6l40 41 l43 65l7 45l-31 56l-59 22l-54 -18l-35 -35v-60z" />
<glyph unicode="'" horiz-adv-x="870" d="M289 1264v57l10 12l6 60l25 34l35 15l41 22l53 -12l53 6l31 -37l35 -75l-9 -76l-4 -74l-18 -61v-41l-19 -56v-45l-10 -41l-6 -12v-18l6 -7l4 -10v-16h-4l-14 -39l8 -70v-16l-35 -37l-49 -10l-41 10l-33 53v66l-8 82l-6 45l-16 37v24l-13 123l-12 19v69z" />
<glyph unicode="(" horiz-adv-x="870" d="M174 440v31v129l12 10v97l19 118l33 80l14 72l18 31l6 28l21 25v29l25 40l24 70l41 66v16l19 25v30l38 23l43 65l56 23l32 6l60 -6l12 -10v-31l53 -53l-28 -64l-62 -65l-41 -70l-18 -8l-16 -23l8 -24l-39 -53h-4v-23v-25l-39 -75l-8 -54l-17 -18v-59l-30 -93l-7 -147 l-12 -12l-6 -101l6 -6l19 -35v-41v-36l30 -46l4 -55l4 -47l43 -70l9 -59l32 -63v-19l15 -12v-17l16 -12v-24l27 -23l39 -53l18 -49l33 -41l-4 -4l16 -37l19 -6v-45l-35 -37l-62 -19l-59 15l-16 16h-17l-31 29h-10l-16 37h-8l-17 40l-30 41l-19 35l-18 10v31l-4 6l-25 31 l-6 29l-53 94l-5 35l-24 30l-6 41l-23 35v25l-8 31l-10 26v41l-12 25v16l6 8l-13 11v59z" />
<glyph unicode=")" horiz-adv-x="870" d="M162 1341v19l16 29v18l49 53l35 10l66 -6l92 -69l14 -25l-8 -6l29 -53l30 -58l25 -32l-6 -7l31 -43l8 -30l18 -13l12 -26l31 -45v-45l27 -72l14 -51l19 -29v-53l10 -14l6 -41l6 -4v-37l-6 -4l25 -48l-15 -30l15 -58l4 -8l-11 -10l7 -107l-15 -92l-4 -43l-12 -43v-67 l-10 -13l-9 -59l-16 -16l-12 -41l-4 -41l-15 -13l-4 -43l-31 -41l-12 -10l6 -14v-19l-49 -51l-37 -69l-43 -93l-28 -49l-76 -67l-96 8l-11 12v23l-16 14l-8 2h-6v21l14 12v35l41 53l16 39l19 20v17l32 47v41l31 28l25 56v41l16 22l12 13l11 63l12 16l8 56l10 35v47l17 22 l8 53l12 62v4l-20 16l12 23l-12 49l8 59v33l-8 37v25l-10 10v65l-13 19l-12 63l-23 60l-12 47h-6l-18 51l-5 8l-12 51l-16 17l-15 14v16l-32 35l-8 31l-7 43l-20 10l-8 29l-11 12l-18 17l-22 12l-19 20v25l-6 8z" />
<glyph unicode="*" horiz-adv-x="919" d="M115 1104v16l14 4l2 13l-10 6l-4 14l22 68l45 32l72 3l37 -23l31 -35l18 -22l16 -2l13 2v18l-13 16l-12 13v12l-22 33l-2 28v21l18 45h10l15 16l20 -8l6 23h27l45 -8l47 6l31 -17l30 -35l4 -14l-4 -31l-6 -8l6 -16l-22 -31l-6 -37l-8 -18l8 -10l14 4l23 35l59 43l27 6 l22 -4l19 -23l18 8l29 -8l34 -22v-11l9 -26l-4 -37l-11 -27l-2 -26l-18 -25l-47 -10l-25 -13l-37 2l-26 9l-23 -15l-4 -14l4 -4l27 -6l55 -4l27 -15l35 -6v-6l40 -29v-65l-4 -35l-12 -8v-10l-16 -17l-25 -10l-37 2l-43 -2l-39 14l-20 19l-23 16l-6 4h-14l-8 -4v-20l8 -9 l22 -28l9 -6v-13l4 -18l6 -16l-10 -9l4 -26l-11 -27l-18 -8l-4 -6l-31 -6h-33l-26 -15l-37 15l-18 -11l-27 9l-10 12l-17 12l8 17l-20 6l8 18l-8 12l-2 45l20 33l7 31l-13 16h-6l-18 -12l-9 -18l-22 -13l-29 -14l-59 -10l-25 20l-28 4l-17 27l-22 59l8 35l8 21l8 20l15 -6 l18 12l31 2l26 15l13 -2l32 8l19 18l-6 2l-15 10l-36 -4l-19 13l-26 8l-39 4v10l-19 8z" />
<glyph unicode="+" d="M160 707l10 26v35l4 49l19 12l61 5l100 2l13 -7l18 2l49 -2l27 -16l16 16h41l29 64l-17 35l7 53l-5 90h-2l5 47l2 68l18 24l8 17l74 -8l61 12l41 -12h21l18 -39v-50l-16 -18l14 -14l-8 -88v-35l4 -23l-20 -20l18 -23l-14 -59l14 -25l53 -4l70 -2l80 8l14 7l68 6l24 -9 l56 -8l-7 -49l11 -12v-25l-13 -16l-6 -74l-28 -22h-13l-4 -7l-131 3l-14 4l-17 -4l-63 4h-47h-33l-14 -29l-4 -59l4 -45l12 -54l-6 -53l14 -68l-20 -41l-19 -36l-10 -9l-76 9l-57 4h-35l-16 -15l-19 31l-8 43l8 55l-2 41l2 52l15 71l6 25l2 57l-12 21l-25 4l-64 6l-49 -17 l-16 7l-10 -7l-70 7l-65 -7l-43 5l-19 16z" />
<glyph unicode="," horiz-adv-x="870" d="M51 -199l53 49h11l8 9l59 41l11 10l83 37l17 59l-31 33l-6 18l-16 31v25l-11 10l4 117l46 30v17l24 20l84 33l123 -6l41 -10l65 -78l17 -74l-10 -43l10 -39l-10 -51l-19 -29l-31 -92l-38 -68l-19 -8l-22 -37l-41 -59l-115 -72l-59 -47l-50 -16l-28 24l-39 -24l-58 41 l-24 31v10l-6 6l-11 65l-12 19v18z" />
<glyph unicode="-" d="M143 594l17 49h8l22 35l60 8l74 10l96 -8l35 12l28 -22l88 6l76 -6l84 6l8 2l97 14l120 -14l111 8l43 -16l41 -43l-8 -39l8 -33v-16v-41l-14 -17l6 -83l-51 -41l-66 -11l-158 -8l-41 12l-131 -8l-73 -4l-39 -10l-29 14l-131 -14l-135 12l-99 6l-14 11l-22 69l-7 6l13 25 v29l-13 12l9 49l-9 31z" />
<glyph unicode="." horiz-adv-x="837" d="M215 129l4 70v18l17 12v17l49 78l53 30l39 11l104 -7l17 -10h30l41 -41l47 -61l7 -66l6 -26l-13 -35l7 -6l-41 -80l-43 -41l-66 -27l-94 4l-60 21l-51 43l-16 30v17z" />
<glyph unicode="/" d="M12 -358l37 41l17 43l24 22l19 49l22 35v25l59 71l7 35l18 10l10 13l-4 18l31 25l10 45l31 49l29 33l34 94l41 47l23 65l33 35l4 37l18 47l66 101h2l24 34v13l78 94l19 41l16 16v17l12 14l6 41l29 41l25 72l12 28l41 45v21l29 41l22 53l37 59h6l12 41v7l19 32v25l22 24v9 l21 18v18l20 48l62 12l63 -19l53 -14v-10l11 -14l43 -43l-6 -66l-68 -70l-23 -71l-14 -9l4 -14l-18 -24l-8 -35l-13 -8l-30 -56l-82 -102l-35 -98l-62 -76l-8 -31l-18 -16l-19 -52l-28 -40l-9 -25l-34 -41v-12h-6l-27 -72l-25 -29l-30 -30l-19 -47l-22 -27l-29 -74l-23 -41 l-14 -35l-29 -28l-6 -29l-12 -33l-25 -22l-16 -47h-6l-72 -138l-49 -59l-16 -51l-11 -14v-17l-59 -86l-37 -70l-47 -6l-22 -6l-78 25l-54 26v25l-8 4v23z" />
<glyph unicode="0" horiz-adv-x="1228" d="M51 582l15 51v47l6 6l-21 53v47l15 23v25l10 10v84l14 43l10 26v19h6l11 31v24l14 8l-14 17l33 39l8 22h8l59 107l76 77l72 48l88 34l45 4l14 15h76l25 10l75 -6l47 -19l70 -10l55 -47l11 -29l47 -24h16l78 -72l24 -18v-17l11 -12l18 -35l23 -24l-11 -11v-16l19 -16v-17 l16 -8l6 -8l17 -90l14 -58l-14 -18l18 -53l13 -17l-7 -34l-6 -7l23 -36l-10 -33l-7 -131l-10 -19l-6 -110l-14 -15l-4 -32l-13 -13l-6 -39l-18 -20v-19l-29 -47l-6 -34l-41 -60l-12 -12v-23l-88 -88l-60 -24l-31 -29l-34 -6l-35 -23l-74 -12l-117 6h-80l-16 10l-82 13 l-37 28l-37 13h-20l-8 32l-25 27h-10l-35 35h-18l-25 49l-26 37l-15 27v18l-10 12l-19 35v16l-24 66v66l-16 30v43zM348 524l31 -43v-18l-6 -6l10 -56l29 -34l-4 -7l12 -41l110 -51l91 -12l59 12l63 47l17 23v22l12 15l19 10l22 25v16l16 16v31l21 43l4 111l14 18l-14 10v31 l14 35h-8l-6 59v76l-18 25v16l-7 43l-34 76h-4l-23 47l-25 33l-57 43l-90 18l-12 -10h-25l-16 -12l-4 -7h-15l-94 -75v-33l-18 -39l-29 -35l8 -6l-18 -53l-6 -66v-22l-13 -19l-6 -129l10 -35l-10 -12v-18l6 -4l4 -41z" />
<glyph unicode="1" horiz-adv-x="1034" d="M0 125v8h8l10 14l13 60l75 69l37 -12l74 12l64 7l67 -7l31 13l27 28l-17 134l8 133h-6l-8 26l-10 25l18 35v53l8 12l-20 162l27 47l-7 19l-2 30l-6 19v16l8 10l7 31v16l-9 27l-18 8l-12 15h-54l-141 4l-33 -17l-28 8l-17 15l-33 -6l-26 18l-10 29l-25 31l6 34v49v39 l12 19v10h7l10 35l18 14l31 10l29 -8l28 4l25 -8l135 8l31 -12l22 -4l113 16l108 -6h43l35 -14l25 -17l10 -12l6 -10v-18l-10 -11l16 -59l-12 -19l-4 -24v-16l10 -13v-18l-10 -10l-6 -95l-12 -12l18 -31l-6 -45l-6 -82l-6 -6l12 -14l-6 -74v-29l6 -40v-21l-12 -10l12 -29 v-12l-12 -10l18 -21l-18 -125l6 -114l-13 -11l7 -112l18 -13l10 -12l90 -4l123 4l17 -6l34 -4l35 -17l21 -18l-6 -27l6 -28v-29h-8v-31l10 -47l-2 -28l-66 -41l-49 -5l-68 -4l-53 4l-160 5l-145 6h-67l-181 4l-129 -4l-35 10l-30 18l-6 97z" />
<glyph unicode="2" horiz-adv-x="1228" d="M10 172v16l21 25v59l2 -6l14 17v12h4l47 125l35 59v17l19 16v12h6l6 31l16 33l43 49v10l135 113l29 12l25 23h18l23 16h18l41 31l154 61l10 8l31 9l41 24l59 64l10 18l-6 6l-4 29l10 24l-29 23l-30 10l-17 15l-57 10l-72 18l-108 -18l-51 -27l-23 -39v-16l-37 -35l13 -31 l-7 -59l-12 -25l-25 -8l-75 -8l-43 -10l-64 6l-16 16h-25l-16 21h-6v16l16 17l6 65l-12 10v56v16l25 92l34 39v27l50 41l57 49l43 12l45 41l53 6l12 10l123 19l148 -6l108 -23l9 -12l43 -8l43 -23l32 -4l9 -6h10v-31l69 -65l7 -23l18 -18v-25l-6 -2l37 -49v-31l-13 -10 l17 -31v-82v-18l-17 -33l-6 -37l-12 -12v-25l-35 -39l-6 -22l-35 -43h-12l-47 -41l-31 -10l-41 -37l-51 -12l-31 -23l-51 -12l-59 -25l-62 -41l-29 -4l-6 -6l-47 -31l-51 -12l-31 -29l-28 -45l-19 -14l6 -25l47 -32l95 -21l41 -29l69 -18l19 -8l14 -15l49 -4l68 -20l57 14 l31 41l16 23l6 6v18h9v41l-15 19l15 57l41 35l53 18l28 -18l123 14l13 -14l18 -86l10 -53l-6 -37l-35 -47v-58l-28 -24l-7 -60l-30 -35l-17 -30l-43 -39l-16 -21l-41 -10l-41 -24l-37 -5l-53 -24l-145 -6h-62l-76 43l-41 8l-16 33l-41 8l-25 37l-47 30l-18 19h-4l-41 -66 v-20l-68 -49l-51 -21l-43 13l-57 -13l-43 25l-27 37l-33 32v95z" />
<glyph unicode="3" horiz-adv-x="1153" d="M33 514l18 45l23 41v33l59 33h111v-15l47 -35l22 -32v-21l15 -18l-25 -70l-24 -35l24 -53l16 -33h9l10 -32l88 -46l117 -24l53 -16l49 16l64 12l65 33l53 57l-6 2l13 31h6l10 107v10l-23 24l-30 47l-33 31l-74 23l-82 -4l-51 22l-31 29l-16 72l-18 18v57l-11 13l35 94 l10 22l41 41l19 25v12l53 35v16l10 13h19l59 63l6 21l-151 18l-109 -14h-12l-4 6l-31 -17l-29 11l-12 -19l16 -88l25 -28l6 -35l29 -47l-10 -31l-25 -16h-25l-10 -25l-39 -10l-8 -6l-70 -31h-12l-29 31l-6 28l-32 29h8v47l-29 31v10l4 8l-22 35v25l-29 40l-18 48l-11 10v59 l-6 17v18l10 12l7 88l43 29l32 6l43 13l84 -13h86l219 -6l17 6l18 -10l264 4l136 -22l28 -48l-22 -41v-59l-10 -86l-43 -41l6 -8l-111 -131l-78 -74l6 -31v-18l95 -59h10v-11l55 -24l12 -17v-18l29 -23l47 -53v-22l19 -17v-16l18 -25v-51l16 -16l-12 -101l-29 -112l-12 -58 v-14l-24 -20l-17 -50l-24 -6l-6 -6l-95 -94l-51 -23h-24l-41 -28l-43 -6l-35 -13l-205 -18l-113 18l-53 23l-41 6l-47 41l-78 63l-57 50l-12 12v16l-11 15v16l4 4l-28 49l-6 33l-17 18l6 31l-20 16l14 25z" />
<glyph unicode="4" horiz-adv-x="1228" d="M16 545v14h4l31 64l47 65l6 17l9 4l98 112l10 15v34l53 54l7 16v12l12 4l18 19v24l41 41v13l17 4l18 43l33 57l39 41v6l-8 8l41 39v19l71 94l6 25l41 34l54 23l186 -4v-6l61 -17l29 -30v-13h-6l-6 -6v-18l12 -11v-71l-18 -51l-7 -99l7 -110l-4 -80v-43v-17l-25 -65 l18 -17v-65l-18 -35l18 -22l60 -25l63 -8l70 8l18 4h17l20 -16h10l25 -31l10 -12l-12 -84l2 -51l-6 -48l-29 -26h-65l-47 -12l-123 22l-43 -10l-17 -49l6 -41l11 -17l41 -14h94l65 -33l13 -49v-6l-7 -4l29 -49l-12 -17l-10 -53l-7 -29v-18l-34 -16l-37 -7l-156 7l-33 -13 l-153 4l-27 -10l-22 10l-74 -10l-29 6l-22 -10l-37 10l-19 13h-24l-41 69v29l14 12v60l10 16v47l13 18l28 29h97l10 14h18l13 -14l51 8l20 29v63l-20 15l-150 2l-18 -6l-14 4l-52 6l-49 -6l-14 4l-17 -4l-92 -2l-135 4l-35 20l-6 4l-18 48l-6 67l-7 25zM399 635l86 -6h97 l22 -19l49 13v18l-8 29l10 53l-22 35l6 6l6 113l-22 55h-13l-28 -21l-25 -59l-41 -47l-47 -82h-10l-56 -35z" />
<glyph unicode="5" horiz-adv-x="1116" d="M41 424l4 82l47 49l82 -6l47 -6l33 -6l33 -23l16 -8l14 -10v-60l19 -12v-16l22 -48l29 -30l47 -39l88 -15h107l12 15h16l86 47l39 82v10l11 6l18 19v26l-10 15l10 110l-23 25v47l-45 53v17l-49 30h-18l-10 10h-21l-10 15l-84 8l-59 -23l-52 -10l-22 -22h-19l-88 -78 l-8 -12l-16 -19l-94 -16l-72 8l-23 8h-12l-16 31v65v29l12 16l4 41v21l-12 10l12 35v90v47v64l12 30l-12 101l6 51v18l-10 13v24l-8 4l12 13l-12 30l55 45l33 19l108 -6l68 -13l121 9l35 -9l26 9l207 10l27 -6l30 6l148 -6l41 -13l43 -45v-43l-17 -20l7 -115l-31 -22 l-41 -23h-51l-156 -6l-25 10l-28 -4l-217 8l-31 4l-27 -8h-63l-6 -33l10 -73l-4 -64v-6h26l9 6l51 47l94 27l94 -2l76 -14l78 -29l76 -25l92 -69l20 -35l72 -88v-19l33 -28l8 -72l25 -59v-76v-43l-9 -45l-8 -31l-8 -63l-12 -21l4 -4v-12l-23 -23l-53 -112h-6l-41 -78 l-45 -27l-19 -24l-106 -58l-64 -24l-190 -25l-35 18l-80 13l-100 45l-41 6l-25 31v18l-49 27l-10 24l-31 17l-28 49v16l-25 37v53l-16 17v12l-25 29v30l6 7z" />
<glyph unicode="6" horiz-adv-x="1116" d="M59 711l13 166h4l6 81l16 64l25 33l8 51l23 41v31h6l16 34l82 82l18 6l41 35l60 43l6 4l41 25h16l31 16l59 13l58 -6l182 -19l102 -29l66 -63l16 -6l19 -31l6 -47l12 -39l45 -59l13 -101v-71l-35 -31l-31 -10h-92l-37 10l-4 14l-37 25h-10l-15 8v55l-4 41l-59 60l-47 22 l-25 23l-92 -4l-6 -7l-84 -41l-22 -24l-58 -59v-17l-14 -10l-6 -39l-4 -33v-30l4 -7l61 37l76 17h76l4 8l65 -21l109 -28v-6l51 -17l119 -84l41 -41v-10l10 -14l31 -52v-30l35 -45l6 -39l12 -27v-78v-30l-18 -33l6 -84l-19 -29l6 -24l-24 -27l-27 -49v-17l-90 -100l-4 -18 l-43 -37l-35 -23l-82 -28l-67 -19l-119 6l-55 -6l-35 25l-78 18l-12 10l-35 7l-47 28h-13l-40 41l-19 6v15l-35 34v17l-35 41v16l-16 19v18l-8 6l-10 66l-15 16l-4 82l-28 78l6 153v23zM336 547l6 -6v-35l10 -47l19 -19l12 -22h8l17 -64h10l37 -32l34 -41l35 -11l105 -12 l49 18l70 58h14l4 24l22 35l-10 53l17 35l-7 41l-22 37l-4 35l-25 24l-12 29l-96 39l-41 8l-76 13l-47 4l-82 -45v-13l-47 -67v-39z" />
<glyph unicode="7" horiz-adv-x="1089" d="M70 1311l10 10l-6 29l49 36l55 23l96 -6l144 6l45 14l94 -8l31 -12l45 -6l18 -29h13v-10l53 -47h10l25 -35l28 -16l35 16l14 10l11 64l47 47l78 18l69 -22v-13l35 -37l12 -75l-6 -54l6 -45l-12 -12l-16 -53l-31 -51l-10 -43v-13l-19 -16v-18l-20 -17v-24l-17 -19v-18 l-51 -64v-12l-37 -41l-22 -55l-60 -64v-22l-28 -19l-19 -33l-12 -18l-29 -65l-6 -19l-28 -31v-39l-37 -43v-22l-17 -10l8 -66l-8 -53l-20 -129v-49l-55 -82l-43 -10l-134 10l-8 6l-33 41v14l-36 21l-7 106l-6 78v23l25 24l4 57v19h6l14 14v17l17 16l-6 31l22 26v19h8l17 41 l24 30l21 48l37 51l88 119v14l37 45l69 90l41 47l13 23l-7 16l-34 29l-31 6h-17l-34 24l-37 50l-37 16l-41 -4l-49 4l-49 -37l-31 -29v-16l-10 -14l-9 -33l-8 -18l6 -31l2 -4l15 -54v-6l4 -6l-19 -12v-10l-32 -31l-29 10l-113 -10l-22 18h-19v4l-8 9h-10v59l10 10l-16 29v18 l-6 7l12 65l-6 66l8 84l-14 127z" />
<glyph unicode="8" horiz-adv-x="1159" d="M47 336l12 70l-12 86v12h4l17 12l18 35l-18 41l51 74l57 26l19 25l28 6l25 12l24 31l-18 33h-23l-14 12l-18 18h-9l-8 -8l-10 21l-25 16l-47 72l-6 41l-6 35l-4 12v16l10 13l21 26l-21 33l-6 8l18 74l13 31l41 63l47 59h10l6 7l90 63h25l22 19l86 14l74 8l146 -4l30 -4 l82 -33l47 -4l60 -47l43 -8l16 -33l47 -37l10 -10l-6 -43v-17l19 -30l18 -4v-21l10 -10l-14 -55l14 -45l-10 -13l10 -22l-6 -37l-16 -57l-6 -7v-12h-13l-28 -53l-64 -27l-24 -31v-12l67 -31l43 -47l31 -6l6 -18v-17l4 -6l39 -69l8 -60l19 -22l-6 -41l6 -39l-4 -33v-25l-6 7 l-15 -25l6 -29l-24 -34l-8 -25l-9 -27l-41 -86l-92 -75l-41 -35l-80 -37l-59 -16l-127 -11l-94 6l-127 13l-8 8l-35 8l-107 59l-32 19l-23 29h-22l-25 47l-16 10l-13 37l-24 24l-8 35l-9 47zM319 403l19 -16l27 -51h14l76 -45v-2h12l35 -15l112 -6l76 21l58 8l40 43l25 39 l12 113l-41 51l-12 8l-4 24h-14l-25 13l-86 16l-18 14l-101 5l-88 -23l-57 -41l-55 -90zM354 1018l11 -43l57 -51l67 -25h76l78 6l64 29l55 41l6 31l10 12l27 24l-27 29l-35 43l-30 23l-54 16l-53 18l-57 7l-12 -7l-82 -18l-41 -12l-41 -60l6 -6l-19 -18z" />
<glyph unicode="9" horiz-adv-x="1155" d="M55 862v76l17 35l-11 41l19 18l4 76l25 59l4 43l20 11l10 47l88 84l29 4l98 65l56 13l155 22l35 8h23l24 -20l76 -6l23 -17h30l29 -30h18l29 -29v-10l35 -25l39 -47l20 -12l37 -47l-6 -35l23 -25l24 -35l6 -47l21 -35l24 -124l15 -107l2 -51v-17h-2l-7 -83l-18 -82v-7 l10 -12l-10 -18l-31 -123l-18 -53l-47 -101l-17 -10v-25l-34 -41l-31 -47l-23 -20l-28 -10l-9 -19l-8 -16l-8 -6l-82 -54l-28 -6l-91 -35l-182 13l-47 -13l-41 25l-68 16l-45 31l-36 23l-41 49l-21 29l-12 16l-12 70l-29 65v59l-12 13v47l65 59l70 4h35l30 -16l41 -47v-12 l6 -9l13 -32l4 -7h12l6 -45l17 -6l18 -12l29 -12l28 -25l90 6l48 13l34 18h25l94 86l6 37l19 22v13l-25 18l-6 -6l-37 -16l-4 4l-29 -17h-53h-106l-41 13l-15 10h-28l-35 22h-19l-2 -4l-20 19h-23l-71 51l-25 8l-4 29l-37 22l-10 23l-18 12l-7 6l-16 43l-18 4l-13 31l-16 18 v35l-12 11l-7 47v18zM344 866l23 -16v-37l47 -39l18 -29l90 -36l88 -4l133 4l31 22l35 78v22l-6 41l-17 78l-6 47l-18 29v27l-41 22l-16 29l-25 12l-29 21h-24l-23 20l-59 4l-29 -18l-49 -6l-47 -45l-41 -39l-12 -49l-17 -17v-14l-6 -64v-43z" />
<glyph unicode=":" horiz-adv-x="870" d="M227 784v64l11 35l-5 49l11 10l8 31l45 63l37 23l35 14h69l4 4l56 -4l82 -65l30 -41l-6 -56l23 -20l-4 -27l4 -26l-17 -17v-49l-61 -65l-10 -11l-64 -16l-14 -14l-82 6l-53 24l-41 6l-25 35zM233 193l23 22l20 43l93 68l45 16l94 -10l55 -13l29 -36v-25l29 -25l12 -18 l6 -39l-6 -20l6 -19l-18 -78l-11 -28l-30 -35h-11l-43 -41l-34 -12l-52 8l-49 -8l-12 12l-41 8l-41 33h-12l-9 31l-20 10l-12 18l-6 54z" />
<glyph unicode=";" horiz-adv-x="870" d="M31 -211l41 41v14l18 4l88 66l78 41l4 8l49 45v29l-24 22l-19 74l-24 10l-11 11l11 20v10h8l10 25v47l57 57l80 37l23 6h59l13 -14h40l11 -16l47 -7l14 -10l41 -53l8 -47v-55l-8 -70l8 -12l-32 -45v-47l-25 -25l-16 -41l-31 -47h-6l-11 -23l-59 -65l-115 -84l-92 -51 l-59 -6h-41l-35 6h-18v4l-23 14h-10l-37 86v25l-6 6h-6v10zM215 791l16 53l-12 28l23 60v22l18 21l-4 41l61 45l62 24l59 11l94 -4l72 -31l23 -35l24 -51l-6 -78l6 -82l-14 -10l-6 -33l-23 -33l-24 -24l-45 -17h-15l-4 -8l-65 -10l-97 6l-32 29l-47 8l-54 49v8z" />
<glyph unicode="&#x3c;" d="M154 639l28 35l-2 53l72 37l31 31l20 12l62 70l16 12l20 35l43 28l48 60l18 20l53 29l8 20l43 29l39 39l54 45l6 -2l26 35v6l29 27l8 20l31 14l2 9l27 12l8 16l35 35l61 -8l53 -37l43 -33l-2 -10l6 -18l27 -56l-29 -55l-88 -45l-47 -60l-16 -2v-14l-25 -18l-20 -29 l-15 -6l-49 -39l-112 -68l-64 -82l-84 -49l-18 -26l-23 -9l-28 -36l14 -56l57 -30l64 -78l32 -29l43 -35l27 -39l37 -12l2 -20l14 -7l21 -4l18 -32l80 -45l8 -23l35 -25l31 -38l33 -13l28 -37l47 -26l11 -23l-7 -4l9 -22l-60 -33l-45 -62l-24 -2l-47 -10l-60 51l-84 62 l-6 18l-14 8l-33 43l-66 39l-114 103h-6l-33 39l-29 12l-24 24l-15 27l-35 16l-26 29l-35 31l-53 59l-66 62z" />
<glyph unicode="=" d="M133 410l4 6l8 33l-8 32l15 8v25l-15 18l6 9l7 28l18 25l12 10l99 2l34 -8l52 6l141 6l39 -4l30 15l37 -13l74 -2l131 -4l41 6l158 -4l65 -10l54 -31l-7 -69l13 -13l-8 -20l8 -15v-12l16 -35l-16 -22l-41 -37l-43 -12l-185 10l-45 -14l-98 12l-6 2l-121 4l-39 -4l-88 2 l-31 -16l-32 10l-33 -4l-115 8l-24 -2l-60 4l-22 31h-6zM135 838l17 32l-17 25v14v33l15 12l-7 70l52 31l65 12l43 -8l117 12l41 -8l129 6l76 2l36 10l29 -12l27 4l209 -10l30 6l29 -6l70 4l14 -12l6 -31l19 -23l4 -8l-13 -18v-23l13 -10l14 -33l-14 -32l4 -7l-17 -39h-8 l-22 -28l-60 -6l-127 -29l-43 27l-35 -9l-28 17l-88 -2l-131 -10l-29 10l-8 -4l-96 -11l-232 2l-43 15z" />
<glyph unicode="&#x3e;" d="M209 121l27 55l90 45l47 60l16 2v14l25 20l20 27l15 6l49 39l110 70l66 82l84 47l18 26l23 11l28 34l-16 56l-55 33l-64 75l-33 29l-43 37l-26 39l-37 10l-2 20l-14 7l-21 6l-18 30l-80 46l-8 22l-35 27l-33 39l-31 10l-30 37l-45 26l-11 23l6 6l-8 23l41 40l64 52l24 2 l47 10l60 -51l84 -62l6 -16l14 -10l33 -43l66 -39l114 -103h6l31 -39l31 -10l24 -26l15 -27l35 -16l26 -29l35 -31l53 -57l64 -62l24 -57l-24 -88l-72 -35l-31 -33l-20 -10l-62 -71l-18 -11l-21 -37l-43 -26l-45 -60l-18 -20l-55 -31l-6 -20l-43 -29l-39 -39l-56 -43h-4 l-26 -35v-6l-31 -24l-6 -21l-31 -16l-4 -8l-25 -13l-8 -16l-35 -35l-61 10l-55 37l-43 31l4 12l-6 17z" />
<glyph unicode="?" horiz-adv-x="1116" d="M125 801v22l16 29l-12 25v63l18 31l-12 63l12 31v6l13 10v25l10 57l6 19v16l25 25v16l84 74l12 22l102 54l101 4l43 14l104 -6l29 -19l92 -14l61 -33v-6l41 -24l58 -66l24 -41l31 -68l-4 -75l27 -90l-7 -54v-18l-16 -23v-24l-12 -10l-4 -35h-9l-30 -53l-92 -97l-43 -26 l-41 -41l-45 -41l-13 -33l-18 -8l-10 -15v-45l-13 -16l19 -12v-35l-72 -25l-141 6l-19 11h-10l-8 47l-10 12v33l28 39l6 73h7l28 70v25l84 94l4 24l107 95l24 51v6l-6 6l13 10v15l-7 6l-12 16l6 19l17 12l-4 16l-54 54h-22l-31 20l-119 -8l-45 -31l-37 -35l-18 -41l6 -65 l12 -45l-4 -101l-24 -24l-31 -6l-27 -25l-90 -16l-63 12zM354 72v20h4l13 23l-13 51l29 59v25l59 35h54l4 6l55 -6l41 -19l37 13l45 -13l14 -28l33 -23v-33l-22 -41l10 -69l-35 -70l-76 -47l-125 4l-59 21l-35 28h-8l-17 47z" />
<glyph unicode="@" d="M68 602l12 41l-12 23l24 86l-14 10v37l14 10l2 88v18l31 52l-10 24l22 29l8 18v17l21 30l24 82l-8 4l35 46v20l72 53l67 72l70 53l55 25l4 4l66 24l129 21l178 -8l49 -17l72 -30l31 -9l41 -39l39 -24v-8l22 -13l25 -28v-4l2 -6l20 -23v-18l39 -45l27 -62l14 -94l4 -129 l14 -21l-18 -16l4 -59l-8 -11l4 -77l-14 -11l-6 -80v-22l-13 -41v-31l-8 -37l-20 -53v-29l-27 -47l-35 -32l-24 -39l-70 -35l-90 -15l-88 -2l-35 9l-39 55l-43 -21l-43 -22h-18l-9 -10l-75 -17l-68 17l-65 41v14l-35 55v29l-13 12l-4 47l-30 37v127h6l18 49v58l23 47l-13 14 l13 10l6 66l29 45l8 49l51 51v15l55 45l51 34l58 27l59 -14l60 -35l8 -8h10l12 14l21 16l26 9l19 6l65 -25l72 6l-23 72l-59 53l-94 29l-100 18h-107l-16 -12l-39 -6l-43 -20l-80 -50l-45 -30l6 -4v-21l-41 -22l-14 -56l-35 -53l18 -10l-28 -41l-11 -10l-8 -70h-6l-16 -49 l-7 -94l-6 -9l11 -24l-19 -19l-6 -49v-33l20 -18l-6 -39l-8 -6l8 -8l9 -105l26 -18l-18 -25l8 -6l22 -33l11 -53l30 -12v-33l39 -47l64 -43l61 -16l78 -17l43 10l117 -24l53 10l8 4l68 15l90 36h14l25 25h74l4 10l2 -49l37 -47l-13 -25l-47 -34l-61 -37l-92 -39l-72 -17 l-78 -10l-45 4l-154 -14l-55 12l-18 10l-13 13l-51 2l-12 18l-72 19l-24 22h-11l-49 33l-35 47l-34 29l-25 45l-35 31l-33 71l-6 31l-14 94l-14 10l4 62l-4 39zM584 741h6l4 -6l-8 -28v-13l10 -28v-41l16 -31l6 -35l39 -14l27 39l-6 4l20 18v23l15 59l-2 53l14 35v41l-10 12 l-4 31l-27 25l-29 -15l-10 -22l-27 -17l7 -8l-9 -14l-14 -21zM897 500l8 -6l6 -17l15 -12l65 12v21l10 24l13 51h6v39v17l20 59l11 80l6 72l-17 16v14l7 4l14 93l-19 26v19l-49 -17h-12l-6 -6l10 -12l-4 -4v-6l-12 -56l4 -34l-12 -13l-17 -114l-12 -23v-86l-14 -12l2 -45 l-7 -21h-4l-4 -35h-8l14 -24l-6 -4h-8z" />
<glyph unicode="A" horiz-adv-x="1337" d="M14 39l11 24l-11 29l4 105l7 18l18 18l29 5l34 26h7l6 -8l12 14h41l37 31l-8 21l16 36l8 58l25 57l4 55l20 35v25h2l19 71l14 46l45 104v74l25 69l10 23l8 37l11 10l12 65l22 89l7 47l32 43l-16 22l20 29v29h4l15 43l57 49l72 16l72 6l16 -6h18l23 -16h18l17 -31v-25 l12 -12l6 -57l12 -19l11 -57l24 -72l4 -59l39 -59l4 -39l19 -37l16 -88l19 -47l24 -27l4 -49l4 -37v-6l9 -6h10v-6l14 -13l-8 -6v-35l37 -71l-13 -21l9 -18v-13l22 -12l4 -59v-17l37 -61v-35l23 -51l22 -6v-6l37 -17l78 -8l29 -41l4 -76l6 -6v-22l-10 -19l4 -22l6 -7 l-17 -12l-12 -22l-35 -25l-84 -12l-215 -6l-8 -6l-35 12l-90 -12l-63 6l-51 18l-19 41l8 10l-14 37l6 37l4 4l-16 19v26l41 55v5l47 26l125 17l18 18v23l-43 57l-172 6l-39 -6l-6 6l-137 -6l-51 -21l-37 -59l-12 -12l24 -17l10 -14l43 -4l11 -14l100 -5l37 -24l-15 -31v-39 l19 -24l-4 -4v-13h-8v-43v-22l-11 -19l-32 -22l-209 -12l-178 -13l-105 13l-47 18zM561 645l10 -8l138 -10l43 18l20 21l-39 100l-24 43v61l-35 37h-25l-16 -35h-8v-32l-17 -17l10 -14h-4h-6v-16l-20 -11v-16l-17 -25v-18z" />
<glyph unicode="B" horiz-adv-x="1228" d="M37 100v25h6l6 25v18l-6 6h-6l18 45l35 23l92 2l54 6l28 10l21 19l-9 81l15 41l-15 37v23l-2 100l-16 14l18 29l-2 141l2 23l-8 23l8 182l9 6l-11 14l11 8l12 41l-12 50l-11 28l-38 17l-64 -9l-70 5l-34 16l-13 31l13 22l-13 12l-6 72l-12 12l12 23l6 37l17 16l55 29 l45 6l168 -6l14 -10l133 2l72 -4l21 8l28 -8l47 6l90 -6l64 -17l59 -16l52 -31h12v-6l31 -12l32 -33h23l33 -33l6 -29l6 -4l22 -43l-6 -6v-16l13 -12v-23l30 -37l-12 -10v-19l12 -10l-12 -55l6 -6h6v-10h-6l-31 -97l-49 -37v-20l-35 -25l-10 -22l-6 -17l33 -49l84 -57l8 -25 l16 -10l19 -65l16 -7l6 -55l15 -51l-8 -31l-13 -10l-4 -72l-6 -16v-18l-29 -48l-6 -22l-24 -25l-29 -65l-68 -51l-26 -9l-37 -28l-62 -23l-79 -12l-129 -10h-82h-101l-123 -2l-16 6l-115 -13l-141 9l-23 10l-12 94zM502 496l8 -84l16 -23l-6 -29h-6v-16l6 -41v-43l10 -10 l43 6l56 -18l37 12l55 6l94 18l23 17h16l14 12l41 47l4 105l-22 71l-21 23h-16l-4 8l-12 18l-88 23l-78 6l-15 2l-114 2l-13 -4v-12l-20 -27v-16l4 -41zM502 1051l18 -88l6 -7l-12 -28l6 -17l-10 -18l33 -33l75 -8l97 8l94 33l29 22v13l24 35l19 34l-13 54l-30 22l-33 19 l-84 41l-137 4l-35 -4l-29 -23v-43z" />
<glyph unicode="C" horiz-adv-x="1265" d="M82 614l4 113l-4 100l18 47l13 70l12 53l-6 31v16l24 35l31 37l41 82l18 16v13l64 59l20 41l89 55l53 17l16 10l78 25l98 -7l111 -18l112 -43l11 -12h41l63 45l29 -2l67 -13l21 7l57 -33l15 -31v-10h-9l-6 -53l-4 -54l-16 -24v-58l16 -12v-12h-8l-21 -94v-25l21 -16 l-12 -17l-9 -37v-65l9 -82l-60 -37l-28 -4l-29 8l-53 -10l-27 14l-33 29l-12 86v20l-12 13v16l12 12v29l-35 49v35l-26 23v16l-48 43v10l-32 25l-27 10l-47 12h-43l-59 -12l-80 -39l-19 -24v-19l-55 -45l-12 -27v-28l-35 -37v-4l6 -4h-6l-17 -25v-37l-16 -63l-10 -41v-17 l10 -14v-18l-10 -17l6 -147l14 -10v-78l13 -19v-22l22 -41l29 -23l-6 -26l20 -11l6 -28l80 -49l35 -4l25 -19l43 -4l84 6l34 -2l47 37h19l35 47l35 35l8 35h4l16 12l13 76l10 119l35 28l-9 13l41 -11l82 8l29 -10l53 -24h19l-4 -21l4 -24h-9l-10 -31l-8 -70l-8 -8l16 -35 l-20 -16v-29l-21 -47l-6 -43l-33 -76l-71 -84l-29 -32l-18 -9l-50 -41l-71 -28l-47 -4l-76 -27l-66 8l-67 -8v8l-101 19l-92 39l-31 6l-36 37l-41 16l-50 49v17l-30 34l-6 19v12l-19 16l-4 43l-31 45l-4 48v18l-20 16l6 29l-6 8l-13 39l-12 25v59z" />
<glyph unicode="D" horiz-adv-x="1320" d="M18 205l48 28l10 19l14 10l60 -4l28 10l35 -18l35 18l28 29v43l9 4l-15 14v70l6 4l-12 14l27 66v29l-6 26l-9 19l15 12l6 78v47l-12 35l-6 112l4 17l-7 135l-12 84v10l-20 19h-49l-60 4h-18l-17 -17l-24 8l-17 17h-10v4l-6 6h6l2 31v16l-2 8l-6 9v18l8 14l-16 33l8 8v19 l-8 6h-8l32 49l31 33l70 26l88 -4l59 -20l205 8l72 -6l14 14l14 -10l176 2h39l72 -29v-4l21 -16v-4l6 -6h12v-11l100 -47l23 -18v-12l24 -25l-6 -6l54 -45l47 -53v-37l22 -29v-22l17 -13v-30l32 -54l6 -121l-6 -53l6 -49l-14 -10l14 -58l-14 -43v-88l-8 -43v-26l-16 -13 l-2 -47l-15 -12l-4 -53l-12 -10l-6 -56l-37 -41l-53 -71l-23 -33l-16 -8l-13 -19h-14l-33 -26l-37 -7l-39 -43l-88 -16l-190 -31l-76 13h-121l-16 4l-123 -4l-106 -13l-23 13l-31 -6l-51 16h-31l-16 24l-12 11l18 55l-14 100zM537 616l10 -12v-22l14 -15v-26l-6 -60l-4 -82 l4 -88l16 -35h13l28 -8l41 13h95l59 16l43 37l41 24l41 64v24l18 23l23 88l12 25l-4 4l-8 65l12 17l-12 153l-12 23l10 16l-39 127l-47 60l-23 10v8l-31 10l-43 23l-61 14l-131 10l-25 -6l-10 -10l-14 -21v-32l8 -179v-24l-8 -90l6 -43l-6 -84z" />
<glyph unicode="E" horiz-adv-x="1265" d="M45 1178l8 100l-6 29l4 45l25 34l12 17l37 10l61 -6l113 -6l18 -10l21 4l141 -9l180 11l205 6l150 4h47l57 -21l39 -34l-16 -11l10 -75l-27 -41v-27v-74v-41l-18 -24v-19l18 -24l4 -80l-4 -78l9 -4v-14l-37 -17l-27 4l-108 -18l-29 14l-33 41l-8 125l-6 23v18l10 10v31 l-10 12v27l-37 25l-162 4l-18 -9l-27 7l-135 -2l-33 -19l-27 -33l15 -18l-6 -6l8 -19l10 -170l8 -16l-8 -14v-11l21 -18l65 6h19l24 19l-14 38l14 31l4 49l-4 50l41 45l29 10l106 -6l31 -13h12l4 -16l17 -31l-4 -127l-13 -43l13 -12l-11 -131l-8 -76l6 -63l4 -6l13 -17 l-13 -14v-47l13 -17l-4 -82l-43 -30l-41 -6l-66 18l-51 -6l-35 24l-4 129l4 39l-49 43l-51 -18l-23 -25l-16 -73l16 -72v-19l-16 -10l-2 -63v-21l18 -22h23l10 -13l172 13l154 10l32 -4h21l4 4l37 37l-6 65l-13 95l7 41l12 24l35 23l106 10l45 -6h19l37 -27l-7 -24v-41 l7 -41v-13l-11 -6l4 -160l13 -47l-13 -53l13 -31v-28v-27l-21 -37l-22 -20l-211 -4l-27 12l-205 -8h-65l-99 -4l-14 8l-147 -4l-162 -10l-82 4l-37 6l-25 20v13l-12 10l6 24v35l-6 82l21 53l22 6l6 7l17 12l84 4l16 20l-10 144l4 8l-10 29l10 12l4 219l-10 33l-4 14l10 13 l4 120l-4 131l6 31l19 45l-13 35l-123 14l-49 23z" />
<glyph unicode="F" horiz-adv-x="1265" d="M31 98l20 19l-4 88l-6 8l25 16v19l59 16l63 6l7 6l36 17v6l11 12l-6 29l-19 66l6 108l-8 10l2 54v18l-2 29v18h2l6 16v17l-8 12l2 96v23l-4 129l18 25l-14 38l-2 93l-16 34h-82l-17 11h-10v12l-33 22l-10 13l4 18l-4 47l14 86l-10 37l58 41l16 10l125 -10l135 2l141 -4 l19 -2l151 4l35 4l60 -6l143 -4l29 2l8 -10l147 8l45 -10l56 -19l10 -12v-27h-4l-6 -6l10 -14l-31 -53l27 -13l-13 -45h-8l-6 -106v-47l14 -25l-14 -31l6 -32l8 -60l-14 -24v-23l-20 -24l-39 -7l-58 2l-59 19l-39 -8l-12 18l8 111l-18 10l8 20l6 58l-4 67l-19 17l-47 6 l-168 8l-16 -14l-23 14l-192 -8l-35 -19l-16 -22v-59l10 -19l14 -69l-14 -66l6 -41l12 -18l29 -17h129l29 35l-25 64l6 36v19l-6 6v45l25 25l35 12l129 -6l24 -13h19l12 -43v-16l4 -4v-12h-4l-6 -19v-16h-6l-7 -21l-6 -4v-16l6 -8h7v-17l-19 -16l12 -92l-6 -92v-35l-12 -31 l18 -41l-6 -53v-41l6 -6l13 -19l-13 -41l7 -22v-19l-43 -30l-70 12l-31 -12l-57 8l-25 22l-10 82l10 88v25l-28 25l-123 -9l-45 -55l6 -39l10 -29v-34l-16 -17v-78l-6 -14v-14l30 -35l125 -14l47 -11h11l12 -16l18 -16l-6 -66l12 -18v-21l-12 -10l12 -25v-16l-47 -43 l-59 -10l-162 10l-115 -12l-16 6l-129 -4l-16 -13l-62 17h-10l-16 24v17l-15 16z" />
<glyph unicode="G" horiz-adv-x="1247" d="M70 702l4 154v8l8 6l-10 11l10 22l6 101l18 18v16l13 13v53l35 49l4 27h4l37 77l112 119l76 41l25 17l51 8l67 16l113 -6l2 -8h21v-2l51 -21l67 -51l27 -57h6l12 8v18h7l12 66l10 12h21l12 8h61l49 -20l23 -4l18 -19l41 -53l-12 -12l-4 -41l-18 -84v-35l18 -16l-12 -19 l-6 -67h-7l-8 -8l25 -54l-10 -59l-7 -76l-12 -41l-24 -29l-19 -12l-69 -12l-60 4h-16l-13 12h-18l-27 25l-18 53l-6 31l-12 18l12 33l-12 35l4 6l-11 35v84l-30 53l-35 23h-10l-21 16l-35 -6h-86l-71 -39l-13 -29l-12 -14v-17l-29 -65v-27l-22 -41l-4 -41l-21 -49l4 -55 l-4 -66v-16v-37l6 -4v-20l-12 -11l6 -57l13 -129l12 -12l4 -68l35 -33v-12l18 -10v-31l53 -29l66 -24l35 6l49 12l63 29l7 18l26 29l19 45v12l14 15l-33 16l-67 6l-37 23l-27 28l8 25l-6 8l-2 58l8 12l-16 29v20h8l35 49l29 17l82 -11l147 -10l125 -2l16 -8l158 4l37 -18 l10 -13v-8l-18 -20l4 -52l-13 -18l-8 -90l-51 -35h-72l-34 -25l-19 -16l4 -51l8 -60l5 -79l-13 -27v-18l21 -15l-6 -90l-19 -37l-16 -18l-90 -13l-70 19l-18 12l-7 4l13 15l-6 47l-13 12l-47 -25l-76 -77l-63 -17l-12 -12l-111 -6l-14 18l-54 4l-59 33l-22 4v4l-48 19 l-12 14h-22l-25 23l-29 65l-34 29l-33 53l-25 41v23l-18 40v25l-27 23l6 34l-10 15l-14 106l6 152z" />
<glyph unicode="H" horiz-adv-x="1337" d="M10 1255l13 105l10 29l53 18l117 8l90 -14l106 2l19 -10l92 8l84 -12h10l10 -52h7l14 -37l-6 -40v-19l10 -10l-4 -41l-14 -12l-52 -31l-59 -6l-59 -25l-11 -16l-14 -10l8 -17v-18l10 -15l-10 -34l10 -31l-24 -39l14 -29v-37l80 -22l131 2l17 -8l118 6l78 16h10l21 47 l-15 41l7 72v23l-7 69v8l-129 13v4l-28 14v8l-8 8l-13 66l4 63l-8 7l8 41l39 47l148 4l22 -13l140 9l16 8l29 -8h163l25 -17l35 -55l-4 -33l-8 -35l-5 -84l-30 -24l-35 -10h-78l-53 -56l12 -16v-18l-12 -13l12 -10l6 -51l6 -6l7 -15v-16l-19 -18l6 -54v-45l-10 -24l4 -15 v-14l-12 -12l31 -39l-13 -15v-16l13 -12l-13 -13l6 -41h-6l-10 -34l4 -62l12 -10l-12 -109l-4 -104l-8 -6l8 -4l16 -33l19 -4l22 -16l101 -21l30 -29v-16l5 -6v-23l-5 -8l13 -20v-15l-13 -10l17 -16l-4 -25l-31 -37h-12l-13 -18l-135 -10l-184 -9l-8 17l-156 -2l-35 10 l-22 37l-10 37v20l10 12v95l35 37l82 4l30 12l29 29v36l-12 13l8 28l6 95l-14 14l6 25l2 51v20l4 8l-43 41l-141 6l-119 -10l-21 10l-94 -12l-31 -28v-23l-18 -18v-25h-6l-2 -8v-41l2 -2l20 -31l-6 -8l10 -33v-18l-10 -13v-65l6 -4l4 -25l25 -24l76 -11l49 -18l20 -31v-39 l-4 -8l19 -29l4 -69l-29 -43l-41 -4l-69 -6l-60 6l-166 -15l-213 15l-41 10v49l15 16v29l-15 12v19l15 10l-15 31v22l17 25l49 29l53 12l60 4l10 18l-8 37l-2 6l10 13l-10 8l2 74l6 49l-8 76l10 22l-10 12l-7 144l9 104l8 4l-10 25v70l2 49l8 98v25l-10 24l-33 23l-103 4 l-6 6h-10l-8 24l-19 48l9 22z" />
<glyph unicode="I" horiz-adv-x="1032" d="M45 1266l21 47l12 51l14 18l58 25l59 -2l59 2l27 -14l41 -2l51 6l55 -2l47 -4l50 6l45 -2l55 12l53 2l58 -8l59 2l88 -8l55 -19l23 -22v-6l-6 -7l10 -10v-18l-25 -25l7 -57l-7 -8l21 -17l-21 -59l-20 -17l-43 -10l-41 6l-21 -10l-18 10l-74 4l-63 -8l-8 -6l-15 -16 l-14 -99l6 -112l14 -53l2 -7v-16l-8 -14v-45l6 -6h2v-15h-2l-6 -82l8 -10l-6 -90l13 -19l-11 -18l7 -119l-5 -96l17 -47l16 -12l113 -4l69 4l39 -19l33 -6l10 -10v-27l15 -37l2 -24l-10 -37l8 -33l-8 -37l-41 -18l-7 -4l-104 -8l-102 10l-97 -6l-14 8l-23 -10l-69 8l-78 -6 l-25 -7l-26 9l-78 -4l-70 -15l-77 2l-41 13l-37 28l-19 37l6 16v17l-6 53v19h6l13 53l20 31l41 16l103 2l20 -12l14 12l90 -2l31 12l8 17l2 131l-16 18l12 57l-6 82l10 15v20l-4 6l-12 189l12 65l-12 19l16 24l-10 27l10 24l-4 23l-6 6l10 12v41l7 60v14l-23 16l-102 -6 l-45 -6l-27 6l-37 -8l-72 6l-34 33l-9 76z" />
<glyph unicode="J" horiz-adv-x="1163" d="M43 342l2 18l14 19l-4 45h6l29 55l23 13l10 20l31 23l86 16l71 -8l47 -21l39 -45l4 -37l7 -4l14 -18l-6 -21l18 -18l-14 -47l-41 -49l-4 -41l35 -29l63 8l62 21l22 26l14 35h7l10 10v25l14 10l2 101h4l8 8v14l-12 12l6 95l-6 84l8 32l-14 21l6 6l-12 24l6 17l10 53l-6 82 l-8 25l-14 10l18 14l-14 23l14 59v51l6 19l-72 28l-71 4l-66 -10l-26 8l-41 -10l-21 27l-31 6l-18 18l6 64l4 35l-12 20l10 33l2 41l15 33l34 14l17 6l65 -2l82 -8l74 -6l82 10l76 2l100 -4l80 10l39 -12l31 12l143 -6l4 -10l25 -25l-7 -8l17 -18l-8 -43l8 -43v-45l-12 -43 l-35 -31l-41 -2l-56 -10l-59 8l-45 -19l-39 -12l-8 -14v-17h-4l-4 -18v-17l6 -6l6 -53v-43l-6 -10l2 -31l8 -10l-6 -55l4 -64l16 -123l11 -12l-13 -86l-2 -109l-16 -84v-51l-12 -26l8 -23v-22l-31 -43l-4 -23l-35 -51l-59 -78l-25 -25l-28 -6l-7 -4l-34 -29h-29l-33 -24 l-80 -14l-145 4l-80 34l-35 9v4l-37 16l-71 86v21l-37 41l-15 59l-16 37z" />
<glyph unicode="K" horiz-adv-x="1320" d="M14 49l6 21l13 41l-6 92l36 53l68 2l49 21l13 18v29v41l10 47l-10 73l4 261l-13 24l9 16l2 244l-9 64l-18 18l-88 10l-33 19l-14 31l4 106l-23 18l13 23v51l20 19l74 16l82 -10l188 10l94 -16l43 12h17l10 -12l68 -11l10 -30l6 -23l6 -6l12 -23l-4 -30l4 -37l-10 -25 l-2 -32l-18 -25l-4 -6v-10l-138 -13l-16 -6h-12l-25 -24l-16 -35l4 -123l8 -6v-4l-14 -13l18 -18l-4 -23v-18l29 -29l28 8l47 27l23 23l12 30l60 45v13l35 24l6 23l82 59v6l36 17l23 47h6l6 6v6l-35 23h-18l-12 -11h-17l-8 -6l-16 25l4 41l-10 12l-13 16l9 66v6l10 10 l-10 13l22 34l29 19l98 2l121 -4l22 -10l19 12l104 -4l51 8l25 -4h39h20l39 -23l19 -24l-6 -29l-7 -35l-6 -106l6 -8l-28 -39l-53 -19l-13 -6h-16l-12 10l-56 -4l-37 -12l-16 -29l-41 -28l-18 -25h-4l-13 -12l4 -19l-92 -82l-108 -100h-11l-18 -33v-43l37 -24l35 -39v-12 l41 -29l24 -37h8l66 -76v-10l43 -39l6 -41l47 -51l27 -47l31 -31l18 -39l20 -20l70 8l41 -14l8 -3v-6l-12 -12l12 -12l13 -64l-9 -78v-24l-59 -41l-57 -6l-45 -10l-54 10l-121 -6l-110 6l-39 -4h-18l-23 18h-18v4l-35 19l-10 10l10 24l-4 76l12 6v11l-8 8l-2 53l18 29l74 12 h10l14 10v25l-14 10l-18 49l-33 17l-37 47l-22 24l-19 29l-18 43l6 4v12l-29 23l-41 12h-24l-48 -41v-10l-34 -25v-14l-35 -33l-23 -16l-26 -62l-23 -18l23 -20l-17 -25l47 -41l66 -12l82 -8l35 -17l6 -26l14 -15l-2 -51l12 -16v-39l11 -11l-6 -24l-54 -33l-90 -10l-98 -4 l-129 8l-129 -8l-58 -4h-16l-51 28z" />
<glyph unicode="L" horiz-adv-x="1265" d="M20 1321v12l31 15l23 24v17l43 16l37 8l112 -8l23 8l117 -6h53l43 -2l57 14l115 -2l39 2l137 -6l20 -12l15 -19l6 -41l4 -6l16 -37l-20 -16l-8 -61l-11 -2l17 -15l-8 -51l-31 -25l-10 -12l-92 -10l-123 2l-21 -31l-10 -100l-10 -10l20 -19l-6 -172v-65l-2 -29l8 -12 l-8 -27l8 -14v-41l8 -4l-12 -13l4 -59l-10 -12l4 -74v-27l-2 -80l10 -10l-10 -35l10 -43l47 -22l111 4l106 -14h19l41 16l31 29l-7 65l-10 97l19 14l-11 51v16l-10 43l-8 41l55 35l55 17h58l14 -15h74l8 -4h10l11 -39l22 -18l-2 -66l-22 -16l6 -76l-13 -10l-2 -31l13 -12 l-7 -76l5 -78l16 -35l-14 -14l14 -43l-16 -63l10 -2h4l-16 -52l-89 -32l-77 14l-148 8l-90 2l-90 8h-98l-31 -8h-45l-21 -14l-18 14l-141 -8l-133 6l-62 -12l-63 14l-35 12l-19 13l-10 82l-4 6l8 12l-8 23l18 71h7l6 4v13l37 18l2 4l32 17l150 6h4l16 16l9 72v35l-7 6h-8 l8 24l-4 19l13 22v29l-11 12v43l13 11l-11 49l-4 16l4 209l-8 4l10 16l7 97v26l-4 6v15h4v35l-2 28l14 23v33l-23 26l-102 -2l-107 -4l-18 33l-37 22l2 33v23l-2 49l-14 12l-6 31l-2 6h-9z" />
<glyph unicode="M" horiz-adv-x="1484" d="M10 1257v35l6 49l19 2l31 23l53 16h188l117 7l27 -11l51 -47l14 -49l21 -53l10 -76l16 -86l15 -82l16 -33l12 -20l-4 -35l14 -29l17 -20l22 -103l-8 -55l31 -55l10 -10l-4 -37l10 -51l13 -72l24 -8l21 65l16 31l-4 49l20 82l4 41l3 18l38 86l27 72l10 76v29l17 20l12 21 l-21 14l19 49l4 47l25 31l-9 20l27 60v18l-8 23l31 53l34 20l107 2h106l13 -10h16l27 8l57 11h76l18 -19l31 -24l12 -70l-12 -47l-6 -70l-31 -47l-82 -12l-41 -25l4 -53l-8 -160l10 -43l9 -168l-13 -114l6 -195l-8 -70l23 -22h71l45 -25l15 -12l18 -43l-8 -33l8 -20 l-12 -101l-21 -28h-16l-6 -6l-166 4l-25 -8l-14 4l-207 -6l-47 24l-14 43h-4v10l4 6v41h-4l-6 35l18 17v24l33 37l39 4l10 15h22l25 18l10 22l6 48l-10 75l-6 60l10 22l-10 15l6 4l-12 61l12 23l4 137l-16 27l-29 8l-12 -8v-27l-10 -10l-33 -158l-12 -10l-19 -47v-56 l-12 -20l-12 -49l-4 -31l-13 -10l-28 -66l-25 -53l-20 -74l-37 -98l-25 -41l-8 -12l-90 -6l-49 45l-31 88l-21 120l-30 60l-8 16v49l-13 9v20l-4 41l-18 25v34l-23 88l-6 50l-10 73l-29 62l-41 20l-12 -14v-12l18 -60l-12 -10l18 -41l-12 -139v-23l6 -82v-88l-6 -6l-6 -47 l12 -12l-12 -10v-25l18 -16l52 -15v-6l41 -20h22l8 -19l-4 -12l6 -70l-4 -24l8 -19l-22 -24l-195 -11l-8 5l-86 10l-39 -8l-106 4l-45 30l4 41l-10 47l-9 17l15 12l-15 39l15 23l35 22v-12l18 -10h92l10 14v12l-6 96l-4 84l4 101l-12 16l10 19l6 106l-8 92v31l17 35l-17 18 l8 4v68v35l9 6v16l-9 6v25l9 4l-7 109l-26 41l-94 -7l-31 37z" />
<glyph unicode="N" horiz-adv-x="1378" d="M0 1268l16 24v37l52 53l65 13l164 -6l170 -7l35 -36l6 -41l18 -48h6l19 -59l29 -47v-12l24 -23l10 -18v-23l17 -20v-15l14 -12v-22l51 -50l6 -24l19 -19v-16l6 -6l25 -41l30 -31l9 -33l30 -30v-11l25 -22l16 -37l19 -14h16l14 14l11 105l-17 94l6 67l-14 142v4l-10 12 l-66 12l-59 -12l-70 29l-18 24l-6 60l-6 6v94l18 41v6l59 29l117 -17l66 23l57 -16l149 -3l172 13l35 -17l6 -18l13 -18l-2 -50l12 -49l6 -8l-16 -35v-47l-35 -29l-55 -18h-76l-25 -35l-6 -78l14 -10v-18l-14 -13l8 -88l11 -12l-11 -37v-28v-19l11 -10v-57l-11 -15v-51v-55 l11 -13l-11 -28l6 -6h5v-11h-5l-14 -28l19 -37v-31v-84l-19 -22l19 -52v-32l16 -9l-4 -137l12 -14l-12 -49l-31 -43l-41 -19l-41 -6l-4 -6l-29 6l-71 6l-8 6l-41 66v12l-17 10v25l-31 37v18l-57 88l-8 27l-57 107l-41 77l-25 23l6 14v19l-18 8l-12 31l-37 34l-15 54h-6 l-12 24l4 8l-29 48l-6 22l-10 12l-29 41l4 29l-34 37l-33 14l-17 -33l11 -18l-11 -80v-43l-14 -24l8 -213l-10 -13l16 -57l-16 -39v-51v-31l31 -22l24 4l129 -13l29 4l23 -18l6 -25l6 -16l-8 -70l8 -71l-29 -37l-41 -19h-43l-180 11l-23 -9l-18 13l-180 -15h-111l-14 19 l-12 55l14 45l8 51l-14 50l20 22l39 19l105 20l18 20l-12 64l8 6v10l-14 9l6 6l-11 12l5 37l14 22v41l-14 15v67l-11 31l6 18l-14 11v14l19 10v23v18l-11 39l17 51l-11 17l11 12v22l-6 7l-11 18l11 16l-11 54h6l15 108l-10 64l-82 24h-41l-41 35l-15 41l15 12z" />
<glyph unicode="O" horiz-adv-x="1271" d="M47 788h8l33 123l4 45l8 19v18h6l21 43l-12 23l24 22l6 43l19 17v18l33 23v14l79 76v10l76 55h17l24 27l123 33l59 10h105l39 -16l78 -9l71 -20l64 -41l6 -21l35 -22l49 -41v-18l45 -29l27 -53l32 -29l15 -8l18 -19v-6l-24 -20l18 -15v-28l12 -13l-6 -51l27 -24l12 -41 l-12 -33l6 -62l20 -20l11 -51l-25 -35v-31l14 -12v-14l-14 -17l6 -35l8 -45l-20 -12v-43l-12 -10l6 -43l-27 -41l6 -6l-39 -94v-17l-63 -100l-6 -17l-60 -43l-6 -18l-24 -35l-93 -53l-34 -6l-58 -29l-90 -12l-6 -6l-111 6l-86 12l-77 23l-19 12h-41l-4 29l-65 43l-41 43 l-25 -5l-39 109l-4 4l-74 125v35l-18 18l6 13v18l-20 16l8 54l6 24l-14 10l-7 220zM313 719l9 -8l12 -35l-6 -230l24 -34l-16 -31l57 -41l-6 -35l55 -47l72 -55l80 -4l12 -13h62l39 25l59 18l63 39l25 37l39 70h8l-14 14l35 29v65l20 17v12l14 76l-14 112v60l10 69l-20 31 v25l2 26l-21 33v29l-26 53l-58 57l-28 13v6l-29 35h-29l-14 12l-111 18l-75 -12l-41 -37h-17l-34 -35l-52 -28l-12 -23l-14 -80l-17 -8l-4 -59l-16 -31v-53l-14 -72h-9v-10z" />
<glyph unicode="P" horiz-adv-x="1265" d="M27 29l8 69v17l-4 6l-4 31v36l43 41l61 23l98 4l27 20l8 35l-8 25l-8 86l-12 31l12 22v23l-19 24l7 51l6 43l6 19v41l-19 43l13 16l6 64l-12 12l6 39l6 143l8 62l-8 57l-12 10l-123 8l-13 9l-53 8l-16 47l-4 16l8 27v29l-8 10v18h4l4 29l-8 18l24 48l68 16l98 -6l55 -10 l252 -9l27 4l20 -8l273 6l26 -6l91 -35h12l12 -24l23 -17l51 -18l20 -12v-10l51 -54v-18l15 -12l43 -46l14 -59l12 -12l5 -107l6 -4l6 -33l-12 -8l4 -37l-4 -30h-5l-16 -29v-43l-18 -16l-19 -45l-37 -37l-24 -6l-35 -39l-41 -21l-33 -35l-41 -22l-88 -6l-14 -11l-160 -4 l-18 -6l-23 10l-117 -8l-22 -18l-19 -37l-10 -8l10 -13v-36l7 -72l6 -2h-6l-13 -31l13 -41l16 -12l141 -12l35 6h19l47 -51l-9 -62l19 -41l-10 -63l8 -9v-4l-55 -24l-119 -6l-45 -11l-113 2l-10 13l-111 -4l-22 -11l-27 13l-176 -6l-37 16zM483 811l29 -29l82 -6l14 6 l103 -6l59 12l78 5l59 30l43 60l2 49l-10 20l8 56l-24 51l-56 37l-51 20l-41 -10l-24 10h-52l-129 14l-49 -14l-16 -29h-6v-16l-6 -18h-7l-6 -41l13 -19l-13 -28l13 -25l6 -29l-13 -12v-25l13 -10v-14z" />
<glyph unicode="Q" horiz-adv-x="1288" d="M51 786l17 27l2 37l49 205l31 69l12 19v12l28 4l15 25l51 57h4l27 37l6 10l72 37l38 29l25 2l33 26l61 17l99 6l86 -2l49 -6l65 -15l27 -28l31 -13l75 -53l37 -8h2l4 -29l27 -43l57 -53l17 -6l10 -33h12l6 -39l31 -84l6 -4l15 -20l-7 -41l25 -41l-16 -33v-45l18 -16 l6 -25l-12 -10l-2 -94v-19l14 -12l-22 -49l16 -41l-20 -21l-13 -119l-16 -4l-10 -47l-31 -45l2 -12l-4 -19l-31 -28v-25l-14 -10l-14 -41l-27 -14l-6 -2v-15l-23 -16l-119 -107l-10 -49l4 -10l25 -31l6 -55l14 -43l31 -25l6 -4h10l35 33l8 47l-10 17l-18 30v47h6l18 25 l31 33l51 18l80 -12l27 -12l10 -31l4 -19l19 -38l-5 -23l-12 -22l-2 -17l6 -10l-8 2l-20 -45l-7 -39l-24 -41v-18l-27 -23l-20 -51l-33 -10l-25 -21l-22 -4l-6 -8l-17 -8l-53 -7l-100 13l-56 14l-57 41l8 19l-34 51l-23 49v29l-23 20v29l-14 16l2 43l-22 35l-127 8l-58 12 l-41 25h-24l-17 16l-45 13l-8 20l-31 16l-49 48l-22 26l-19 21l-34 90l-56 94l10 12l-20 25v22l-10 66l6 104l-12 86l-5 107zM307 635l10 -12v-23l2 -72l27 -53h10l23 31l20 20l37 11l49 24l123 -4l74 -12l55 -43l19 -23l45 -28v-25l28 -27l33 -20l43 33l25 102l4 90l-19 41 l21 21l-14 211l-33 73l2 39l-25 25v20l-10 8l-14 60l-33 12l-59 31l-62 20l-141 -16l-45 -27l-4 -20l-62 -33l-33 -55l-24 -13l-8 -20l-13 -66l-12 -45l-27 -28l-4 -58l15 -39l-17 -47zM426 262l43 -51l98 -35l86 33l29 22l6 43l-4 23l-29 16h-30l-50 19l-36 12l-52 -29 l-18 4l-29 -20z" />
<glyph unicode="R" horiz-adv-x="1320" d="M23 29v53l22 45l4 47l-16 43l8 6v17l35 16l110 4l52 12l14 25l8 109l-10 116l-6 21l12 12v6l-12 8l12 19l2 82l-6 6h-6v18l12 13l-4 26l-6 8l12 13l-10 69l6 58l6 43l2 18l-8 4h-4v12h4l14 56l-12 51l-4 6v10l12 13l-37 22l-22 -10l-131 10l-49 51l8 25l-2 88l-10 12 l6 17h4l12 49l51 39l117 -8l63 -13l256 -14l19 12l27 -8l233 -4l104 -33l15 -10l43 -8l20 -19h17l12 -28l88 -72l16 -8l4 -23l7 -4l14 -20l-2 -66l8 -12l-4 -4l27 -31l-17 -33l13 -14l-15 -107l-6 -47l-12 -35v-18l-47 -31l-19 -30l-61 -52l-21 -57l9 -37l34 -18l35 -58h2 l21 -30l4 -35l16 -25l21 -65l16 -19l-2 -37l6 -4l21 -47l49 -12l41 -2l24 -23l-2 -71l-10 -25l14 -41l6 -6v-16l-12 -11v-30l-53 -17l-141 -2l-90 -18l-41 6l-29 25l-19 69l13 86l-15 76l-10 70l-16 88l-23 28h-12l-4 31l-25 31v10l-80 74l-120 -2l-91 6l-22 -12l-10 -21 l8 -51l-6 -33v-18l12 -13l-8 -34v-43l10 -52v-16l10 -14l136 -2l24 -11h16l31 -24l2 -17v-18l-12 -14l8 -60l21 -59l-45 -31l-50 -18l-215 -2l-8 6l-246 -15l-112 13zM498 909l10 -14v-21l-4 -51l16 -24l92 -8l9 6h55l131 16l53 16l49 72l2 82l-14 41l-23 41l-20 10l-96 33 l-193 8l-53 -20v-15l-4 -6l-8 -71l10 -15l-10 -22l10 -37z" />
<glyph unicode="S" horiz-adv-x="1159" d="M96 494l8 59l17 4h18l11 14l28 11l55 -2l29 -17l60 -10l18 -23l-6 -18l-8 -6l14 -12v-64l18 -37v-28l4 -7l17 -36l53 -52l72 -49l69 -24l125 8l107 65l10 35l-6 35l12 12l-6 70l-24 37l-60 53l-69 35l-48 16l-30 19l-68 4l-53 18l-57 25l-121 80l-23 14h-12l-35 35v10 l-31 25v14l-22 22l-12 60l-5 47l-12 57v19l-12 10h-6l18 53l6 64l29 43v28l16 21v16l97 88l45 25l49 29l53 12h135l123 -19l59 -34v-13l23 -12l37 -47l16 20l-6 70l39 23l45 -5l6 13h17l41 -13l41 -18l16 -35l-10 -14v-21l18 -30l-12 -19l-6 -12v-16h-6l-11 -13v-24l17 -13 l-6 -65h-5v-33l11 -24l-6 -66v-16l-11 -13v-22l6 -6l11 -29l-6 -31h-5l-6 -8v-16l-41 -11l-47 9l-35 -9l-39 11l-22 24l-23 25l-22 49l-6 37l-31 78l-37 28l-22 15l-35 26l-25 17l-139 -2l-37 -15h-4l-12 -26l-17 -9l-30 -53v-12l-7 -6l13 -10v-17l16 -24l49 -70l35 -25 l98 -22l48 -19l12 -14l82 -16h26l99 -64l32 -8l37 -35l25 -6l39 -45l67 -78l4 -41v-16l19 -25l6 -41l23 -22l-7 -60l-4 -88l-6 -49v-16l-24 -10l-23 -31l-8 -10v-19l-21 -22l-53 -62l-65 -41l-76 -53l-41 -10l-90 -15l-6 -4l-47 4l-78 17l-31 14h-31v6l-37 13l-45 28l-37 45 v19l-22 14h-14l-23 -49l6 -29v-6l6 -6l-65 -35l-39 -4l-37 18l-47 9l-16 24l4 140l-13 18l9 16l-7 146l11 10l-4 31v47v63z" />
<glyph unicode="T" horiz-adv-x="1228" d="M39 1348l18 16l15 31l41 22l37 -6l75 6l29 -18l104 14l50 -8l135 -2l18 -19l23 17l123 -6h90l168 6l16 -12l80 12l63 -12l19 -13l14 -28l21 -25v-29h-4l-15 -41v-43l-2 -94l-20 -45l14 -14l6 -82v-47l-14 -13l16 -45v-36l8 -5v-18l-16 -18v-25l-74 -16l-63 -7l-53 11 l-11 12l-18 49l-12 17l6 49l-13 8l19 37l-12 61v45l-13 13v24l-47 45l-51 14l-61 -14l-37 -29l20 -47l10 -10l-10 -37l6 -106v-47v-35v-37l-12 -16v-4l16 -21l-4 -35v-18h-6l8 -76l-8 -96l10 -17l-22 -41l12 -22l-12 -43l12 -17l6 -6l-18 -59l12 -18l17 -15l69 -8l74 4 l63 -4l31 -10h6l10 -13l-10 -28l10 -17l13 -63l-6 -55l12 -19v-12l-66 -41l-120 -8l-58 14l-49 -14l-29 -10l-14 10l-129 4l-2 -4l-104 -10l-84 10l-89 -10l-40 16l-23 20l-14 31l18 51l-10 47v7l6 4l-14 14l14 23v28l45 43l74 -6l61 8l72 4l31 25v74l-7 112l-10 13v69l2 25 v16l-2 4h-6v8l8 13l-8 45l8 33l-2 141l17 43l6 119l-6 112l-23 15l-82 -7l-18 7l-6 -19l-60 -47l-16 -18l8 -19l8 -4l-8 -139v-17l-8 -10l8 -59l-35 -37l-35 -16l-36 -13l-72 6l-45 11l-10 32l-9 17l15 24l-15 54v69v23l-4 6l19 31l-15 10l9 35l6 18v21l-6 2h-9l15 24 l-15 35v43l-4 133z" />
<glyph unicode="U" horiz-adv-x="1349" d="M14 1223l19 41l-6 24l-11 25l4 45v14l52 31l71 18l123 -20l72 4l61 -4l21 4l16 -10l127 8l74 -10l33 -15l14 -12v-12l-18 -19v-39l-9 -84l-12 -34l-24 -17l-78 -4l-4 -8l-56 -29v-10h-6l-18 -55l-4 -2l16 -33l10 -119l-4 -176l10 -31l-22 -53l12 -14l-10 -41l-4 -2l4 -9 l14 -47l-6 -6l14 -37l-8 -26l2 -8l-10 -23l6 -84l8 -39l-6 -29l35 -28l88 -47l29 8l14 -14l121 10l12 10l29 6l43 29l33 47l12 94l12 51l-4 90l-14 25l20 125l-6 68v30v17l2 49l8 16l-4 72v80l7 18l-9 23l-8 78l-16 18l-60 -6l-51 -6h-20l-23 37l-8 63l2 80l-12 35v24l35 31 l155 -2l17 -8l59 6l139 -2l123 12l49 -14h8l9 -10l-2 -17l36 -24l-6 -113l-12 -31l6 -28l-2 -13l-35 -16l-135 -8l-24 6l-23 -43v-29l2 -6l12 -25l-6 -40v-17l19 -39l-9 -141l13 -12l-6 -13l2 -135l6 -6h6v-18l-14 -11l12 -20l-19 -51l-4 -179l13 -32l-15 -54v-43l-10 -10 l-8 -35l-10 -14l-7 -37l-49 -31l-6 -24l-37 -23l-51 -51l-74 -47l-41 -6l-6 -6l-18 -8l-57 -13l-54 15l-94 2l-96 22l-90 37l-66 49l-12 29l-21 24l-41 72l-18 6l-10 11l8 116l-18 15l-7 49l-12 16l19 19l-5 69l-12 23l19 65l-5 23h-4l-6 102v35l10 64l3 6v18l-11 12l13 11 v18l-17 31l23 45l-8 100l10 27l-4 37v18l-29 29l-139 10l-39 25l-2 32z" />
<glyph unicode="V" horiz-adv-x="1331" d="M0 1260l18 18l-2 57l9 6l-15 15h-4l10 8l9 -2h8l30 31l50 6l104 2l76 -12l37 8h18l10 -15l129 2l19 13l16 -13l88 -2l27 -28l16 -66l-10 -39l8 -67l-22 -23l-47 -10l-29 -21l-41 -24v-41l14 -12l13 -37l4 -82l30 -37v-25l7 -26l-5 -8l11 -23l2 -16l24 -33v-27l11 -10v-18 l16 -13v-41l12 -75l31 -78l35 67l2 66l6 37v16l10 10l13 82l24 94l16 58v29l13 12l22 71l11 11l28 90l8 6l-20 18l-21 -10l-94 12l-24 23l18 68l-6 63l-2 23l27 30l12 13l88 14l82 -4l112 -10l123 12l107 -2l16 -15l8 -4l25 -41v-28l-16 -25l16 -41l-14 -43l-50 -43 l-135 -20l-32 -8l-25 -19l-6 -37v-18h-4l-19 -35l-8 -82l2 -37l-18 -26v-23l-13 -12l-4 -35l-14 -10v-49l-20 -35l2 -31l-13 -8l-8 -31l-10 -12v-17l-17 -22v-47l-12 -10l12 -23l-32 -94l-19 -19l2 -53l-12 -16l-27 -90l7 -82l-46 -68l7 -53v-19l-25 -32l-39 -31l-39 -12 l-65 4h-19l-39 35h-2l-18 32h-12l6 33v17l8 12l-10 12l-13 74l-20 61l-10 41l-2 60l-17 26l-18 92l-23 62l-10 22l-14 74l-52 137l-16 19v51l-29 37l11 22l-31 43v41l-2 86l-12 17l-13 14l-6 53l-12 13l-160 -11l-14 15l-23 -2l-45 57l10 18l-12 41z" />
<glyph unicode="W" horiz-adv-x="1480" d="M10 1167l19 66l-17 41l8 47l-10 41h4l23 53l18 17l17 -9l47 9l14 -11h23l24 -24l156 12h74h30l29 -6h12l23 -37l6 -27v-18h-6l-10 -80l-9 -43l-10 -24l-16 -13l-66 -12l-24 -35l16 -135l18 -43l7 -160l26 -112l8 -31h17l20 100l4 53l15 48l32 86l19 96l12 53l21 78l10 80 l22 57l7 49l4 17v16l49 49l16 -6l94 6v-6l50 -25l14 -51l39 -192v-41l8 -68l35 -139l8 -35l12 -90l13 -78l41 -51l28 51l17 19l8 79l14 95l10 141l19 94l8 19v18l-37 19l-53 -7l-6 -6h-13l-34 41l10 68l-10 45v28l26 54l66 12h33h22h43l86 -12l19 8l71 -8l8 -13l93 -4 l28 -30l-18 -54l18 -57l-4 -65l-20 -19h-23l-6 -6l-59 -16l-29 -43l-12 -125l-11 -17l-8 -82l-10 -43v-16h-6v-29v-18l-31 -53v-52l-4 -86l-20 -51l6 -8v-16l-11 -13l-4 -69l-32 -97v-45l-21 -84l-8 -94l-6 -82l-17 -37l-71 -34l-82 10l-23 -10l-55 34l-25 97l-24 94l-12 24 l-5 80l-10 13l-31 120l-20 56l-14 176l-4 63l-33 19l-27 -56l-6 -112l-16 -86l-15 -41l-20 -125l-23 -78l-6 -86l-22 -141l-7 -17l-34 -28l-56 -15l-43 -16l-63 12l-51 54l-17 51v125l-14 14l6 66v16l-18 27v36l-23 103l-12 63l-4 47l-19 76l-12 60l-18 34v45l-13 11 l-10 147l-35 154l-6 41v18l-31 29l-41 6l-24 6l-17 19h-6z" />
<glyph unicode="X" horiz-adv-x="1333" d="M6 1288v43l10 10v35l31 13l31 30l129 -6l100 6l131 -14l140 -6l55 -23l6 -45l-14 -14l8 -82v-18l-25 -35l-41 -23l-45 -10l13 -33l-3 -37l7 -4l100 -110l57 4l17 22v23l84 80v12l-76 76l6 22l-14 13v65l8 6l-14 53l-11 7v16l31 31l21 10l20 -4l16 6l88 -8l97 4l65 2 l105 -2l18 6l21 -8l57 4l41 -27l16 -37l-4 -59l-20 -41l26 -35l-6 -24l-59 -37l-94 -6l-45 -11l-27 -18l-6 -23l-35 -34l-49 -84h-4l-60 -88l-41 -54l-22 -47l-25 -18l-12 -12v-23l-23 -20l-8 -2v-15l60 -28l65 -78l19 -47l16 -11v-12l14 -12h17l26 -45v-19l33 -55l6 -4h13 l49 -96l57 -35l66 6l10 -12l76 -6l16 -35l-4 -68l4 -53l-4 -43l-17 -37l-65 -25l-88 11l-113 4l-26 -19l-21 13l-106 6l-90 -6l-19 10h-24l-17 22v41h6v21v35v59l-6 4v19l82 88v30l-35 27l-14 39v18l-33 17l-4 16l-41 35l-61 -23l-62 -75l-18 -43l-37 -27v-21l24 -34l72 -25 l17 -22l-7 -7l19 -45l-8 -20l-11 -10l11 -56l8 -16l-12 -25l-76 -32l-121 -4l-27 -11l-28 8l-133 -8h-58l-8 -4h-23l-12 10h-45l-27 25h-10l-18 31l12 24l-4 51l-6 33l10 25l-6 31l18 22l13 14l41 17l100 12h10l43 45l6 33l13 29l34 22l46 103l-7 6l15 16l-8 6l30 23l35 20 l19 21v18l63 78l20 10v25l-36 16l-25 41l-18 8l-64 101l-31 47l-51 63l-53 64l-4 20v12l-55 29l-70 6l-47 13h-19l-28 28l-15 31l-8 39l2 49z" />
<glyph unicode="Y" horiz-adv-x="1341" d="M4 1204h6l6 6l-12 25l12 10l-6 8v41l6 35l13 35l12 12l51 27l115 -6l155 4l203 -6l23 -13h14v-6l23 -12l18 -18l-6 -64l-6 -37l-13 -10l19 -31l-6 -41l-53 -26l-54 -15h-6l-6 6l-10 -18l-6 -16v-19l34 -47v-24l23 -21v-20l18 -13l13 -28l34 -35v-25l19 -22v-25l16 -24 l35 8l19 35l6 36l65 93l41 53v12h6l35 82l-6 27l-16 8l-101 -23l-24 6l-17 17l11 26v11l-5 6l11 12l-17 23l11 14l-11 41v41v27l41 40l47 25l125 -16l17 -9l35 15l63 -6l20 -13l23 13l160 8l94 -35l-12 -27l12 -12v-18l6 -6l-12 -11l6 -34l-12 -15v-18l-6 -4l12 -13v-34 l-12 -39l-23 -15l-35 19l-31 -13l-26 7l-31 -7l-31 -6l-18 -28v-19l-41 -71l6 -7l-18 -41h-4l-15 -10v-18l-28 -23l-7 -31h-6l-8 -34h-8l-12 -31l-23 -18l-18 -41l-31 -27l-10 -31v-6l10 -12l-35 -35l-16 -25v-16l-49 -59l18 -31l-29 -10l19 -72l-8 -82l-7 -41l-4 -27v-14 l11 -12h34l15 -10l65 10l43 -12l64 -2l39 -3v-18l12 -10l-10 -31l10 -24l-12 -52l4 -28l14 -15l-6 -22l-12 -23h-4l-7 -6v-14l-65 -10l-96 -9l-92 13l-66 -15l-27 6l-135 -6l-139 4l-4 -10l-43 6l-88 17l-19 12l-28 22l2 37l-11 56l5 22l-2 33l18 47l51 35l101 12l30 -12 l66 6l10 12v35l-10 12v29l16 25l-6 32v41v43l-6 29l-10 49l-41 45l-15 25v31l-45 51v18l-12 12v35l-25 29v25l-34 28l-35 35v25l-13 10l-34 84l-13 12l-4 53l-26 25l-86 4h-21v6l-51 21l-25 8l-6 53z" />
<glyph unicode="Z" horiz-adv-x="1277" d="M51 74l19 57l-17 43l6 80l47 68l23 30l45 41v19l21 10v18l20 23l139 147l41 47l11 31l43 35l28 31l17 41l18 12l8 6v10h10l88 84v11l35 24l88 117h13l12 31l12 12l-30 22h-35l-123 9l-86 6l-84 -6l-37 -19l-29 -49v-41l-14 -88l-4 -4l22 -49l-10 -13v-34l-18 -7l-33 -16 l-143 -12h-43l-11 12l-26 47l8 35l6 6v10l-6 7l-10 30l2 45l18 45l-4 121l-16 12l2 29l14 19v18l-6 6l-10 17v81l39 43l100 29l125 -10l82 -6l90 6l55 -4l68 4l31 -14l145 14l92 -14l131 14l70 10h24l47 -16l25 -25l18 -41l-8 -35l-4 -16l12 -14l-18 -39v-37l-18 -6l-19 -51 h-10l-59 -60l-29 -35l-27 -30l8 -7l-34 -26l-35 -39v-12l-53 -41l-25 -23v-12l-18 -19v-12l-17 -4l-69 -84l-37 -37v-10l-52 -72l-14 -22l-26 -19l-9 -6v-10h-10l-43 -57l-27 -15l-51 -78l-20 -24l-31 -27l-22 -14l-13 -10l-6 -35l-6 -6l12 -17l13 -14l102 2l24 -4l127 2 l148 4l63 10l35 17l6 30l-6 29l-10 76l4 125l-10 22v15l22 16l-6 4l35 23l111 -11l26 11l17 -4l20 4l78 -35v-29l-14 -10l18 -18l-4 -7v-16l-37 -35l6 -31l4 -6l13 -18l-17 -43v-43l17 -27l-7 -55l7 -57l14 -23l-21 -61l-10 -56l10 -53l-53 -24l-76 12l-81 -19l-31 13 l-154 -6h-51l-31 -11l-57 -8l-154 23l-143 6l-53 -10l-158 -19l-51 12l-49 13v10l-19 18z" />
<glyph unicode="[" horiz-adv-x="970" d="M203 1266v32l20 7l-10 22l23 37l14 18l57 25l39 -4l16 8l64 -4h45l113 -6l145 -6l55 -19l25 -22v-6l-8 -7l10 -10v-18l-18 -25v-57l-5 -8l21 -17l-21 -59l-20 -17l-84 -4l-20 -10l-19 10l-61 2l-78 -6l-6 -6l-17 -16l-6 -84l2 -25l-8 -10l8 -10l-4 -82l14 -53l3 -7v-16 l-9 -14v-45l6 -6h3v-15h-3l-6 -82l9 -10l-7 -74l7 -32l-5 -13l9 -12l2 -8l-4 -8l-13 -11l11 -8l-9 -16l-4 -37l4 -45l9 -19l-5 -65l-6 -10l6 -11l11 -14l-9 -14l3 -8l-7 -17l-4 -33l4 -59l13 -18l-11 -19l-2 -55l4 -66l-4 -45l4 -49l17 -49l16 -10l56 -2l57 2l35 2l37 -2 l36 -19l33 -6l12 -10l13 -64l10 -63l-18 -68l-41 -18l-4 -6l-168 2l-15 -4l-24 4l-99 -4l-14 8l-22 -10l-84 -13l-43 13l-35 28l-19 35l6 19v16l-6 53v17l11 12l-9 14l-2 74l13 27l-2 12l-7 8l9 10l-2 11l-5 36l5 58l-19 18l12 57l-6 82l13 13v22l-7 6l4 39l-2 51l-2 72 l7 10l-9 9l4 22l-4 17l6 32l9 23l-9 10l-12 8l6 6l9 17l-5 18l-8 43l17 17l-11 8l7 80l-13 10l-6 121l12 65l-12 19l19 24l-13 27l13 24l-7 23l-6 6l13 12l-11 82l2 27l-2 49l-8 74z" />
<glyph unicode="\" d="M59 1384v25l9 4v25l53 26l76 23l24 -4l47 -6l37 -70l60 -86v-18l10 -13l16 -51l49 -61l72 -136h6l17 -49l24 -20l12 -33l7 -29l26 -28l17 -35l22 -41l27 -74l24 -26l19 -48l30 -32l25 -27l27 -72h6v-12l35 -41l8 -24l26 -41l21 -52l18 -18l9 -29l59 -75l37 -101l82 -102 l30 -53l11 -11l10 -32l18 -27l-6 -12l17 -11l22 -69l68 -72l6 -63l-43 -43l-10 -15v-10l-54 -14l-63 -21l-62 14l-22 48v18l-21 18v9l-22 24v25l-19 33v6l-10 41h-6l-37 59l-22 53l-31 41v21l-41 45l-10 28l-25 70l-29 41l-6 41l-12 16v17l-18 16l-17 41l-78 94v13l-24 34 h-4l-64 99l-20 49l-2 37l-33 35l-25 63l-41 49l-32 92l-31 35l-29 47l-12 47l-29 25l4 18l-12 13l-16 10l-8 35l-60 71v25l-22 35l-19 49l-22 20l-19 43z" />
<glyph unicode="]" horiz-adv-x="970" d="M104 -356l19 24v58l6 8l-20 16l20 60l21 16l83 4l21 12l18 -12l60 -2l78 6l8 6l14 17l8 84l-2 26l6 8l-6 13l2 82l-14 51l-2 6v16l8 15v45l-6 6h-2v14h2l6 82l-8 12l6 72l-6 33l4 14l-8 10v11l2 6l12 10l-10 8l8 19l6 35l-6 47l-8 16l4 68l6 8l-6 12l-8 12l6 15l-2 10 l6 14l4 33l-4 59l-10 21l8 18l2 54l-4 65l4 47l-4 47l-16 49l-17 11l-55 2l-57 -2l-35 -2l-35 2l-37 18l-35 6l-10 13l-14 61l16 61l-8 70l41 19l6 6l168 -2l12 6l27 -6l96 6l14 -10l23 12l84 10l43 -10l35 -31l18 -35l-4 -16v-19l4 -53v-16l-8 -12l6 -15l2 -74l-12 -26 l4 -10l4 -11l-8 -8l4 -12l4 -37l-4 -55l16 -19l-12 -59l6 -82l-10 -12v-23l4 -6l-2 -39l2 -51v-72l-4 -10l6 -8l-2 -23l2 -16l-4 -31l-10 -24l10 -11l10 -6l-6 -8l-6 -14l4 -19l6 -43l-16 -16l10 -10l-4 -80l10 -10l6 -121l-12 -66l12 -18l-16 -23l10 -28l-10 -25l4 -23 l6 -6l-10 -12l8 -82l-2 -27l2 -47l8 -75l15 -35v-31l-21 -8l13 -23l-25 -37l-14 -18l-58 -25l-39 7l-16 -11l-64 4h-45l-110 9l-148 4l-53 18l-24 23v6l6 8l-11 8v19z" />
<glyph unicode="^" horiz-adv-x="976" d="M123 1278l39 18l39 27l32 16l17 21l12 4l86 41l23 16l43 19l8 12l33 12l43 9q-1 -1 10.5 -3t23.5 -4l11 -2l30 -12l11 -12l41 -19l16 -14l70 -27l14 -6l20 -12l23 -27l45 -24l37 -19l14 -82l-4 -32l-12 -29l-29 -19l-14 5l-37 18l-25 6v-2l-10 2l-6 8v7l-14 4h-6h-25 l-31 14l-37 4l-39 21l-49 20l-61 8l-76 -20l-39 -27l-33 -20h-26h-8l-29 -21v2h-27l-37 -24l-12 -5l-26 19l-17 29l-2 32z" />
<glyph unicode="_" d="M-45 -358l4 6v51l12 8v19l-12 16l6 4l25 45l12 10h98l25 2l33 -8l387 6l30 13l37 -11l74 -2l156 4l18 -4l33 4l141 -8l41 6l158 -2l65 -10l52 -27l-7 -53l15 -12v-27v-10v-47l-41 -29l-43 -8l-78 4l-154 -8l-96 6l-8 4l-268 -8l-33 8l-29 6l-45 -6l-88 2l-31 -12l-32 6 h-156l-47 -4l-148 4l-59 6l-22 25h-9z" />
<glyph unicode="`" horiz-adv-x="849" d="M174 1329l29 90l47 45l26 6l50 -8l12 2l39 -12l10 -12l53 -19l6 -16l86 -41l17 -4l20 -21l33 -18l55 -25l48 -18l30 -39l-6 -31l-22 -41l-37 -18l-15 4l-45 25h-32v-2l-13 2l-6 8l-2 6l-14 2l-11 2h-30l-35 14h-43l-29 9l-102 22l-57 12l-46 47z" />
<glyph unicode="a" horiz-adv-x="1320" d="M33 336l6 22l8 41l10 23l56 53v12l45 35l47 31l53 6l53 29l70 6l31 16l34 8l72 17l29 10l137 21l57 34l7 17l-3 28l3 25l-13 23l-41 18l-76 14l-22 4l-129 -10l-27 6l-6 -8l-16 -10l-78 -6l6 -31h-6l-12 -10l-4 -35l-13 -31l-12 -18l-78 -31l-63 8l-19 6l-16 41v35l-6 6 h-4v11h4l6 100l10 18l12 37l19 33l35 25l59 49l82 26l18 15l64 4l78 12l129 -12l57 -19l39 -4l47 -22l57 -21l50 -28l16 -17l41 -78h6l10 -36l13 -9l12 -55h12l-4 -45l4 -49v-47l-12 -41l14 -78l-8 -104l12 -37v-17l-6 -106l19 -10l6 -41l16 -15l12 -10h13l41 41l8 27l-8 32 l-25 74l12 33l50 22l51 -12l57 12l8 -6h17l14 -24l16 -17l-6 -8l10 -8v-19h-4l-14 -14l-6 -27l6 -30l-8 -10l8 -56l-8 -16v-25h-8l-17 -18v-33l-30 -49l-70 -47h-12l-13 -19l-123 -16l-77 12l-58 37l-30 21v12l-19 12l-10 12h-23l-59 -36l-80 -41l-92 -17l-78 -12l-147 6 h-23l-10 10l-78 13l-59 41l-29 6l-37 47l-41 84v16l-4 41zM283 287l12 -66l4 -4l72 -22l75 -9l13 -12l22 -12l25 12l63 21l74 63l23 4l57 33l29 57v29l14 18l-31 35h-16l-41 6l-43 -18l-57 -16l-97 -7l-22 -18l-70 -4l-12 -12h-19l-41 -25l-30 -37z" />
<glyph unicode="b" horiz-adv-x="1255" d="M-12 1323v18l10 15l6 26l25 25l22 14l96 -10l80 2h49l95 17l35 -9v-20l34 -53l2 -45l-12 -119v-19l4 -59v-16l-16 -25v-25l57 -51h47l101 29l22 -12l76 14l74 -4l34 -2l37 -21l45 -4l29 -31l115 -92l4 -18l37 -31l22 -35l35 -55l12 -20v-31l13 -10l-11 -25l11 -23l18 -24 l-16 -35l12 -49l-8 -59l12 -74l-18 -37l-7 -27l7 -26l-13 -17l6 -18l-6 -16l-41 -50l-12 -30l-65 -52l-17 -34l-78 -56l-41 -4l-16 -18l-170 -29l-102 6l-41 13l-41 24l-54 17l-57 47l-12 10h-12l-19 -53l-6 -29l-41 -12l-78 -4l-51 16l-41 35l6 59l-6 53l10 52l-10 184 l4 18l-10 11l6 53l10 72l-10 75l10 60l-10 55l8 23l-8 59l-6 51v19l10 12l-4 88l-12 12v25l16 22l-6 39l6 37l-16 18l-66 7l-59 -7l-10 7l-19 18l-4 47l10 78l-12 39l-6 4h-4zM440 434l19 -24v-23l16 -10v-25l-12 -12l12 -12h12l25 -25l25 -41l32 -4l90 -29l35 -10l33 10 l61 17l89 90l6 51l28 47l4 37l-8 76l4 31l-22 32l-19 49l-22 35l-19 6l-36 48h-5l-47 12l-82 6l-36 -14l-70 -25l-41 -41l-49 -76l-10 -22v-47l6 -47l-13 -13z" />
<glyph unicode="c" horiz-adv-x="1130" d="M74 561l6 23v28l-4 13v16l12 12l4 41l25 72l12 18v11l51 57l56 55h10l12 19l57 53l66 29l123 34h33l26 13l148 -13l84 -41l12 -10h16l35 -24l49 -31h11l18 -51l41 -31l12 -29l45 -82l-4 -41l-6 -8l6 -6v-26l-16 -31v-25l-21 -63l-57 -49l-107 -17h-28l-31 4l-76 37 l-24 47l-17 13l6 40v19l11 10l-4 6l34 60l-6 6l17 24l-11 17l-12 10l-53 8l-31 6h-16l-66 -36l-82 -46l-41 -65l-6 -25l-12 -12v-22l-29 -60l6 -22l-6 -113l39 -49l-6 -33l21 -20l16 -17l72 -16l24 -25h100l66 17l64 41l47 55l6 18l37 31l65 6l19 -12l18 20l43 -12l37 -10 l37 -4l14 -33l4 -35l-6 -47l-18 -29l-15 -39l-30 -36l-25 -64l-31 -16l-55 -39l-59 -35l-54 -12l-30 -19h-23l-29 -18l-18 8l-72 -14l-8 -6l-22 2l-60 14l-39 4l-28 10h-35l-19 13l-53 18l-24 10l-33 31l-8 6h-17l-41 45h-12l-47 62l-19 20l-12 41l-22 96l-19 25l-16 92h4 v33l6 33z" />
<glyph unicode="d" d="M33 475l8 107l25 67l6 49h4l37 60l18 30l25 27l65 74l27 22l47 31v4l76 35l16 -6l12 18l64 13h57l19 10l14 -12h37l98 -5l78 -18l35 6l8 47l-8 31l-6 51v6l-29 17l-121 -4l-63 4l-66 -4l-39 36l-6 46l-12 22l2 43l-2 39l4 49l31 23h18l31 18l88 -4l143 -4l23 10l32 -10 l27 8l127 -14l35 6l37 -25h10l18 -18l-6 -47h-6l-16 -37l10 -19l-6 -75l-8 -29l8 -31l6 -6v-18h-6l-4 -33l-6 -21l16 -16l-6 -22l-10 -37l6 -142l-6 -59l6 -59l10 -11l-10 -30l6 -54l-6 -51l4 -6l6 -6v-19h-6l-8 -59l8 -82v-4l6 -8h-6l-10 -10l6 -90l4 -23v-6l45 4l51 -29 l100 -4l13 -18l4 -10v-19l-12 -14v-15l12 -12l-4 -24l-13 -15v-24l13 -15h4v-12l-45 -33l-84 -24l-107 4l-78 14l-8 -6l-2 6l-12 25l-4 32l-6 9l-76 -60v-6l-62 -14l-69 -19l-84 -16l-129 -10l-88 10l-47 22h-35l-66 43h-10l-39 35l-16 15l-23 32l-51 43l-25 52l-18 47 l-22 84v34l-15 13l-4 86zM305 479l12 -12l-6 -6v-17l11 -28l-11 -47h11l18 -19l12 -12l-6 -23l19 -18h6l6 -18l6 -3v-8l23 -30l53 -17l69 -24l125 14l17 14l59 25l19 26l36 52v47l17 26l8 56l-10 39l10 43l-8 24l-13 19l-4 63l-77 78l-48 27l-100 14l-88 -25l-53 -30 l-66 -41v-19l-6 -26l-29 -31v-17l-6 -12z" />
<glyph unicode="e" horiz-adv-x="1218" d="M55 510v18l15 13l-15 18l8 43l17 84l33 62v10h4l41 86l39 24l36 62l23 22l49 33l51 25l17 16l67 27l72 10l23 8l26 -6h82l57 -8l105 -31h41l121 -96l24 -6l6 -19l50 -67l10 -13l26 -24l7 -25l10 -10l-4 -8l37 -51l10 -101l-10 -43l10 -22l12 -29l-12 -27l-6 -4v-14 l-41 -25l-154 9l-35 10h-86l-170 6l-20 -8l-29 12l-94 -10l-64 12l-71 -6l-37 -25l-19 -12l-18 -16l18 -56l31 -41l31 -20l18 -41l13 -14l30 -6l47 -41l68 -13l152 8l18 11l47 6l49 24l74 72l25 37l53 18l33 13l38 -15l46 15l43 -13h4l14 -49l-14 -41l-29 -43l-8 -35 l-35 -51h-8l-35 -55l-43 -29v-12l-37 -12l-16 -19l-86 -30l-11 -13l-225 -30l-86 8l-102 28h-33v7l-66 30l-36 23l-29 14l-14 19l-37 16l-4 18l-50 56l-6 49l-35 49l7 4l-25 57l-12 29l6 6l-19 43l11 72zM379 686l41 -12l219 12l147 -20l54 20l6 43l-31 37l-6 18h-12l-17 13 l-73 28l-91 13l-98 -19l-43 -22l-35 -9l-39 -18l-22 -41l12 -22z" />
<glyph unicode="f" horiz-adv-x="974" d="M10 883l6 28l-6 31l25 33l39 20l49 -10l78 6l55 -6h16l35 23l17 49l-11 65v56l62 79l59 78l47 51l23 9l41 28l71 13l76 16l60 8l94 -18h18l23 -19h59l66 -37l10 -24l53 -21l19 -59v-18l10 -9l8 -43l-12 -14l-8 -35l8 -35l-25 -45l-47 -28l-80 -19l-55 29l-53 4l-35 41 l-10 35v29l10 12l10 37l-8 14h-25l-14 -14l-49 10l-70 -14l-35 -31h-12l-10 -17l-12 -14l-7 -41l-6 -47l-18 -37v-45l12 -14l53 4l207 -16l25 -35l10 -54l-6 -67l14 -74l-18 -6l-94 -12l-97 12l-82 -18l-24 -13l-4 -96l-2 -35l10 -28l-6 -91l8 -36l-6 -21l-8 -51l8 -53l6 -4 l25 -37l51 4l114 -10l15 6l51 2l59 -8l17 -11l18 -18v-17l19 -12l14 -28l-8 -54l8 -18l-4 -19v-6l-10 -12l-11 -21l11 -20l-19 -23l-74 -10l-57 10l-41 -10l-117 6h-30h-86l-39 11l-76 -7h-106l-76 -10l-49 10l-68 -10l-41 21l-20 30l-5 35l11 37l-11 35l5 47v18h12l18 35 v11l56 20l63 -14l45 6h29l41 12h12l18 41l-6 43l-6 80l-6 37v18l18 29l-18 94l12 60l6 34v17l-36 18l-64 -2l-92 10l-41 -8l-35 12l-31 25l5 51h6v23l-11 30z" />
<glyph unicode="g" horiz-adv-x="1243" d="M35 -51l16 69l15 66l26 33l47 55v27l-47 71l-4 41l-6 6h-6l35 33v19l28 16l6 25l25 16l10 12l-10 76l-37 29l12 22l-12 13l6 18l-10 22l4 111l12 59l11 23l8 41l16 18l31 62l43 43l61 39l45 14l19 10l53 13l74 10l112 -6l11 -11l82 -6l41 -24v-2l16 -8l25 -17l12 -24h10 l41 -41h31l10 18v41l12 10l4 29l37 35l58 20l53 -6l51 -18l70 -39l30 -41l11 -15v-45l24 -24l-10 -17l-18 -30l18 -35v-17l-31 -47v-12l-65 -45l-39 -12h-25l-51 16l-22 37l-31 29l-29 6l-22 -31l4 -57l12 -17l-6 -65l-6 -53l-4 -35v-17l-66 -65l-22 -35l-76 -35l-88 -16 l-60 -12l-16 18l-82 -6l-10 10l-78 6l-10 12h-13l-41 -40l15 -23l-15 -29l13 -12l57 -4l78 2l35 14l6 -14l174 6h35l104 -10l82 -12l47 -23l41 -18l51 -52l35 -57l19 -14l22 -33l10 -72l-10 -86l-18 -59l-23 -29v-22l-47 -51l-76 -66l-69 -12l-35 -17l-86 -12h-53l-17 -12 l-45 -4l-151 20l-37 -16l-135 12l-25 16l-49 9l-31 10v6l-26 10l-66 41l-31 8l-10 27l-31 31l-47 82l-4 63v17zM285 -51l12 -23l6 -30l35 -33l82 -31l63 -6l41 -19h45l95 -2l18 13l94 -11l58 25l51 35l41 37l6 59l-6 31l-29 31l-70 34l-120 7l-19 10l-12 -10h-17l-12 6 l-192 -13l-17 -10h-30l-17 4l-31 -28h-18l-45 -35v-23zM391 635l23 -33l6 -18l35 -47l28 -11l19 -10l116 10l48 17l22 30h10l29 29l18 64l-18 69l-10 25l-35 51h-35l-18 12l-4 -6h-15l-4 6l-41 6l-4 -6l-90 -22l-70 -60v-12l-4 -41z" />
<glyph unicode="h" d="M2 1300l6 29l23 60l26 26l37 17l103 -9l71 -10l70 -6l88 6l25 -10l6 -25l24 -24l-8 -54l-10 -34l4 -41v-13l6 -6l-10 -10v-37l-12 -12l-7 -88l-12 -10l25 -35l-13 -90v-25l13 -10l41 29l51 34l92 39l16 17l66 10l88 12l70 -22l75 -25l31 -31h12l29 -45l37 -37v-47l22 -12 v-23l11 -12v-41l18 -12v-41l-10 -12l16 -41l-10 -17v-53l10 -33l-6 -24v-21l-10 -12l10 -10l-6 -41l6 -60l-10 -14v-47v-29l41 -35l65 -12l43 -16l17 -31v-22l18 -43l-6 -64l-12 -55l-35 -21h-121l-16 8l-19 -8l-110 4l-97 -4l-28 -12l-88 6l-31 27l-22 30l4 50v34l18 23 l-18 20l14 46l25 22l20 12l84 13l22 24l5 121l4 33l-9 76v47v47v47l-4 41l-18 22l-64 50l-100 6l-31 -31l-49 -12l-82 -66l-63 -51l-31 -31l19 -16l-11 -125l11 -23l-7 -55h-4l-8 -80l25 -18h16l25 -19l118 -6l41 -28l-6 -25l6 -29l-6 -45l6 -84l-49 -37l-82 2l-151 -6 l-23 -8l-14 8l-170 -16l-90 10l-47 25l-4 63v19l-13 12l6 47l11 68l55 49l41 -13l51 13l19 6l14 22l-8 179v28l12 37l-12 17v47l-6 41v12l-7 6l13 12l12 64l-4 92l-8 80v82l12 12l2 61l-6 68l-33 25h-61l-41 -2l-39 6l-23 37l-4 49l4 43z" />
<glyph unicode="i" horiz-adv-x="933" d="M33 55l6 25l-6 33l10 49v35l35 43l49 22l47 -4l53 -14l66 -2l53 14l31 35l-12 71l10 39l-10 52l6 61l-6 49l12 31l4 88l-4 45l-49 25l-35 -4l-31 4l-61 -13l-90 9l-35 24l-19 33l9 65l-11 48l11 28l-9 29l41 37l13 4l45 -4l61 4l12 -12l13 10l28 -2l58 -6l84 -7h6l12 13 l10 -13l64 -10l8 4l51 -18l47 -2l11 -15l10 -22l-10 -96l-17 -17l17 -18l8 -12l-17 -60v-65l-16 -27l16 -61v-35l-30 -45v-6l14 -13l-8 -90l-17 -57l11 -53l14 -25l33 -23l57 -4l86 11l41 -7l16 -12l37 4l25 -10l2 -20l-6 -27l10 -14l14 -33v-35l-14 -16l8 -41l-14 -33 l-29 -25h-12l-4 -4l-33 4l-80 -6l-80 2l-49 4l-8 -8l-76 8l-63 -6l-54 10h-34l-15 -14l-24 12l-74 -10l-82 4h-63l-60 29zM287 1219l10 34l-10 29l10 39l27 25l69 73l47 11l103 -11l53 -33l25 -32l8 -49l24 -23l-10 -88l-31 -53l-34 -35l-39 -27l-62 -16l-31 18l-28 2 l-58 13l-32 32l-23 29l12 31z" />
<glyph unicode="j" horiz-adv-x="858" d="M-10 6l6 31l24 63l27 33l10 21l41 24l58 -4l59 6l14 -4h17l30 -22l19 -7l22 -30l39 -33l2 -31v-2l7 -8l-15 -72l-57 -55l-29 -4v-51l12 -25l11 -12l18 2v-6l37 -19l6 4l23 -10l49 8v4l35 19l51 65l16 56v76l-4 141l-10 92l14 14l-10 119l8 131v60l-2 51l8 22l-6 92 l-18 23l-107 8l-18 -12l-19 6l-96 -10l-35 12l-20 19l-6 28l-13 19l-6 32l6 39v31l-14 33l25 41l16 18h23l10 10l61 7l66 -25l53 6l70 -6l69 -14l84 10l82 -6l37 -21l18 -35l-6 -106h-6l-16 -53l14 -33l4 -111l-8 -102l-4 -143l-4 -17v-16l10 -17l-4 -116l8 -54l2 -139 l2 -59l2 -113l-16 -16l6 -56l-24 -22l-41 -66l-21 -36l-22 -23h-15l-4 -4l-100 -62l-105 -20l-118 4l-29 10l-57 13l-80 39l-17 16l-30 14l-35 33l-2 10l-37 41l-25 60v34l-10 13l12 61l-4 31zM416 1313l28 47l60 61l22 2h17l12 17l25 4l59 -10l106 -27l27 -37l16 -51v-64 l-12 -59v-14l-61 -60l-35 -16l-31 -25h-35l-65 33h-17l-55 35l-45 57l-10 101z" />
<glyph unicode="k" horiz-adv-x="1337" d="M4 1182l16 47l-4 47l-12 70l12 18v25l54 34l16 7l152 -13l149 -6l47 -6l41 -41l2 -64l19 -38l-21 -80l-12 -66l8 -26l-4 -15l6 -110l6 -23l-4 -31l-12 -131l-12 -63l12 -84l18 -17l41 7l41 10l103 72l32 18l43 45v31l-43 12l-41 -12h-24l-8 12l-17 -12l-41 6l-4 16v13 l-12 12l8 67l-8 54l16 41l25 8l41 -8l129 -4l14 12l12 -8l130 4l34 -11l29 11l51 4l49 -4l82 18h37l70 -18l18 -13l19 -16l6 -27l-13 -88l5 -10l-13 -37v-18l-10 -17l-12 -12l-123 12l-90 -18l-41 -41l-27 -6l-37 -27l-24 -8l-51 -53l-43 -47v-23l6 -28l6 -19l47 -47l22 -23 l27 -10l55 -74l9 -10l34 -24l107 -72l8 -10l16 -19h76l29 -22l35 -12l8 -27l-8 -57l-4 -64l-7 -31v-16l-65 -25l-152 9l-69 -9l-53 13l-99 -13h-28l-123 7l-37 40l10 31l16 4l-16 21l-4 20l-12 25l6 35l20 37l51 12l136 6v16l-47 37h-13l-20 29l-8 16l-107 131h-35l-6 -4 l-94 -59l-35 -8l-29 -25l-24 -35l-4 -57v-19l8 -12l39 -6l76 -6l22 -6l19 -25l-2 -20l14 -21l-8 -43l8 -59l-12 -39l-64 -16l-127 10l-80 -17l-112 7l-60 -7l-63 -10l-60 10l-18 17v24l-19 25l13 22l-4 86l-9 17l19 29l6 28l35 19l72 6h16l43 22l4 68l-18 16l8 49l-2 23 l8 20l-12 17l12 12l-12 109l6 63l8 107l-8 94l6 84l10 59l-10 68v55l-72 16l-53 -12l-41 6h-6l-10 31z" />
<glyph unicode="l" horiz-adv-x="1083" d="M35 55v17l16 16l-8 39v47l8 16v27l43 43l25 8l20 -8l19 14l30 5l156 -13l66 -6h12l12 19l6 6l-10 24l4 15v47l-14 149l10 121v41l-8 43l-12 35v24h12l12 27l-12 55v39l-16 23l16 47l12 24l-12 23l8 53l10 19l-6 41l-12 10l-146 -6l-12 6l-14 -8l-146 8h-10l-18 22v19 l-33 31v12h6l10 37l-16 51l8 33l-2 61l55 39l82 -6l103 -2l92 -17l145 5l131 -9l48 -24l18 -62l-14 -84l-4 -41l-5 -57l-14 -14l14 -17l-8 -28l-12 -80l6 -121l14 -19l-32 -28l24 -43l13 -19l-19 -45l6 -73l13 -13l-23 -82l-10 -69l18 -103l-8 -75v-39l10 -25l49 -20l21 10 l18 -8l170 8l45 -2l49 -39l7 -84l-11 -23l4 -82l-6 -16l-59 -31l-154 11l-30 -13l-31 9l-154 -9l-102 9l-70 2l-22 -15l-21 13l-129 -9l-24 9l-23 -9l-76 6l-16 9h-23l-32 18l-29 33z" />
<glyph unicode="m" horiz-adv-x="1626" d="M8 889l6 63l45 58l35 22l142 -4l106 -14l12 -10l41 -56l45 21l25 51l72 35l77 -21l23 15l65 -11l46 -10l38 -37l17 -6h10l25 -22l43 6l73 59l80 23l115 4l53 -4l53 -31l41 -6l31 -23l23 -22v-15l30 -22l19 -4l41 -41l10 -25l-6 -49v-35l31 -71l-9 -27v-21l-8 -10l8 -12 l-8 -19l6 -20l-14 -219l-10 -25l14 -41l-4 -67l33 -23l57 -6l16 -22l25 -62l-4 -43l20 -16l-6 -58l-26 -32l-115 6l-23 -13l-118 7l-88 6l-23 10h-18l-11 84l7 94l-15 10l25 35l28 19h13l4 4l31 30l-13 41v21l13 8v25l-13 12l6 125l5 47l-15 47v55l-6 45l-12 66l-25 18 l-65 2l-103 -10l-49 -35l-16 -36l-15 -17l-16 -72l8 -94l-8 -45l-6 -100l6 -21l-6 -79l6 -25l63 2l56 -43l20 -39l13 -74l-13 -65v-35l-22 -8l-92 -2l-119 -21l-6 6h-17l-12 -10l-66 10h-36l-11 9h-37v6l-24 10h-10v16l-19 19l10 112l-12 15l8 12l-6 33l47 22v7l49 10l29 37 l-4 125l2 51l-14 12l4 125l6 53l-18 105l-21 32l-39 7l-20 -7l-88 7l-41 -19l-66 -43l-24 -47v-47l8 -4l-23 -17l13 -84l-7 -53l-8 -71l10 -35l-2 -35l7 -29l-7 -33l21 -30l96 -23l-4 -20l16 -47l-6 -15l4 -73l-4 -68l-37 -10l-157 -13l-6 9l-134 -17l-82 6l-38 25l-19 35 l4 78l6 82l25 41l41 10l16 -4l37 34l2 43l-10 21l8 29l6 90l-6 20l6 135l-12 136l-29 24l-59 -6l-53 18l-13 23l13 22z" />
<glyph unicode="n" d="M2 944l16 47l41 29l56 12l59 -6l133 -6l72 -10h12l12 -49v-11l13 -14l65 31l4 6l66 43l33 4l73 37l70 10l31 6l94 -31l63 -16l37 -12l35 -19l78 -94l35 -74l12 -49l14 -12l-4 -70l13 -12l-9 -106l9 -177l-11 -47l6 -59l27 -25l35 -8l53 -22l19 6l4 -4l-2 -15l26 -32 l-4 -41l-6 -54l6 -75l-28 -33l-39 -17l-11 -10l-88 4l-47 15l-88 -15l-65 15l-156 -7l-16 7l-7 18l-20 2l-14 6l-9 15l13 16l12 55l-25 62v55l5 4v12l43 31l26 10l82 6l25 29l-7 166l-10 31v18l10 10l-10 70l10 41l-10 43l-8 51l-39 37l-90 8l-45 -32l-59 -17l-31 2l-70 -55 l-37 -16v-15l-41 -47v-10l-12 -12l19 -72l-7 -35l-12 -16l21 -19l-9 -98l-12 -14l19 -41l59 -29l100 -8l31 -10l16 -19l-6 -43l11 -55l-17 -51l-4 -68l-59 -16l-88 -9l-74 5l-27 8l-63 -8l-39 8l-47 -4l-41 -15h-41h-76l-41 15l-20 51l4 41l14 14l-10 98l28 54l66 12h51 l49 47v16l-16 25l-12 174l4 21l-4 77l12 82l4 17l-18 22l-140 8l-24 17l-19 76l6 92z" />
<glyph unicode="o" horiz-adv-x="1224" d="M47 479l4 23l6 41l11 106l14 13v34l33 47l8 35l16 19l6 22l19 12l31 41l104 97l41 22l106 29l15 12l45 12l141 -8l76 -16l88 -10l107 -37l12 -23l53 -37l12 -10v-24l66 -48h6l10 -43l19 -4l22 -24l6 -70l19 -12l18 -53v-45l17 -25l-15 -100l-16 -101l-17 -18l-12 -82 l-35 -53v-13l-36 -41v-16l-29 -31l-60 -53h-8l-67 -51l-33 -6l-80 -33l-98 -16l-90 10l-17 -8l-170 10l-24 -4l-54 47l-36 2l-45 49l-21 6l-76 82l-41 101l-10 14l-6 57v17l-16 24l-15 60l6 22v25zM322 487l14 -98l10 -53l25 -23v-14l47 -45l45 -18l55 -19l45 -6l119 18 l31 25l63 29l35 30l59 76l7 29l16 20v17l8 6h6v10l-6 8l-8 64l-16 28v25l-11 16l-6 9l-8 41l-59 45l-74 41l-184 8l-29 -13l-6 -6h-23l-41 -22v-15l-65 -57v-14l-25 -23v-18l-10 -8l-8 -93h-6z" />
<glyph unicode="p" horiz-adv-x="1284" d="M8 936l10 37l25 26l18 17l54 14l153 -14l17 -10l67 -5l27 13l24 -15l11 -75l12 -25l55 19l35 34l51 21l37 26l29 7h18l6 8l17 10l84 -6l82 6l73 -25l25 -18h31l43 -33l26 -14v-4l19 -19h18v-20l23 -25l61 -92l4 -16l35 -107l10 -116l9 -107l-19 -29l-6 -88l-33 -39 l-14 -51l-88 -129l-29 -16l-16 -19l-99 -41l-90 -22l-22 8l-121 -8l-135 35l-19 -6l-4 -7v17l-20 18l-17 -4l-18 -31l-4 -100l4 -6l6 -35l43 -37l76 -10l53 4l23 -10h18l4 -17l51 -30l-14 -43l14 -47h-8l-6 -70l-41 -39l-35 -8h-30l-89 12l-92 -6l-90 6l-131 -10l-14 10 l-29 -8l-131 8l-18 62l20 53l-16 69l30 52l35 16l90 6l47 25l11 18l-8 19l8 34l-19 35l8 19l-8 59l-4 57l12 11l-8 59v47l13 68l-5 98l-8 41l-10 16l18 37l-12 31l4 53l-6 53l6 23v29l-10 59l-12 10l-94 -10h-37l-41 25l-13 10l13 18l-13 11l9 16l-11 18l-4 43zM492 512 l10 -154l24 -22l-4 -8v-6l76 -68l59 -14l86 -11l62 11l57 36l12 13l48 51v18l41 82l10 58l-10 37l-7 77l-24 58l-45 59l-60 41l-59 6l-41 -12l-6 -6h-41l-35 -23l-18 -6l-88 -78l-37 -51v-16l-4 -33z" />
<glyph unicode="q" horiz-adv-x="1234" d="M45 391l12 21l-12 26l10 11l15 131l6 28l-6 31l22 59l4 29l17 23v22l20 51l53 49l101 91l78 34l22 15l35 4l12 12l60 6l157 -6l15 -12l45 -4l71 -60l29 -55l25 -10l16 10l6 49v17l74 49l45 10l43 -10l29 -33l24 -64l-12 -28l-10 -21l10 -26l-12 -17l6 -30v-37l-13 -35 l-12 -23l19 -59l-13 -68l6 -16l-6 -147l-6 -7v-18l6 -4l-16 -111l16 -67v-47l6 -4l-12 -25l12 -23l-6 -57l-6 -8v-19l12 -10l-6 -84l-6 -53v-18l47 -41l101 -11l34 -12l19 -29l-19 -100l19 -41l-19 -31l-34 -24l-105 -10l-31 10l-151 -6l-17 16l-16 -10l-133 10l-16 -10 l-113 6l-37 35l10 45l-10 39h4l8 12v16l-18 27l6 25l70 49l65 12l54 6l22 10l12 21l25 57v25h4l14 14l-14 14l-35 23l-76 -16l-104 -17l-186 4l-74 29l-39 8l-61 39l-31 37v22l-53 31l-19 39l-18 17v26l-19 17l-8 79l-18 52zM311 457l11 -13l6 -53l12 -12v-31l18 -29l64 -69 l49 -17l180 -8l25 25l49 26l35 50l6 41l29 49l-7 4l7 61l-7 41l-28 49v33l-17 45l-36 78l-23 6l-18 12l-37 11l-58 16l-8 -4h-76l-12 -12l-35 -6l-30 -29l-29 -19l-6 -4l-23 -30v-19l-24 -45l12 -24l-4 -9z" />
<glyph unicode="r" horiz-adv-x="1107" d="M10 907l19 84l57 39h43l27 -12l219 -4l59 -13l19 -30v-51l16 -19l33 6l33 29l34 16l25 33h10l47 41h41l23 16l78 13l112 -19h25l86 -43l14 -16v-10l10 -15l35 -32v-29l8 -8l-14 -11v-30l25 -35l-11 -90l-34 -47l-60 -45l-18 4l-37 -11l-41 11l-23 -4l-36 41l-35 75 l-29 17l-37 -13l-35 13l-82 -51l-4 -19l-14 6l-76 -69l-37 -37l7 -68l-7 -57l-8 -146l17 -41l28 -24l160 -6l41 -19h10l6 -28l25 -35l-10 -23l10 -24l-10 -78l-15 -16l-32 -17l-50 -8l-12 -8l-102 -6l-90 14l-19 -8l-65 4l-41 -4l-54 -8l-204 8l-9 8h-16v12l-16 13l4 94 l-13 12l13 82l41 35l30 12l29 -6h41l59 14h11l24 33l-12 78l6 31l-6 90l8 22v58l4 16l-6 12l2 60l12 22l-8 23l-43 43l-96 -13l-68 7l-32 40l4 91z" />
<glyph unicode="s" horiz-adv-x="1093" d="M59 59l9 15v30l6 11l-6 41l10 18l-6 148l-4 22v21l10 10l-10 12l32 35l27 -6l39 8l18 -12l25 10l31 -33l36 -20l21 -47l41 -11l57 -43l21 -6l76 -41l45 -6l94 -10l59 6h19l77 41l21 41l-2 29l-19 28l-49 19l-41 22l-71 19l-64 6l-10 12l-125 6l-41 12l-37 13l-72 10 l-20 23l-31 8l-30 16l-29 35h-16v6l-37 12l-29 66v31l-12 26h-4v13h4l6 4l-17 24l9 60l-2 65h10l55 64l8 24l60 29l24 22l76 33l41 4l59 13l152 -9l98 -34l29 -17l65 -24l23 -23h12l6 -4l19 27l2 43l31 10l28 -4l37 4l51 -41l19 -23l6 -22v-19l-16 -18v-4l10 -15l-6 -40 l-4 -82l10 -11l-6 -36v-19l12 -10v-17l-25 -24v-8l-41 6l-41 -6l-67 18l-19 14h-14v9l-16 16l-11 21l-24 4l-53 36l-37 13l-17 18l-94 10l-51 2l-35 7l-26 -9l-11 -12l-41 -6l-32 -27v-18l32 -23l39 -16l84 -8l47 -17l160 -8l16 -6h13l57 -47l33 -4l104 -53l17 -19h12v-6 l29 -12l47 -64l12 -65l12 -25l-12 -98l-10 -43l10 -4v-49l-72 -86l-63 -43l-6 -17l-58 -18l-47 -29l-78 -6l-57 -6h-20l-11 12h-53v6l-65 11l-17 6l-24 18h-17l-78 47h-12v12l-57 41l-25 -30v-19h-8l6 -24l-6 -21l8 -6l-65 -24l-82 6l-51 34z" />
<glyph unicode="t" horiz-adv-x="991" d="M10 819l17 45l-9 23l9 26l-17 62l8 29l35 36l60 11l28 -9l17 -14l35 -6l16 12l27 6l20 17l-8 129l-4 24l-13 23l5 31l-5 6l5 22l-5 29l37 39l23 8l69 8l48 -8l24 -16h35l31 -11l16 -20l16 -64l-8 -32l-20 -27l6 -27l-6 -32l-19 -33l9 -25l-9 -24l11 -21l20 -8l115 -8 l16 8l123 -6l41 -29l22 -55v-23l-10 -10l-6 -47l6 -29l-6 -14v-18l-37 -25l-41 -8l-71 8l-70 -4l-57 4l-37 -16l-23 -41l-12 -47l12 -35l-6 -37l6 -53l19 -17v-16h-9l-6 -8v-4l15 -13l-15 -16l11 -80l-5 -98l29 -21l21 -26l41 -11l57 7l18 10l50 106l2 146l20 33l27 28l30 4 h37l51 -14l48 -2l30 -53l-4 -39l4 -43l-12 -66l-18 -28l12 -41v-37l-12 -19l-11 -10v-37l-43 -65l-16 -43l-66 -41l-30 -33l-27 -8h-31l-30 -21l-76 -12h-27l-80 16h-41l-82 49l-45 50l-6 26l-18 25v12l-19 12l-12 11v12l8 6l-32 51l-3 51l3 39l4 19l-7 16l3 17l-3 26l3 101 l10 20l-10 6v23l20 41l-12 14l12 23l-8 30l-4 4v31l28 47v17l-28 4l-13 18l-81 -8l-17 4l-24 -4l-39 20l-39 7h-13z" />
<glyph unicode="u" horiz-adv-x="1351" d="M6 932l4 55l45 35l25 12l29 -10l20 10l10 -12l97 14l71 -20l43 10l94 -10l37 -23l19 -37l-6 -104l-7 -23l-24 -81l6 -72v-23h-6v-45l6 -33l6 -94l-12 -12l8 -49l-8 -41v-45l12 -29l6 -49l41 -23l119 7l57 41h21l22 24l52 29l18 22l53 84l-6 45l-4 74v33l16 37l-12 16 l-4 82l-6 12l-37 25l-78 -16l-28 8l-80 8l-43 47l-2 27l14 26l8 37l-6 41l-4 29l-8 10l10 14l47 27l53 -10l51 6l15 6l110 -10l60 20l92 -6l18 -12l70 -10l39 -54l-4 -47l4 -59l-14 -12l-5 -41l7 -25l-7 -29l7 -34l-7 -82l-20 -19l14 -69l-14 -33l-6 -74l6 -84l-10 -16 l10 -31l-10 -33l30 -24l136 -7l34 -12l23 -28l-4 -37l4 -29l-10 -12v-17l16 -28l-12 -37l2 -29l-31 -27l-28 -8l-72 4l-31 15l-129 4l-104 -4l-6 8l-17 8l-8 16l4 19l-4 22l-12 13l-27 -4l-55 -43h-19l-12 -15l-18 -6l-43 -20l-15 4l-47 -27l-67 -12l-84 4l-66 14l-29 25 l-2 -10l-20 4l-53 32l-19 31l-12 -6l-10 12l-25 35l-2 31l-27 24l-18 39l-12 95l-6 6v57l12 107l6 131l-8 12l8 35l-12 24l16 52l-10 34l-41 25l-41 -29l-35 8l-37 11l-20 -9l-17 29l9 23l-13 18l4 90v17z" />
<glyph unicode="v" d="M0 874l10 89v34l21 25l37 18l184 -6l41 -12l65 12l160 -6l76 -22l10 -13l-4 -32l4 -31l-2 -53l2 -56l-10 -16l-19 -29l-65 -12l-23 -29l-6 -6v-10l6 -8l13 -25l-8 -16l2 -47l24 -7l10 -34l-4 -4v-15l4 -4h15l20 -65l15 -66l6 -8l10 -25l31 -82v-18l6 -53l18 -45l45 22 l29 49l16 19v30l25 54v49l45 102l18 72l41 86l31 47l-8 41l-8 12h-33l-45 -8l-47 16l-25 11l4 39l-16 45l6 41l-6 57l-6 8l8 17l16 -7l19 7l106 16l264 12l17 -12l108 6l27 -6l14 -18l-8 -29l8 -19l6 -69h-6l-14 -13v-28l-20 -17h-23l-16 -14h-15l-10 -10h-31l-16 -12 l-8 -29l-8 -12l-9 -54l-16 -34v-31l-18 -17l-7 -22l-12 -31l-16 -18v-33l-19 -12l-22 -64v-33l6 -4l-21 -18l-4 -41l-34 -57l4 -7l-13 -12l-4 -41v-8l-12 -10v-31l-41 -70l-37 -47h-8l-27 -59v-10l-55 -25l-35 -12l-215 6l-33 12l-24 19l-8 10v33l-33 39v28l-4 6h-13v13h9 l8 24v11l-21 16v37l-30 35v18l-11 10l4 25v18l-4 6l-18 35h-6l-12 47l-13 13v57l-16 18l-19 58v8l-10 10v19l-14 84l-29 43l-6 30l-6 25l-41 35l-55 8l-41 -2l-31 16h-31l-6 8z" />
<glyph unicode="w" horiz-adv-x="1470" d="M6 850l4 43l-4 59v19h4l15 41l41 28l51 4l8 9l47 -19l94 -12l19 4l12 -8l86 10l16 -10h31l25 -39l55 -25l-2 -24l14 -35l-14 -37l-27 -22l-65 -11h-8l-25 -26l12 -27l-2 -14l17 -25l10 -20l6 -21l2 -16l10 -29l15 -41l14 -55l27 -86l12 -43l8 -53l12 -13l21 9l12 55 l25 69l14 50l-6 28l35 107l16 65l16 29l-6 25l-4 32l-49 11l-25 16l9 43l-13 41l-4 37l8 31l48 30l75 -6l66 -6l20 8l19 -8l78 -4l24 -6l6 -19l41 -22l13 -49l-13 -48l-2 -28l-88 -17l-16 -22l-8 -31v-18l12 -10l2 -35l8 -33l14 -35l5 -45l12 -76l2 -18l25 -49l14 -68v-16 l4 -6l35 -29l22 45l17 90l24 74l21 16l12 88l10 13l17 30l-7 8l25 41l4 33l8 33v4l-10 14l-20 -6l-23 17l-14 84l10 53l53 29l41 8h15l10 10l135 12l59 -6l47 -10l35 -39l13 -16l-5 -35l-20 -29l12 -70l-12 -30l-47 -25l-51 -6l-37 -18l-19 -17l-10 -57l-24 -35v-18l-17 -23 v-33l-6 -80l-31 -41l-6 -71l-10 -13l-6 -40l-10 -25l2 -29h-2l-25 -32v-25l-14 -16l-23 -78l4 -4v-21l-8 -41l-20 -41l-31 -28h-19l-10 -15l-53 -6l-96 6l-47 43l-19 56l-10 24l-10 53l-13 11l-2 77l-6 5l-6 61l-10 61l-17 41l-22 -20l-14 -45l-17 -58l-8 -53l4 -8l-18 -10 h-2l-25 -60l-29 -61l-32 -53l6 -6l-45 -58l-93 -8l-53 6l-37 21l-22 51l-17 96l-12 12l-6 58l-18 16v49l-9 13l-8 28l-10 13l10 24l-16 64v30l-12 11v30l-13 13l-18 51l-17 55l-6 86l-18 14v17l-31 41l-74 8l-30 16l-19 33z" />
<glyph unicode="x" d="M2 20l16 66l-10 74l35 73l23 17l47 6h37h22l66 10l18 8l29 45l71 60l45 53l23 23h14l58 61l12 47l-6 4l-41 41l-37 15l-57 63l-11 29l-65 33l-58 -17l-55 14l-39 -6l-26 6v27l-17 25l-14 8l-16 16l20 76l-6 72l2 16l49 41l41 12l145 -4l84 -8l101 -10l96 6l29 -6v-31 l18 -16l17 -25l-9 -94l-12 -19l4 -22l-49 -12h-41l-6 8h-6l-4 -8l123 -131l16 8l31 49l18 2l59 47l11 14v5l-6 6l-35 -11l-17 11l-37 8l17 55l-17 43l7 58l22 36l49 37l170 -18l209 10l58 -25h16l18 -45l-18 -47l-6 -82l-10 -22l-25 -25l-57 -16l-80 -8l-62 -17l-24 -24 l-37 -17l-60 -63l-4 -21l-26 -10l-15 -24l-18 -17l22 -12l19 -29l41 -30l39 -66l67 -53l54 -54l51 -28l33 -29l116 -6l11 -18h24l-4 -23l16 -14v-33l-10 -53l10 -17l-10 -22l10 -25l-36 -31l-70 -18l-57 -6l-33 -10l-101 8l-51 -8l-28 2l-23 -4l-37 2h-10h-21l-10 4l-12 -4 l-88 4l-19 12l5 31l-11 35l15 63l-9 37l23 18l31 9l47 -2h18l17 22l-7 27l-36 18l-19 37l-45 29l-16 30l-29 2l-2 15l-31 -17l-127 -94l-34 -18l-13 -29h-6l-18 -20l116 -11l60 -10l20 -18l4 -33l-8 -47l6 -17v-16l-32 -31l-25 -10h-70l-24 -16h-111l-33 -15l-41 15l-75 -6 l-52 -13h-118l-41 19z" />
<glyph unicode="y" horiz-adv-x="1265" d="M-31 -127l13 72v10h6l18 25h4l21 34l49 25l37 22l37 7l51 -7l63 -34l37 -35l-6 -84l-14 -23l-33 -39l12 -14l82 16l25 25h4l6 -6l55 65l4 23h4l15 31l-6 123l-35 36l-6 64l-13 12l-6 35l-47 100l-12 72l-25 64l-33 90l-30 41l-19 63l-12 47l-41 23l-59 4l-76 -4l-25 30 l6 29l-6 27l-4 2l19 24l-15 23l15 31l-19 24l4 6v11l66 53l31 18l104 -6l76 4l90 -4l43 -10l53 10l68 -18l24 -11l25 -36l-8 -72l-17 -23l9 -41l4 -6l12 -16v-25l-25 -16l-34 -25l-35 -12l-21 6l-26 -6v-29l16 -12l8 -35l27 -61l18 -58l19 -57l4 -6v-41l59 -84l6 -16l31 -19 v19l29 32l22 70l31 51l12 41l76 117l6 41l17 29l-15 18l-8 23l-53 6h-19l-10 -8h-31l-22 38l-2 84l14 41l-12 52l53 41l35 6l24 -2l52 14l118 -12l150 6l33 -6l47 6l35 -17l6 -30v-13l8 -4l8 -18l-6 -74l2 -67l-12 -19h-17l-14 -18l-33 12l-30 -4l-19 -8h-16l-13 12l-22 -12 l-18 -17l-7 -37l7 -45l-13 -28l-18 -25v-16h-4l-19 -39l-10 -33h-8l-10 -14v-27l-13 -14v-17l-22 -34l-6 -25l-19 -16l-6 -31l-35 -59l6 -5l-30 -28l-6 -53l-35 -56v-4l-17 -18l6 -13v-18l-40 -45l-19 -53l-18 -17v-24l-13 -13l-4 -34l-53 -91h-6l-25 -43l8 -8l-36 -53 l-23 -22h-14l-10 -19l-13 -14h-28l-17 -23l-55 -28l-76 -7l-12 -10l-78 -4l-63 4l-25 10h-29l-6 7h-16l-45 45v-11l-58 50l-4 22l-18 18l-4 35l-19 51l8 39l-8 2v25z" />
<glyph unicode="z" horiz-adv-x="1093" d="M23 152v12h6l10 22v21l53 43l-4 4l27 18l14 23l45 33l96 90l33 26l45 33l10 17l23 8l10 18l19 10l59 74l41 37l43 31l10 14l35 43l20 25l9 10l8 14l-8 17l14 12l-37 16l-41 -12l-18 8l-58 -6l-18 -4l-18 8l-76 -6l-25 -29v-28l-16 -25l6 -53l-6 -12l6 -29l-12 -17v-14 l-31 -22l-70 -13l-82 13l-20 16l-29 6l-8 66l8 53l-8 53l16 58l-16 32l6 25l-6 51v33l8 14v19l25 16l24 6l84 -6l58 -8l10 8l51 -8l33 8l70 -10l184 16l29 -14l106 6l10 -12l56 6l20 6l68 -8l98 2l8 -2l2 -19l-16 -12l14 -22l-8 -13l12 -55l-10 -59l-10 -15l8 -43l-16 -6 h-13l-6 -6l-35 -16l-88 -78l-6 -17l-57 -49l-43 -45l-31 -12l-51 -62l-14 -2l-9 -16l-59 -49l-59 -49l-35 -17l-41 -41h-19l-24 -24v-17l-29 -55v-16l19 -17l34 4l11 13l41 -6l65 -11l148 17l12 -13h24l33 23l-6 14l25 33l-13 55l8 70l13 18h8l8 4l68 -4l112 4l25 -10h8l4 6 l23 -37l-2 -45l-15 -14l7 -29l-7 -34l7 -7l8 -40l-15 -19l7 -82l-13 -10l-10 -33l10 -20l-59 -54l-14 9l-58 -7l-41 11l-110 -8l-117 -11l-154 15l-78 -2l-59 4l-123 -17l-117 6l-53 17l-12 18l-10 31l6 53l-6 53z" />
<glyph unicode="{" horiz-adv-x="995" d="M47 473l2 12l4 9l8 14l-4 18l-2 43l17 17l28 16l76 6l27 19l16 26l10 117l-14 21l16 18l-6 35l13 74l-7 92l5 53l10 76l-4 18l22 14v23l6 25l60 79l32 25l15 27l6 12l16 -4l52 12l16 14l70 19l77 12l60 8l94 -20h18l58 -27l24 -22v-6l-8 -7l10 -10v-18l-18 -25v-57l-4 -8 l20 -17l-14 -35l-10 -24l-56 6l-51 14l-10 13h-22l-15 -13l-12 13h-70l-35 -29h-12l-10 -16l-12 -15l-7 -41l-12 -28l-12 -19v-67l-8 -27l2 -27l-2 -65l-13 -17l13 -22l-8 -82l6 -39l-15 -20l15 -21l-6 -45l-25 -25l-6 -28l-10 -31l-45 -12l-23 -10l8 -15l-24 -6l12 -18 l4 -25l29 -16l32 -11l29 -32l19 -58l-11 -24l15 -23l-2 -90l-11 -26l15 -29v-47v-80l10 -72l12 -18l12 -31l7 -41l12 -12l10 -17h12l35 -30l33 -9l37 9l12 12l15 -12h22l10 12h25l26 16l56 4l10 -22l2 -29l-2 -28l12 -25l-6 -39l10 -20v-21l-10 -8l8 -8v-4l-24 -23l-58 -29 h-18l-45 -20l-27 -10l-22 12l-60 8l-77 12l-70 17l-68 29l-22 6l-47 53l-23 31l-14 10l-25 8l2 29l-24 80l-10 75l-5 56l-2 2v55l9 10l-9 19l4 20l3 27l-13 24l-4 50l21 34l-4 50l2 26l-15 35l-26 6l-54 -8l-8 10l-22 -6l-21 14l-20 27l-11 27l-8 8l4 22l-4 17l6 30l-4 19z " />
<glyph unicode="|" horiz-adv-x="790" d="M254 1303v32l20 6l-12 23l25 39l12 18l59 23l39 -4l17 8l63 -4h45l37 -17l25 -22v-4l-9 -8l11 -11v-18l-19 -23v-59l-4 -6l21 -16l-35 -105l-14 -18l-9 -82l2 -27l-6 -10l6 -10l-4 -82l17 -54l2 -4v-18l-8 -14v-45l6 -5h2v-16h-2l-6 -82l8 -10l-6 -74l6 -33l-4 -49l6 -12 l2 -8l-4 -8l-11 -11l11 -8l-8 -16l-7 -37l7 -45l8 -19l-4 -65l-7 -10l7 -11l8 -14l-6 -14l2 -8l-6 -17l-5 -33l5 -59l10 -18l-8 -19l-2 -55l4 -66l-4 -45l4 -49l16 -49l16 -10l-22 -31l12 -12l12 -64l-8 -129l-41 -20h-32l-15 8l-22 -10l-84 -13l-43 13l-35 28l-19 35l5 19 v16l-5 53v17l9 12l-9 14v74l13 27l-4 12l-6 8l10 10l-4 11l-4 36l4 58l-17 18l11 57l-5 82l11 13v22l-6 6l4 39l-2 51l-2 72l6 10l-9 9l5 22l-5 17l7 32l10 23l-10 10l-11 8l4 6l9 17l-4 18l-7 80l17 16l-12 9l6 82l-11 8l-6 121l11 65l-11 19l17 24l-11 29l11 22l-6 23 l-5 6l11 12l-9 82v27v49l-8 74z" />
<glyph unicode="}" horiz-adv-x="995" d="M80 1249l6 39l6 21v18l12 10l-8 6v7l25 22l57 29h19l45 20l26 11l23 -13l59 -8l78 -12l70 -17l65 -28l25 -8l47 -41l22 -43l15 -9l24 -10l-2 -26l39 -89l12 -75l3 -56l2 -2v-55l-9 -10l27 -15l-20 -24l-5 -27l13 -24l4 -49l-21 -35l4 -49l-2 -27l15 -35l26 -6l54 8l8 -10 l22 6l21 -14l22 -27l9 -27l8 -8l-4 -22l4 -17l-6 -30l4 -19l8 -10v-12l-6 -8l-8 -15l4 -18l2 -43l-17 -17l-28 -16l-76 -6l-27 -19l-16 -26l-10 -117l16 -20l-18 -19l6 -35l-13 -73l7 -93l-3 -53l-26 -69l4 -17v-26l-23 -11l-6 -26l-59 -78l-33 -27l-14 -24l-6 -13l-19 4 l-49 -12l-16 -16l-70 -17l-78 -28l-59 8l-94 18h-19l-57 29l-25 23v4l8 8l-12 10v19l-6 26l33 25l-31 22l8 33l15 35l10 24l55 -6l51 -14l9 -14h24l14 14l13 -14l57 -7l47 37h12l11 17l12 12l6 41l12 31l13 18v68l8 24l-4 29l4 65l-6 17l6 22l27 74l-17 47l12 21l-12 20 l-2 45l25 25l4 26l12 33l45 10l33 13l-8 14l24 6l-10 19l-6 24l-39 17l-33 8l-28 35l-19 57l10 25l-14 22l16 74l11 28l-29 43v45v80l-10 74l-13 19l-12 28l-6 41l-12 14l-11 17h-12l-35 31l-32 6l-37 -6l-13 -15l-14 15h-24l-9 -15h-24l-27 -14l-55 -6l-10 24l-2 29l-17 27 z" />
<glyph unicode="~" d="M168 1229l14 22l60 111l28 4l2 23l29 22l31 14l35 21l41 22l120 7l37 2l45 -7l13 -18l16 8l53 -37l17 -18l98 -23l10 -8l25 6l39 2h16l14 41l23 27l4 14l14 9l37 -9l31 -32l37 -15l26 -31l7 -24l-21 -35l4 -14l-6 -13l-18 -8l-23 -53l-12 -8l-43 -41l-23 -21l-20 2 l-19 -14l-47 -24l-22 4l-29 -15l-14 -8l-13 10l-30 -8l-76 23h-14l-7 18l-43 21h-18l-74 61l-51 4l-41 -6l-72 -23l-16 -18l-2 -20l-27 -56l-39 10l-55 29l-14 25l2 20l-29 8z" />
<glyph unicode="&#xa1;" horiz-adv-x="870" d="M238 96l12 47l-12 11v18l12 10l10 176l14 64l5 108l22 70l10 107l-2 104l-8 31l6 28l12 19l7 59l34 35l41 23l66 -5l45 -12h20l35 -47l-12 -139l25 -51l-13 -93v-16l-12 -25l23 -34v-19l-11 -12l6 -66l11 -22l-6 -29l12 -37l-12 -34l6 -35l18 -13l8 -26l-8 -27l19 -10 v-14l-19 -9l19 -28v-31l-17 -55l2 -45l-8 -60l-78 -69l-112 -15l-70 15l-47 34l-6 29v12l-35 35zM256 1184l4 76l31 81l63 52l66 18l65 -4l58 -18l55 -23l8 -43l15 -10l18 -25l-12 -65l12 -52l-14 -24l-27 -29l-8 -28l-41 -25l-123 -6l-6 -4l-47 10h-35l-59 41l-13 12z" />
<glyph unicode="&#xa2;" horiz-adv-x="1148" d="M80 434h2v29l14 61l-14 49v29l-2 10v15l10 14l6 39l23 68l10 16v10l45 100l51 54h13l10 16l55 51l64 27l116 33h29l31 10l67 -2l2 12l17 41h4l6 8l-14 23l10 18l12 39l12 29l-6 4l17 20l-6 5l-11 -2l21 32l-4 35h4l8 8l-2 13h4l16 24l23 19l59 12l92 -43l25 -12l21 2 l4 -60l-35 -69l-17 -25l2 -37l-20 -31l-23 -75h-4l9 -21l49 -18l12 -10h14l33 -25l25 -27h12l16 -49l39 -31l11 -26l22 -58l-6 -38l-4 -5l4 -6l22 -49l-16 -28v-23l-16 -61l-56 -39l-34 -29h-27l-31 6l-65 37l-23 39l-16 12l6 39l14 37l-4 6l14 21l-14 32l-33 9l-28 -33 l-13 -64l-12 -49l-6 -18l-14 -33l2 -16l-15 -17l4 -33l-26 -53l8 -33l-14 -18v-19l-6 -2l-7 -24l-26 -76l63 -14l41 26l68 19l26 41l7 16l20 17l80 10l16 -13l35 5l49 -15l17 -12l22 -23l-12 -16l6 -37l-12 -16l-6 -41l-23 -49l-96 -99l-58 -32l-51 -13l-26 -16h-23l-88 -31 l-135 6l-21 -2l-18 -112l-31 -68l-12 -45v-4l2 -6l-18 -37l-15 -49l-65 -47l-107 16l-47 31l-6 -8h-6l-4 8l8 22l-10 13h2l8 36l53 136v16l19 12l-11 6h-6v11l19 -2l24 77l-2 17l25 37l-51 35l-9 6h-14l-39 43h-14l-43 57l-19 23l-10 38l-22 89l-15 22zM326 524l16 -133 l25 -49l55 -23l10 35l2 33l23 37l-2 16l-4 11l12 14l-2 20l12 25l6 22l25 70h6l-2 14l-6 9l-6 2l-2 18l6 6h14l4 35l10 45l19 43l-66 -6l-71 -55l-33 -66l-10 -12v-21l-29 -51z" />
<glyph unicode="&#xa3;" d="M37 197l2 43l27 59l26 49l21 8l77 41l101 17l92 -13h18l19 25l-12 18v29l-5 14v31v10l9 23v18l-25 21l-70 10l-51 -10l-73 10l-17 41v6l6 4l-6 8l25 70l-41 41l10 37l43 10h37l8 12l80 -10l55 10l10 11v34l-4 9l-12 22l16 25l-4 22v19l13 22l-9 54v4l-4 6l19 30l-6 5 l28 77l6 41l58 95l59 22l-41 6l82 49l21 11h22l41 32l125 17l53 4l156 -12l65 -41l29 -7l53 -45l19 -67l10 -14v-17l23 -69l18 -17l-4 -47v-18l-14 -15l-4 -51h-5l-8 -6v-10h-12l-41 -43l-47 -19l-29 8l-33 -8l-14 6h-18v7l-78 12l-41 31l-25 51l4 82h9l22 37l25 24v10 l-25 23l-37 -6l-37 6l-71 -41l-41 -72v-2l8 -6l-16 -14v-23l-9 -14v-39l-12 -107l12 -51l41 -31l111 -4l-8 13l63 6l88 -35l17 -37l-4 -33l-31 -53l10 -41l-57 -47l-31 10l-111 -6l-55 -10l-16 -10l-10 -15v-26l-15 -15l15 -32l-19 -29v-35l-12 -12l8 -51l-8 -45l14 -15v-22 l17 -43l18 -17l43 -6l49 -33l37 7l12 8h29l25 24h6l34 60v22h7l28 58v12l-4 6l25 31l73 4l76 22l54 -4l12 -18l10 -35v-18l-4 -29v-19h-6l-12 -75l-19 -23l-10 -47l-31 -37l-6 -26l-18 -17l-25 -33l-27 -30l-84 -35l-4 -25l-127 -22l-57 -17l-49 17l-25 18h-28l-13 10l-32 9 l-41 22l-58 29v6l-20 10l-41 -22l-6 -6l-19 -17l-22 -24l-101 -23l-63 -29l-72 29l-18 6h-35l-14 10l-39 9h-13l-24 24l-4 33l-9 70l-24 47zM276 195l11 -13l6 -24h10l21 -8h28l33 22l41 18v19h-6l-17 14l-92 8l-18 -8l-10 -28h-7z" />
<glyph unicode="&#xa4;" d="M4 1253l14 54l9 47l32 28l54 13l94 -33l37 -14l32 -43l60 47l90 6l82 -8l55 -11l41 -18v-6l23 -12l4 -23v-18l16 -23h15l16 -61l6 -39l12 -47l-12 -82l-12 -37l6 -4l-16 -31l-11 -47l37 -29l43 31l19 49l22 35l29 51v14l65 56l-12 24l25 31l94 154l53 98l18 14l11 8l88 7 l8 10l47 -10l51 -33l11 -29l-11 -24l6 -7l-24 -28v-15l-31 -20v-31h-2l-47 -59l-41 -72l-49 -51v-23l-35 -79l-6 -17l-53 -53l-31 -53l-16 -17l-7 -30l-34 -35v-31l-35 -39l-19 -37l-53 -65v-19l-12 -8v-24l-29 -25l-12 -41l-19 -35l-30 -31l-4 -28l-23 -72l4 -6l-22 -35 l-37 -35l-8 -45l-50 -55l-10 -41h-6l-12 -31l-31 -45v-22l-31 -19l-4 -6v-14l-41 -41v-10l4 -7l-10 -12v-16l35 -25l47 -12h43l74 12h8l18 19l-18 71l6 4l-14 13l-4 65v35l4 33v14h8l8 29v12h10l15 29l-4 6l12 18l-8 7l24 45l25 24l29 55l24 27l66 31l32 28l150 13l16 -13 h60v-4l71 -37l41 -34h9l22 -35l2 -31l19 -35l-2 -34h-9l-10 -11v-39l-31 -34l-34 -7l-7 -6l-30 -10l-52 6h-18l-65 35v47h6l6 8l-19 39l-18 12h-41l-35 -24l-31 -16l-32 -41l-9 -43h-4l-18 -17l6 -6v-12l-18 -19l6 -123l28 -34v-19l50 -35l57 -6h18l7 6l24 23l23 37l94 24 l53 -20l29 -25l8 -20l33 -31h14l2 -25l55 -59l-6 -4l11 -12l-11 -17l6 -24l-16 -13l10 -12v-24l-32 -23l-173 -16l-284 16h-29l-127 12l-41 -12l-168 8l-166 -8l-94 -16h-37l-45 16l-12 19l-10 12h-21v12l8 4l-12 12v19l19 18v11l-7 6l-8 41l21 24l16 6l19 11l6 8v10l34 6 l78 35l21 35l-4 6l65 82l4 33l25 32l-4 9v8h4l82 131l35 84v29l12 12l-4 4h-8l24 24h19l41 48l10 43l24 28l25 37v8l41 49l39 35l4 35l-35 -20h-59l-60 20l-36 84l-7 117l4 26h-4v13l35 35v12l15 41l-15 20l21 21v47l-6 72l-50 51l-41 8l-45 -31l-18 -45h-6l-15 -41h-4v-20 l-6 -27l-31 -96l-4 -127l-2 -51l-2 -41l-10 -82l-35 -29l-55 16l-43 7h-57l-17 69l10 101v24l15 72l37 127v18l18 25l-12 22v15l12 10l-6 31v4l-29 6l-51 12l-39 37z" />
<glyph unicode="&#xa5;" d="M-12 1331l4 35l12 37l12 10l54 29l112 -8l109 -9l47 13l104 4l101 -10l20 -13h15v-6l24 -10l16 -21l-18 -75l6 -50l-53 -28l-51 -12h-8l-7 4l-10 -19l-6 -16v-19l14 -57v-25l35 -49v-20l19 -12l10 -29l47 -74v-24l18 -23v-25l17 -22l35 6l20 37l4 35l78 145l35 72v12h6 l18 62l-6 24l-16 10l-92 7l-25 4l-16 18l12 25v12l-6 4l-6 76v26l41 41l47 25l125 -16l16 -9l35 15l63 -6h43l82 -9l78 19l96 -37l-14 -25l14 -14v-18l5 -7l-13 -10l13 -57l-23 -45l-25 -12l-34 18l-31 -14h-57l-31 -4l-19 -31v-19l-39 -51l7 -4l-17 -41h-6l-14 -12v-19 l-29 -22l-6 -29h-6l-8 -37h-9l-22 -63l217 -12v-19l10 -8l6 -51l-6 -47l-10 -25l-12 -18l-176 -11l-168 4l-21 -30l-6 -109h6l49 -12l140 12l51 -12l121 2l22 -12l4 -23l13 -47l-7 -29l-6 -22l4 -17l-26 -24l-101 -14l-264 6l-6 -2v-25l-6 -78l-6 -28v-13l12 -12h39l12 -10 l66 10l147 -18v-19l10 -8v-55l-8 -43l15 -15l-7 -22l-10 -23h-6l-6 -6v-14l-66 -10l-186 4l-68 -15l-26 6l-275 -2l-4 -10l-43 6l-88 17l-18 12h-35l-6 39l18 55l-12 39l18 45l52 37l100 12l31 -12l88 6l10 12v35l-10 10v68l10 16l-213 15l-74 -13l-14 15l-49 -4l-19 12 l-30 14l4 52l-11 10l-4 51l17 35l43 16l116 -12l21 18h209h12l-2 29l-24 94h-84l-7 -10l-43 4l-198 19l-19 12h-35l13 47l-13 47l19 47l51 35l178 8l-20 31l-29 41v24l-10 13l-45 84l-14 10l-35 72l-27 22l-86 4h-18v8l-54 19l-24 10z" />
<glyph unicode="&#xa6;" d="M440 1303v32l21 6l-10 23l24 39l12 18l58 23l39 -4l18 8l64 -4h43l39 -17l22 -22v-4l-6 -8l10 -11v-18l-18 -23v-59l-6 -6l20 -16l-33 -105l-14 -18l-8 -82l2 -27l-8 -10l8 -10l-4 -82l14 -54l2 -4v-88l-6 -14v-45l4 -6h2v-15h-2l-4 -82l-25 -14l-39 -12l-16 12l-16 -16 l-66 -4l-37 2l-16 20h-31l-4 29l-12 10l-4 121l10 135l-10 19l16 24l-12 29l12 22l-6 23l-6 6l12 12l-10 82l2 27l-2 49l-6 74zM457 6l10 57l-6 82l12 13v22l-6 6l4 39l-6 111l6 31l10 24l19 29l35 18l24 -8l27 4l26 -10l35 12l39 -14l37 -35l-6 -35l18 -94l-8 -14l2 -8 l-4 -17l-4 -33l4 -59l10 -18l-8 -19l-2 -55l2 -66l-2 -45l2 -49l18 -49l17 -10l-23 -31l11 -12l14 -64l-8 -129l-41 -20h-33l-16 8l-21 -10l-84 -13l-43 13l-37 28l-18 35l6 19v16l-6 53v17l10 12l-8 14l-2 74l14 27l-4 12l-6 8l10 10l-4 11l-4 36l4 58z" />
<glyph unicode="&#xa7;" horiz-adv-x="952" d="M129 655l25 107l53 59l69 37l17 10v19l-21 45l-22 20v80l-17 19l3 53l-11 12l11 82l10 41l18 31l12 37l103 69l92 17l135 -21l31 -12l47 -33l8 -14v-17l33 -43l25 -67l-13 -70l-24 -29l-62 -43l-57 13l-43 -6l-62 53l-8 47l13 82l-74 4l-47 -49l6 -76l18 -27l-4 -16 l10 -14l7 -35l41 -43l36 -62l101 -96l12 -2l27 -43l39 -33l20 -28l21 -39l22 -19v-16l64 -98l8 -56l10 -84l-8 -63l-29 -51l-20 -47l-39 -31l-27 -14h-16l-47 -50l-9 -6v-16l46 -39l14 -39l2 -41l14 -35l2 -43l-14 -98l4 -82l-25 -10l-14 -33l-80 -57l-41 -6l-90 -25l-41 14 l-53 9l-16 2l-88 65l-89 121l-14 35l4 88l15 28l22 29l76 51l133 -8l39 -45l2 -72l4 -41v-16l-14 -8v-21l-21 -10l-24 -33l-21 -22l12 -25l95 -8l12 14l27 -12l20 12l55 52l17 55l-8 39l-43 59l-17 15l-33 49l-16 6l-6 16l-37 45l-20 15l-25 41l-62 45l-59 77h-4l-20 41 l-17 21v22l-31 52l-30 45v26l-15 25l-10 65zM258 647l16 -18l9 -37l12 -12l4 -17h12l6 -6l52 -94l37 -47l14 -39l18 -15v-12h8l9 -4v-8l55 -21l47 -32l100 -15l19 19l6 24l-10 19l-13 49l-16 18l-18 19l-31 67l-96 115l-37 66h-19l-26 47l-35 24l-70 6l-43 -41z" />
<glyph unicode="&#xa8;" horiz-adv-x="849" d="M-20 1300l6 46l51 71l35 27l47 -8l20 22h43l13 -14h43l36 -25l19 -30l8 -9l16 -51l13 -8l-8 -72l-21 -45l-4 -37l-31 -18l-39 -29l-22 27l-31 -27l-72 6l-8 7l-26 8l-54 37l-20 32l-8 31l18 29l-18 28zM526 1268l11 78l10 49l28 24h23l25 25l14 10l29 4h32l70 -14l20 -8 l31 -27v-6l35 -37l10 -31l-14 -43l14 -43l-10 -6l-4 -37l-31 -35v-10l-26 -4l-11 -20l-14 -11l-41 -2l-74 -6l-16 19l-39 20l-55 78z" />
<glyph unicode="&#xa9;" horiz-adv-x="1296" d="M4 776l4 27l6 47l13 123l16 10v41l39 55l8 39l21 23l4 26l22 17l33 45l63 69l62 41l43 25l65 22l58 15l16 8l53 16l95 5l71 -5l90 -2l101 -30l57 -25l60 -25l12 -26l61 -41l17 -14v-27l30 -8l43 -43h9l10 -51l20 -7l29 -28l8 -58l17 -36l12 -74v-53l18 -27l-16 -119 l-6 -100l-8 -43l-25 -70l-41 -61v-15l-43 -47v-18l-33 -37l-69 -61h-11l-75 -58l-37 -8l-35 -25l-60 -12l-49 -16l-61 -2l-64 -13l-41 13l-38 -13l-62 -4l-84 9l-57 14l-53 29l-7 28l-45 2l-41 33l-10 23l-22 10l-52 41l-34 49l-39 67l-11 50l-10 16l-8 70v16l-18 27l-17 69 l6 27v27zM117 678l16 -90l21 -105l32 -37l11 -34l22 -33l57 -49l86 -45l99 -29l92 -16h129l90 18l57 29l74 43l64 49l65 61l45 43l23 49l18 52l19 49l12 53v33l10 57h10v17l-6 18l-2 68l-12 53l-6 45l-8 41l-19 37l-29 55l-45 59l-53 29l-69 53l-70 31l-62 10l-79 11l-72 2 l-141 -11l-54 -26l-18 -8h-33l-84 -41v-29l-47 -16l-35 -44l-47 -61v-14l-24 -45v-37l-21 -19l-10 -80l-6 -40l6 -60l-4 -37zM276 836v12l9 10l8 60l14 47l10 14v8l29 43l33 35h10l8 12l47 37l48 21l86 22h20l18 10l132 -10l57 -27l4 -8h14l25 -16l33 -21h8l12 -38l29 -17 l6 -22l33 -58l-2 -28l-6 -4l6 -5v-20l-15 -21v-16l-12 -45l-39 -35l-74 -10h-18l-23 4l-53 23l-18 34l-8 9l2 28v13l6 10l-2 4l14 35l-2 2l12 16l-10 12l-6 7l-29 12l-47 4h-10l-70 -18l-35 -39l-28 -45l-2 -17l-8 -8v-16l-7 -43l4 -80l25 -56l10 -20l17 -12l32 -9l15 -18 l65 -8l47 14l52 29l34 39l2 14l17 10l57 4l12 -10l15 17l59 -9l13 -10l8 -16v-8l-4 -35l-15 -21l-2 -30l-16 -35l-86 -74l-41 -27l-37 -14l-20 -10h-17l-20 -15l-86 -4l-62 9l-20 10h-29l-12 6l-35 12l-16 6l-25 23l-6 4h-10l-25 18l-14 15l-33 41l-10 16l-9 25l-26 59 l-12 19l-2 71h4v21l-4 55v20z" />
<glyph unicode="&#xaa;" horiz-adv-x="954" d="M82 883l10 49l-10 37l18 55l35 43l27 23l33 18l65 20l45 2l19 11l38 4l46 12l20 6l53 8l35 15l6 10l2 18l-10 15l-25 12l-49 6l-82 6l-14 -10l-51 -4l-6 -27l-2 -22l-11 -19l-8 -14l-67 -14l-43 4l-13 6l-10 25l-4 34l4 66l8 8l6 25l15 20l20 17l39 43l51 14l13 12 l110 10l117 -20h25l34 -14l66 -31l10 -12l29 -50l8 -22l14 -41l11 -61l-11 -56l7 -116l8 -35l-4 -68l14 -33l20 -18h5l28 27v38l-16 50l8 18l31 14l43 11l57 -13l12 -28l-6 -29l-6 -43l6 -35l-6 -26l-14 -33l-4 -33l-72 -47l-80 -12l-49 8l-39 14l-45 35l-8 10h-17l-36 -24 l-107 -45l-49 -7l-94 5l-23 6l-69 20l-39 27l-19 6l-22 27l-25 55zM90 510l10 35v37h6l17 24l45 8l129 2l25 9l22 -19l64 6l63 6l59 -6l5 2l73 11l94 -15l78 11l33 -15l31 -31l-15 -43l9 -51l-39 -28l-49 -11l-117 -4l-33 8l-96 -6l-55 -2l-29 -8l-23 10l-114 -12l-86 12 l-74 2l-10 11l-17 51zM270 936l4 -45l5 -2l43 -15l43 -4l4 -6h28l37 10l41 37l14 4l50 50v16l-17 33l-26 2l-25 -10l-33 -9l-53 -4l-16 -12l-39 -2l-19 -6l-22 -15z" />
<glyph unicode="&#xab;" horiz-adv-x="1073" d="M113 496q1 -1 3.5 13t4.5 28l2 14l27 65h14l29 39l16 11l27 20l8 35l26 22l21 25l20 45l23 14l8 25l23 22l30 37l47 47l39 -4l37 -16l23 -33l-4 -18l6 -39l-15 -64l-22 -16l-4 -20l-27 -35l-18 -35l-6 -27l-31 -26l-6 -25l-15 -16l-20 -41l-17 -8v-33l19 -37l18 -12 l27 -68l6 -25l37 -30l12 -33l45 -66l25 -36l-10 -82l2 -15l-21 -32l-37 -19l-39 -4l-61 66l-23 32l-28 15l-58 77l-26 33l-14 25l-31 22l-51 82l-17 11l-14 38zM481 514l8 49l15 41l18 10l49 82l31 23l14 24l29 33l55 76l29 16l23 33l61 66l39 -4l37 -19l22 -33l-4 -14 l11 -82l-25 -37l2 -20l-45 -45l-14 -33l-37 -33l-6 -22l-45 -82l-19 -37v-31l16 -10l23 -41l12 -14l6 -27l31 -25l6 -26l19 -35l28 -37l2 -20l23 -15l14 -63l-6 -39l4 -19l-22 -32l-35 -19l-41 -2l-47 45l-31 37l-22 23l-9 26l-22 13l-21 45l-20 26l-27 23l-6 33l-29 22 l-16 10l-29 39h-14l-27 66q0 1 -0.5 2.5t-1 6.5t-1 9t-1.5 10t-1.5 10.5t-1 8.5t-0.5 6z" />
<glyph unicode="&#xac;" d="M4 1253l14 54l9 47l32 28l54 13l94 -33l37 -14l32 -43l60 47l90 6l82 -8l55 -11l41 -18v-6l23 -12l4 -23v-18l16 -23h15l16 -61l6 -39l12 -47l-12 -82l-12 -37l6 -4l-16 -31l-11 -47l37 -29l43 31l19 49l22 35l29 51v14l65 56l-12 24l25 31l94 154l53 98l18 14l11 8l88 7 l8 10l47 -10l51 -33l11 -29l-11 -24l6 -7l-24 -28v-15l-31 -20v-31h-2l-47 -59l-41 -72l-49 -51v-23l-35 -79l-6 -17l-53 -53l-31 -53l-16 -17l-7 -30l-34 -35v-31l-35 -39l-19 -37l-53 -65v-19l-12 -8v-24l-29 -25l-12 -41l-19 -35l-30 -31l-4 -28l-23 -72l4 -6l-22 -35 l-37 -35l-8 -45l-50 -55l-10 -41h-6l-12 -31l-31 -45v-22l-31 -19l-4 -6v-14l-41 -41v-10l4 -7l-10 -12v-16l35 -25l47 -12h43l74 12h8l18 19l-18 71l6 4l-14 13l-4 65v35l4 33v14h8l8 29v12h10l15 29l-4 6l12 18l-8 7l24 45l25 24l29 55l24 27l66 31l32 28l150 13l16 -13 h60v-4l71 -37l41 -34h9l22 -35l2 -31l19 -35l-2 -34h-9l-10 -11v-39l-31 -34l-34 -7l-7 -6l-30 -10l-52 6h-18l-65 35v47h6l6 8l-19 39l-18 12h-41l-35 -24l-31 -16l-32 -41l-9 -43h-4l-18 -17l6 -6v-12l-18 -19l6 -123l28 -34v-19l50 -35l57 -6h18l7 6l24 23l23 37l94 24 l53 -20l29 -25l8 -20l33 -31h14l2 -25l55 -59l-6 -4l11 -12l-11 -17l6 -24l-16 -13l10 -12v-24l-32 -23l-173 -16l-284 16h-29l-127 12l-41 -12l-168 8l-166 -8l-94 -16h-37l-45 16l-12 19l-10 12h-21v12l8 4l-12 12v19l19 18v11l-7 6l-8 41l21 24l16 6l19 11l6 8v10l34 6 l78 35l21 35l-4 6l65 82l4 33l25 32l-4 9v8h4l82 131l35 84v29l12 12l-4 4h-8l24 24h19l41 48l10 43l24 28l25 37v8l41 49l39 35l4 35l-35 -20h-59l-60 20l-36 84l-7 117l4 26h-4v13l35 35v12l15 41l-15 20l21 21v47l-6 72l-50 51l-41 8l-45 -31l-18 -45h-6l-15 -41h-4v-20 l-6 -27l-31 -96l-4 -127l-2 -51l-2 -41l-10 -82l-35 -29l-55 16l-43 7h-57l-17 69l10 101v24l15 72l37 127v18l18 25l-12 22v15l12 10l-6 31v4l-29 6l-51 12l-39 37z" />
<glyph unicode="&#xad;" d="M143 594l17 49h8l22 35l60 8l74 10l96 -8l35 12l28 -22l88 6l76 -6l84 6l8 2l97 14l120 -14l111 8l43 -16l41 -43l-8 -39l8 -33v-16v-41l-14 -17l6 -83l-51 -41l-66 -11l-158 -8l-41 12l-131 -8l-73 -4l-39 -10l-29 14l-131 -14l-135 12l-99 6l-14 11l-22 69l-7 6l13 25 v29l-13 12l9 49l-9 31z" />
<glyph unicode="&#xae;" d="M20 764l13 84l6 100l8 43l25 70l41 61v15l43 47v18l32 37l70 61h10l76 58l37 8l35 25l59 12l49 16l62 2l63 21l41 -15l39 15l55 -12l84 -7l58 -16l51 -27l16 -22l43 -2l45 -29l11 -24l28 -13l49 -45l35 -49l39 -68l10 -49l11 -16l8 -70v-16l18 -27l10 -65l-8 -27v-27 l11 -28l-3 -27l-8 -47l-12 -125l-16 -8l4 -45l-25 -55l-22 -39l-21 -23l-8 -22l-23 -17l-32 -45l-62 -69l-61 -41l-45 -25l-66 -22l-57 -15l-17 -8l-53 -16l-94 -4l-72 4l-88 2l-102 30l-58 25l-59 25l-12 26l-55 19l-15 14v27l-31 8l-43 43h-8l-14 37l-29 28l-24 43l-9 58 l-16 36l-12 74v53zM145 791l7 -17l2 -67l12 -54l6 -47l8 -41l17 -33l30 -83v-27l37 -4l-4 -27l41 -22l37 -17l49 -20l74 -29l59 -12l82 -8l72 -2l74 -11l16 15l49 4l53 26l17 11h37l84 43v26l45 17l34 41l45 61v16l29 45v35l21 19l10 82l4 41l-4 57l2 39l2 57l-14 90 l-21 105l-33 39l-14 32l-23 37l-53 47l-88 45l-96 29l-92 17l-76 -9l-53 9l-58 4l-57 -21l-74 -22l-78 -45l-71 -48l-41 -69l-43 -92l-14 -49l-19 -54l-8 -53v-31l-12 -59h-9v-16zM354 993l19 74l24 18l99 7l122 6l33 -4l19 -29l8 -33l-8 -35l12 -12l23 10l16 31l8 35l29 20 l8 13l29 14h28l11 12l53 4l24 -10h19l55 -24l6 -13v-6l15 -16l16 -17l12 -32l4 -5l-10 -6v-20l6 -45l-8 -58l-20 -28l-39 -31l-62 -16l-71 16l-35 16l-17 39l-10 25l-22 29l-7 -19l-12 -12l-10 4l-31 -31l-10 -35l-4 -41h4l-2 -18l2 -20l-6 -72l12 -29l21 -14l34 -6l41 6 l47 -8l25 -11h10v-16l15 -43l-7 -14l7 -17l-7 -45l-8 -16l-24 -8l-31 -6l-6 -9l-43 -8l-23 4h-57l-55 6l-15 -6l-41 2h-26l-97 -4l-63 23l-16 28l12 107l27 31l59 20h8l16 17l-8 12v20v74l2 37l-2 24l-4 15l6 4l2 2l4 10v10l-28 25l-25 -4l-57 2l-21 25z" />
<glyph unicode="&#xaf;" horiz-adv-x="849" d="M35 1395l14 39h4l19 28l47 6l74 -8l63 10l27 11l24 -19l51 4l58 -6l69 6l9 2l57 13l94 -13l90 9l35 -15l33 -35l-6 -106l-41 -35l-51 -8l-127 -6l-35 8l-84 -4l-60 -4l-30 -10l-25 14l-141 6l-51 -8l-80 4l-11 8l-18 55l-6 7l12 18l-12 23z" />
<glyph unicode="&#xb0;" horiz-adv-x="987" d="M141 1016v45l4 37l11 71l10 29l20 33l7 16l12 29l31 37l63 55l102 39l33 12l88 -2l43 -16l60 -6l67 -19l43 -37l6 -8v-18l45 -29h2l17 -29l18 -57l13 -14l10 -35v-23l12 -22l-12 -55l-8 -70l-11 -8l-8 -56l-20 -32v-4l-25 -41l-18 -19l-39 -31h-4l-43 -34l-21 -6l-49 -17 l-70 -14h-51l-61 16l-74 -8l-31 29l-22 2l-31 32l-12 7l-49 53l-25 57l-8 58l-12 16zM317 1063l9 -53l6 -39l12 -17v-4l33 -35l29 -10l34 -8l31 -4l76 12l14 10l41 19l23 20l34 56l7 8l20 33v6l-4 4l-4 37l-12 37l-9 14l-6 29l-39 24l-49 29l-114 4l-19 -14h-14l-27 -15 l-45 -41l-18 -39l-7 -63h-2z" />
<glyph unicode="&#xb1;" d="M4 1253l14 54l9 47l32 28l54 13l94 -33l37 -14l32 -43l60 47l90 6l82 -8l55 -11l41 -18v-6l23 -12l4 -23v-18l16 -23h15l16 -61l6 -39l12 -47l-12 -82l-12 -37l6 -4l-16 -31l-11 -47l37 -29l43 31l19 49l22 35l29 51v14l65 56l-12 24l25 31l94 154l53 98l18 14l11 8l88 7 l8 10l47 -10l51 -33l11 -29l-11 -24l6 -7l-24 -28v-15l-31 -20v-31h-2l-47 -59l-41 -72l-49 -51v-23l-35 -79l-6 -17l-53 -53l-31 -53l-16 -17l-7 -30l-34 -35v-31l-35 -39l-19 -37l-53 -65v-19l-12 -8v-24l-29 -25l-12 -41l-19 -35l-30 -31l-4 -28l-23 -72l4 -6l-22 -35 l-37 -35l-8 -45l-50 -55l-10 -41h-6l-12 -31l-31 -45v-22l-31 -19l-4 -6v-14l-41 -41v-10l4 -7l-10 -12v-16l35 -25l47 -12h43l74 12h8l18 19l-18 71l6 4l-14 13l-4 65v35l4 33v14h8l8 29v12h10l15 29l-4 6l12 18l-8 7l24 45l25 24l29 55l24 27l66 31l32 28l150 13l16 -13 h60v-4l71 -37l41 -34h9l22 -35l2 -31l19 -35l-2 -34h-9l-10 -11v-39l-31 -34l-34 -7l-7 -6l-30 -10l-52 6h-18l-65 35v47h6l6 8l-19 39l-18 12h-41l-35 -24l-31 -16l-32 -41l-9 -43h-4l-18 -17l6 -6v-12l-18 -19l6 -123l28 -34v-19l50 -35l57 -6h18l7 6l24 23l23 37l94 24 l53 -20l29 -25l8 -20l33 -31h14l2 -25l55 -59l-6 -4l11 -12l-11 -17l6 -24l-16 -13l10 -12v-24l-32 -23l-173 -16l-284 16h-29l-127 12l-41 -12l-168 8l-166 -8l-94 -16h-37l-45 16l-12 19l-10 12h-21v12l8 4l-12 12v19l19 18v11l-7 6l-8 41l21 24l16 6l19 11l6 8v10l34 6 l78 35l21 35l-4 6l65 82l4 33l25 32l-4 9v8h4l82 131l35 84v29l12 12l-4 4h-8l24 24h19l41 48l10 43l24 28l25 37v8l41 49l39 35l4 35l-35 -20h-59l-60 20l-36 84l-7 117l4 26h-4v13l35 35v12l15 41l-15 20l21 21v47l-6 72l-50 51l-41 8l-45 -31l-18 -45h-6l-15 -41h-4v-20 l-6 -27l-31 -96l-4 -127l-2 -51l-2 -41l-10 -82l-35 -29l-55 16l-43 7h-57l-17 69l10 101v24l15 72l37 127v18l18 25l-12 22v15l12 10l-6 31v4l-29 6l-51 12l-39 37z" />
<glyph unicode="&#xb4;" horiz-adv-x="849" d="M141 1239l33 39l45 18l57 25l31 18l21 21l16 4l86 41l8 16l51 19l13 12l39 12l10 -2l49 8l27 -6l47 -45l28 -49l-6 -51l-16 -31l-14 -28l-31 -19l-57 -10l-103 -23l-31 -10h-43l-32 -14h-31l-10 2l-15 -6l-2 -4l-8 -9l-10 -4v4h-35l-43 -26l-16 -4l-35 20l-4 39l-13 12z " />
<glyph unicode="&#xb5;" d="M4 1253l14 54l9 47l32 28l54 13l94 -33l37 -14l32 -43l60 47l90 6l82 -8l55 -11l41 -18v-6l23 -12l4 -23v-18l16 -23h15l16 -61l6 -39l12 -47l-12 -82l-12 -37l6 -4l-16 -31l-11 -47l37 -29l43 31l19 49l22 35l29 51v14l65 56l-12 24l25 31l94 154l53 98l18 14l11 8l88 7 l8 10l47 -10l51 -33l11 -29l-11 -24l6 -7l-24 -28v-15l-31 -20v-31h-2l-47 -59l-41 -72l-49 -51v-23l-35 -79l-6 -17l-53 -53l-31 -53l-16 -17l-7 -30l-34 -35v-31l-35 -39l-19 -37l-53 -65v-19l-12 -8v-24l-29 -25l-12 -41l-19 -35l-30 -31l-4 -28l-23 -72l4 -6l-22 -35 l-37 -35l-8 -45l-50 -55l-10 -41h-6l-12 -31l-31 -45v-22l-31 -19l-4 -6v-14l-41 -41v-10l4 -7l-10 -12v-16l35 -25l47 -12h43l74 12h8l18 19l-18 71l6 4l-14 13l-4 65v35l4 33v14h8l8 29v12h10l15 29l-4 6l12 18l-8 7l24 45l25 24l29 55l24 27l66 31l32 28l150 13l16 -13 h60v-4l71 -37l41 -34h9l22 -35l2 -31l19 -35l-2 -34h-9l-10 -11v-39l-31 -34l-34 -7l-7 -6l-30 -10l-52 6h-18l-65 35v47h6l6 8l-19 39l-18 12h-41l-35 -24l-31 -16l-32 -41l-9 -43h-4l-18 -17l6 -6v-12l-18 -19l6 -123l28 -34v-19l50 -35l57 -6h18l7 6l24 23l23 37l94 24 l53 -20l29 -25l8 -20l33 -31h14l2 -25l55 -59l-6 -4l11 -12l-11 -17l6 -24l-16 -13l10 -12v-24l-32 -23l-173 -16l-284 16h-29l-127 12l-41 -12l-168 8l-166 -8l-94 -16h-37l-45 16l-12 19l-10 12h-21v12l8 4l-12 12v19l19 18v11l-7 6l-8 41l21 24l16 6l19 11l6 8v10l34 6 l78 35l21 35l-4 6l65 82l4 33l25 32l-4 9v8h4l82 131l35 84v29l12 12l-4 4h-8l24 24h19l41 48l10 43l24 28l25 37v8l41 49l39 35l4 35l-35 -20h-59l-60 20l-36 84l-7 117l4 26h-4v13l35 35v12l15 41l-15 20l21 21v47l-6 72l-50 51l-41 8l-45 -31l-18 -45h-6l-15 -41h-4v-20 l-6 -27l-31 -96l-4 -127l-2 -51l-2 -41l-10 -82l-35 -29l-55 16l-43 7h-57l-17 69l10 101v24l15 72l37 127v18l18 25l-12 22v15l12 10l-6 31v4l-29 6l-51 12l-39 37z" />
<glyph unicode="&#xb6;" horiz-adv-x="1380" d="M18 768v45l13 12l12 129v60l25 61l4 27l14 24v23l20 49l54 51l100 90l78 35l22 12l37 7l11 10l59 6l117 -2l80 -14l63 14l41 10l33 -18q80 6 80 8h45l110 -6l70 -12l63 12l27 -12l23 14l59 -8l53 -19l25 -22v-6l-8 -7l12 -10v-18l-19 -25v-57l-6 -8l21 -17l-21 -59 l-20 -17l-31 -14l-45 17l-82 -11l-6 -6l-14 -16l-9 -84l2 -25l-8 -10l8 -10l-4 -82l15 -53l2 -7v-16l-6 -14v-45l4 -6h2v-15h-2l-4 -82l6 -10l-6 -74l6 -32l-4 -13l8 -12l2 -8l-4 -8l-10 -11l8 -8l-6 -16l-7 -37l7 -45l6 -19l-4 -65l-4 -10l4 -11l10 -14l-8 -14l2 -8l-6 -17 l-2 -33l2 -59l12 -18l-10 -19l-2 -55l4 -66l-4 -45l4 -49l10 -158l-8 -131q-27 -16 -66 -20q-3 -1 -13.5 2.5t-12.5 3.5q-63 -8 -99 -8l-45 26l-18 35l4 17v18l-4 53v17l8 12l-6 14l10 23l-12 51l12 27l-4 10l-6 10l10 10l-4 11l14 18l-18 18l4 56l-16 20l10 58l-4 82l10 12 v22l-6 6l4 39l-2 52l-2 71l6 10l-6 9l2 22l-2 17l-8 24l-9 37l23 25l-16 39l-9 133l13 65l-13 19l19 24l-12 29l12 24l-6 21l-6 6l12 14l-10 82l2 25l26 24l-28 25l-2 61l-43 19l-21 -35l-6 -76l-2 -47l2 -26l-10 -82l10 -13l-4 -6l-6 -22l10 -25l-10 -26l16 -25l-10 -18 l10 -66l-6 -109l-12 -22l18 -23l-10 -34l8 -72l-4 -17l4 -22l-6 -6l4 -12l-2 -70v-53l2 -39l-4 -6v-21l10 -14l-6 -82l-2 -94l-2 -37l-4 -12l8 -9l-4 -10l-4 -10l-4 -19l16 -8l-2 -74l-6 -16l8 -10v-17l-20 -24l14 -31v-16l6 -17l-18 -34l-47 -27q-156 -12 -185 -12 q-21 0 -48.5 2.5t-44.5 5.5l-17 2l-66 33l-27 92l-4 43l17 37l-13 30l37 21l39 18l21 15l43 -4l30 -29h29l-4 43l-2 27l-4 34l-4 47l2 82l-8 19l10 18l4 60l-4 34l-6 15l2 10l-6 14l8 13l6 12l-2 65l-12 15l-25 8l-133 6l-74 29l-37 6l-63 39l-31 39v20l-53 33l-19 39 l-16 14v29l-18 16l-11 78l-18 53z" />
<glyph unicode="&#xb7;" horiz-adv-x="870" d="M223 471l4 72v18l15 10v17l51 78l53 30l37 11l104 -7l17 -10h33l41 -41l47 -61l4 -66l8 -26l-12 -35l4 -6l-41 -78l-43 -41l-64 -29l-94 4l-59 21l-52 45l-18 29v16z" />
<glyph unicode="&#xb8;" horiz-adv-x="849" d="M166 -395l10 90l27 18l12 31l55 -16l74 -41l27 22l10 55l-35 35l-24 45l6 27l59 18l35 19l12 29l-2 22l31 4l18 -10l21 6l39 -4l2 -25l-17 -30l9 -33l30 -27l29 -12l41 -47l4 -76l-18 -70l-46 -41l-49 -49l-51 -14l-55 -4l-49 -8l-27 16l-51 -8l-37 14v13l-31 -5l-18 37z " />
<glyph unicode="&#xba;" horiz-adv-x="987" d="M98 510l13 35v37h4l18 24l43 8l51 -8l78 10l25 9l22 -19l66 6l55 -8l66 8l4 2l73 11l91 6l81 -10l33 -15l31 -31l-4 -94l-39 -28l-51 -11l-117 -4l-33 8l-96 -6l-55 -2l-29 -8l-22 10l-52 11l-149 -11l-72 2l-12 11l-17 51zM133 1059l2 16l10 27l5 69l10 9v24l18 31l8 22 l9 13l2 12l14 10l20 27l70 63l27 13l69 22l11 4l28 9l90 -7l52 -6l57 -8l72 -25l4 -14l37 -24l8 -5v-20l41 -29h4l8 -26l12 -6l15 -17l4 -43l12 -8l12 -35v-31l8 -14l-6 -68l-10 -65l-12 -12l-8 -52l-27 -34v-11l-21 -24v-15l-20 -14l-39 -37h-2l-45 -32l-23 -7l-51 -22 l-65 -10l-41 -9l-19 9l-137 4l-33 35h-24l-31 32l-14 4l-49 52l-27 67l-6 8l-2 41v9l-13 14l-12 39l10 16v14zM324 1069l10 -61l4 -35l16 -17v-6l29 -28l31 -11l32 -12l29 -4l72 12l18 15l41 20l23 14l37 52l4 14l12 14v11l4 6h2v2l-2 4l-4 41l-12 18v17l-4 10l-7 4l-6 27 l-35 26l-47 27l-112 4l-19 -6l-6 -4h-14l-25 -13v-12l-41 -35v-6l-16 -16v-13l-4 -4l-6 -55h-4z" />
<glyph unicode="&#xbb;" horiz-adv-x="1073" d="M127 195l25 36l43 66l14 33l37 30l6 25l45 80l18 37v33l-16 8l-23 41l-12 16l-6 25l-31 26l-6 27l-18 35l-29 35l-2 20l-22 16l-15 64l6 39l-4 18l23 33l35 16l41 4l47 -47l30 -37l23 -22l8 -25l23 -14l20 -45l21 -25l26 -22l6 -35l29 -20l16 -11l29 -39h14l27 -65 q0 -1 0.5 -2.5t1 -6.5t1 -9t1.5 -10t1.5 -10.5t1 -8.5t0.5 -6l1 -2l-8 -52l-14 -38l-19 -11l-49 -82l-31 -22l-14 -25l-29 -33l-55 -77l-29 -15l-22 -32l-62 -66l-38 4l-37 19l-23 32l4 15zM494 815l10 82l-2 14l20 33l37 19l39 4l61 -66l23 -33l29 -16l57 -76l27 -33 l14 -24l31 -23l51 -82l16 -10l15 -41l10 -49q-1 1 -3.5 -13t-4.5 -28l-2 -14l-27 -66h-14l-29 -39l-16 -10l-27 -22l-8 -33l-27 -23l-20 -26l-21 -45l-22 -13l-9 -26l-22 -23l-31 -37l-24 -37l-23 -8l-39 2l-37 19l-22 32l4 19l-6 39l14 63l23 15l4 20l26 37l19 35l6 26 l31 25l6 27l14 14l21 41l16 10v31l-18 37l-46 82l-6 22l-37 33l-12 33l-45 65z" />
<glyph unicode="&#xbf;" horiz-adv-x="1116" d="M90 367l4 53v18l19 23v24l12 11l4 34h6l33 54l90 96l43 27l41 41l47 40l10 33l21 8l10 15l-10 41l10 41l10 16l-18 12v37l74 23l141 -6l16 -11h13l6 -84l12 -12v-33l-31 -39l-6 -73h-4l-31 -70v-24l-84 -95l-4 -24l-104 -94l-25 -52v-6l4 -6l-10 -10v-15l6 -6l11 -16 l-7 -19l-16 -12l6 -16l33 -25l18 -28h23l33 -21l116 8l47 31l35 35l19 41l-6 65l-13 45l6 101l25 24l29 6l28 25l88 16l33 -14l31 2l24 -31l13 -41v-22l-19 -29l15 -24l-6 -27l6 -37l-19 -31l10 -63l-10 -31v-6l-14 -10v-25l-8 -57l-8 -18v-17l-25 -24v-17l-84 -74l-10 -22 l-105 -53l-98 -4l-43 -15l-107 6l-26 19l-94 14l-60 33v6l-41 25l-57 65l-25 41l-30 68zM379 1296l18 45l17 25l30 27l43 20l66 17l59 -21l60 -20l35 -27h10l14 -49l10 -17v-18h-6l-10 -25l10 -51l-28 -59v-25l-60 -35h-51l-6 -6l-53 6l-45 9l-52 24l-41 21l-8 32l-6 52z " />
<glyph unicode="&#xc0;" horiz-adv-x="1337" d="M14 39l11 24l-11 29l4 105l7 18l18 18l29 5l34 26h7l6 -8l12 14h41l37 31l-8 21l16 36l8 58l25 57l4 55l20 35v25h2l19 71l14 46l45 104v74l25 69l10 23l8 37l11 10l12 65l22 89l7 47l32 43l-16 22l20 29v29h4l15 43l57 49l72 16l72 6l16 -6h18l23 -16h18l17 -31v-25 l12 -12l6 -57l12 -19l11 -57l24 -72l4 -59l39 -59l4 -39l19 -37l16 -88l19 -47l24 -27l4 -49l4 -37v-6l9 -6h10v-6l14 -13l-8 -6v-35l37 -71l-13 -21l9 -18v-13l22 -12l4 -59v-17l37 -61v-35l23 -51l22 -6v-6l37 -17l78 -8l29 -41l4 -76l6 -6v-22l-10 -19l4 -22l6 -7 l-17 -12l-12 -22l-35 -25l-84 -12l-215 -6l-8 -6l-35 12l-90 -12l-63 6l-51 18l-19 41l8 10l-14 37l6 37l4 4l-16 19v26l41 55v5l47 26l125 17l18 18v23l-43 57l-172 6l-39 -6l-6 6l-137 -6l-51 -21l-37 -59l-12 -12l24 -17l10 -14l43 -4l11 -14l100 -5l37 -24l-15 -31v-39 l19 -24l-4 -4v-13h-8v-43v-22l-11 -19l-32 -22l-209 -12l-178 -13l-105 13l-47 18zM260 1714l29 90l47 45l26 6l50 -8l12 2l39 -12l10 -12l53 -19l6 -16l86 -41l17 -4l20 -21l33 -18l55 -25l48 -18l30 -39l-6 -31l-22 -41l-37 -18l-15 4l-45 25h-32v-2l-13 2l-6 8l-2 6 l-14 2l-11 2h-30l-35 14h-43l-29 9l-102 22l-57 12l-46 48zM561 645l10 -8l138 -10l43 18l20 21l-39 100l-24 43v61l-35 37h-25l-16 -35h-8v-32l-17 -17l10 -14h-4h-6v-16l-20 -11v-16l-17 -25v-18z" />
<glyph unicode="&#xc1;" horiz-adv-x="1337" d="M14 39l11 24l-11 29l4 105l7 18l18 18l29 5l34 26h7l6 -8l12 14h41l37 31l-8 21l16 36l8 58l25 57l4 55l20 35v25h2l19 71l14 46l45 104v74l25 69l10 23l8 37l11 10l12 65l22 89l7 47l32 43l-16 22l20 29v29h4l15 43l57 49l72 16l72 6l16 -6h18l23 -16h18l17 -31v-25 l12 -12l6 -57l12 -19l11 -57l24 -72l4 -59l39 -59l4 -39l19 -37l16 -88l19 -47l24 -27l4 -49l4 -37v-6l9 -6h10v-6l14 -13l-8 -6v-35l37 -71l-13 -21l9 -18v-13l22 -12l4 -59v-17l37 -61v-35l23 -51l22 -6v-6l37 -17l78 -8l29 -41l4 -76l6 -6v-22l-10 -19l4 -22l6 -7 l-17 -12l-12 -22l-35 -25l-84 -12l-215 -6l-8 -6l-35 12l-90 -12l-63 6l-51 18l-19 41l8 10l-14 37l6 37l4 4l-16 19v26l41 55v5l47 26l125 17l18 18v23l-43 57l-172 6l-39 -6l-6 6l-137 -6l-51 -21l-37 -59l-12 -12l24 -17l10 -14l43 -4l11 -14l100 -5l37 -24l-15 -31v-39 l19 -24l-4 -4v-13h-8v-43v-22l-11 -19l-32 -22l-209 -12l-178 -13l-105 13l-47 18zM387 1604l33 38l45 19l57 25l31 18l20 20l17 5l86 40l8 17l51 18l13 13l38 12l11 -2l49 8l26 -6l48 -45l28 -49l-6 -52l-16 -30l-15 -29l-30 -18l-58 -11l-102 -22l-31 -10h-43l-33 -15h-30 l-11 2l-14 -6l-2 -4l-8 -8l-10 -4v4h-35l-43 -27l-17 -4l-34 21l-4 39l-13 12zM561 645l10 -8l138 -10l43 18l20 21l-39 100l-24 43v61l-35 37h-25l-16 -35h-8v-32l-17 -17l10 -14h-4h-6v-16l-20 -11v-16l-17 -25v-18z" />
<glyph unicode="&#xc2;" horiz-adv-x="1337" d="M14 39l11 24l-11 29l4 105l7 18l18 18l29 5l34 26h7l6 -8l12 14h41l37 31l-8 21l16 36l8 58l25 57l4 55l20 35v25h2l19 71l14 46l45 104v74l25 69l10 23l8 37l11 10l12 65l22 89l7 47l32 43l-16 22l20 29v29h4l15 43l57 49l72 16l72 6l16 -6h18l23 -16h18l17 -31v-25 l12 -12l6 -57l12 -19l11 -57l24 -72l4 -59l39 -59l4 -39l19 -37l16 -88l19 -47l24 -27l4 -49l4 -37v-6l9 -6h10v-6l14 -13l-8 -6v-35l37 -71l-13 -21l9 -18v-13l22 -12l4 -59v-17l37 -61v-35l23 -51l22 -6v-6l37 -17l78 -8l29 -41l4 -76l6 -6v-22l-10 -19l4 -22l6 -7 l-17 -12l-12 -22l-35 -25l-84 -12l-215 -6l-8 -6l-35 12l-90 -12l-63 6l-51 18l-19 41l8 10l-14 37l6 37l4 4l-16 19v26l41 55v5l47 26l125 17l18 18v23l-43 57l-172 6l-39 -6l-6 6l-137 -6l-51 -21l-37 -59l-12 -12l24 -17l10 -14l43 -4l11 -14l100 -5l37 -24l-15 -31v-39 l19 -24l-4 -4v-13h-8v-43v-22l-11 -19l-32 -22l-209 -12l-178 -13l-105 13l-47 18zM264 1616l39 18l39 27l31 16l18 21l12 4l86 41l23 16l43 19l8 12l33 12l41 8l45 -8l33 -12l8 -12l41 -19l16 -14l72 -27l12 -6l21 -12l22 -27l47 -24l35 -19l17 -82l-5 -32l-14 -29l-26 -19 l-17 5l-37 18l-24 6v-2l-9 2l-6 8l-2 6l-12 5h-8h-25l-28 14l-37 4l-39 20l-49 21l-62 8l-76 -20l-38 -27l-35 -20h-25h-8l-31 -21v2h-24l-39 -24l-11 -5l-28 19l-15 29l-4 32zM561 645l10 -8l138 -10l43 18l20 21l-39 100l-24 43v61l-35 37h-25l-16 -35h-8v-32l-17 -17 l10 -14h-4h-6v-16l-20 -11v-16l-17 -25v-18z" />
<glyph unicode="&#xc3;" horiz-adv-x="1337" d="M14 39l11 24l-11 29l4 105l7 18l18 18l29 5l34 26h7l6 -8l12 14h41l37 31l-8 21l16 36l8 58l25 57l4 55l20 35v25h2l19 71l14 46l45 104v74l25 69l10 23l8 37l11 10l12 65l22 89l7 47l32 43l-16 22l20 29v29h4l15 43l57 49l72 16l72 6l16 -6h18l23 -16h18l17 -31v-25 l12 -12l6 -57l12 -19l11 -57l24 -72l4 -59l39 -59l4 -39l19 -37l16 -88l19 -47l24 -27l4 -49l4 -37v-6l9 -6h10v-6l14 -13l-8 -6v-35l37 -71l-13 -21l9 -18v-13l22 -12l4 -59v-17l37 -61v-35l23 -51l22 -6v-6l37 -17l78 -8l29 -41l4 -76l6 -6v-22l-10 -19l4 -22l6 -7 l-17 -12l-12 -22l-35 -25l-84 -12l-215 -6l-8 -6l-35 12l-90 -12l-63 6l-51 18l-19 41l8 10l-14 37l6 37l4 4l-16 19v26l41 55v5l47 26l125 17l18 18v23l-43 57l-172 6l-39 -6l-6 6l-137 -6l-51 -21l-37 -59l-12 -12l24 -17l10 -14l43 -4l11 -14l100 -5l37 -24l-15 -31v-39 l19 -24l-4 -4v-13h-8v-43v-22l-11 -19l-32 -22l-209 -12l-178 -13l-105 13l-47 18zM154 1612l16 22l59 113l27 4l2 21l31 22l28 16l37 21l41 22l121 5l37 2l45 -7l10 -18l17 8l55 -37l16 -16l97 -23l12 -10l24 6l39 4h17l12 41l25 25l4 16l12 6l37 -6l33 -34l36 -15l27 -28 l4 -27l-20 -35l4 -14l-4 -13l-21 -8l-20 -51l-15 -10l-43 -41l-22 -21l-21 2l-18 -14l-45 -24l-23 6l-28 -17l-15 -8l-14 10l-29 -6l-75 23h-17l-4 16l-43 21h-18l-74 63l-51 4l-41 -8l-72 -23l-16 -18l-2 -20l-29 -54l-39 8l-53 31l-14 23l2 20l-29 8zM561 645l10 -8 l138 -10l43 18l20 21l-39 100l-24 43v61l-35 37h-25l-16 -35h-8v-32l-17 -17l10 -14h-4h-6v-16l-20 -11v-16l-17 -25v-18z" />
<glyph unicode="&#xc4;" horiz-adv-x="1337" d="M14 39l11 24l-11 29l4 105l7 18l18 18l29 5l34 26h7l6 -8l12 14h41l37 31l-8 21l16 36l8 58l25 57l4 55l20 35v25h2l19 71l14 46l45 104v74l25 69l10 23l8 37l11 10l12 65l22 89l7 47l32 43l-16 22l20 29v29h4l15 43l57 49l72 16l72 6l16 -6h18l23 -16h18l17 -31v-25 l12 -12l6 -57l12 -19l11 -57l24 -72l4 -59l39 -59l4 -39l19 -37l16 -88l19 -47l24 -27l4 -49l4 -37v-6l9 -6h10v-6l14 -13l-8 -6v-35l37 -71l-13 -21l9 -18v-13l22 -12l4 -59v-17l37 -61v-35l23 -51l22 -6v-6l37 -17l78 -8l29 -41l4 -76l6 -6v-22l-10 -19l4 -22l6 -7 l-17 -12l-12 -22l-35 -25l-84 -12l-215 -6l-8 -6l-35 12l-90 -12l-63 6l-51 18l-19 41l8 10l-14 37l6 37l4 4l-16 19v26l41 55v5l47 26l125 17l18 18v23l-43 57l-172 6l-39 -6l-6 6l-137 -6l-51 -21l-37 -59l-12 -12l24 -17l10 -14l43 -4l11 -14l100 -5l37 -24l-15 -31v-39 l19 -24l-4 -4v-13h-8v-43v-22l-11 -19l-32 -22l-209 -12l-178 -13l-105 13l-47 18zM176 1632l6 45l51 72l35 27l47 -9l21 23h43l12 -14h43l37 -25l18 -31l9 -8l16 -51l12 -8l-8 -72l-20 -45l-4 -37l-31 -18l-39 -29l-23 27l-30 -27l-72 6l-8 6l-27 9l-53 36l-21 33l-8 31 l19 29l-19 28zM561 645l10 -8l138 -10l43 18l20 21l-39 100l-24 43v61l-35 37h-25l-16 -35h-8v-32l-17 -17l10 -14h-4h-6v-16l-20 -11v-16l-17 -25v-18zM723 1599l10 78l10 49l29 25h23l24 25l15 10l28 4h33l70 -14l20 -9l31 -26v-6l35 -37l10 -31l-14 -43l14 -43l-10 -6 l-4 -37l-31 -35v-10l-27 -4l-10 -21l-14 -10l-41 -2l-74 -6l-16 18l-39 21l-56 78z" />
<glyph unicode="&#xc5;" horiz-adv-x="1337" d="M20 39l11 24l-11 29l5 105l6 18l18 18l29 5l35 26h6l6 -8l12 14h41l37 31l-8 21l16 36l8 58l25 57l4 55l21 35v25h2l18 71l14 46l45 104v74l25 69l10 23l8 37l11 10l12 65l23 89l6 47l32 43l-16 22l37 45l31 6l4 19l-15 16l-47 45l-14 39l-14 45l-7 23v51l9 43l8 16 l10 23l33 51l41 37l63 25l19 4h57l25 -9l39 -6l41 -10l24 -22l35 -35l10 -21l14 -37l7 -6l6 -22l8 -29l-8 -33l-6 -43l-7 -8l-4 -31l-14 -24l-16 -27l-9 -10l-38 -21q1 -1 -1.5 -2.5t-5.5 -3.5t-6.5 -4.5t-5 -5t-0.5 -4.5q0 -3 4.5 -12.5t7.5 -12.5q7 -7 16 -13t14 -8l5 -3 l13 -19l10 -57l24 -72l4 -59l39 -59l4 -39l19 -37l16 -88l19 -47l24 -27l4 -49l4 -37v-6l9 -6h10v-6l14 -13h-8v-41l37 -71l-12 -21l8 -18v-13l22 -12l4 -59v-17l37 -61v-35l23 -51l22 -6v-6l37 -17l78 -8l29 -41l4 -76l6 -6v-22l-10 -19l4 -22l6 -7l-16 -12l-13 -22 l-35 -25l-83 -12l-216 -6l-8 -6l-35 12l-90 -12l-63 6l-51 18l-19 41l8 10l-14 37l6 37l4 4l-16 19v26l41 55v5l47 26l125 17l18 18v23l-43 57l-172 6l-39 -6l-6 6l-137 -6l-51 -21l-37 -59l-12 -12l24 -17l11 -14l43 -4l10 -14l100 -5l37 -24l-14 -31v-39l18 -24l-4 -4v-13 h-8v-43v-22l-10 -19l-33 -22l-209 -12l-178 -13l-105 13l-47 18zM567 645l11 -8l137 -10l43 18l20 21l-39 100l-24 43v61l-35 37h-25l-16 -35h-8v-32l-17 -17l11 -14h-4h-7v-16l-20 -11v-16l-16 -25v-18zM578 1554l8 -49l6 -8l18 -16l31 -15h16l48 15l20 8l10 10l19 29 l14 18l-4 27l-12 24l-2 15l-19 16l-26 12l-58 2l-16 -8l-19 -6l-20 -20l-8 -21z" />
<glyph unicode="&#xc6;" horiz-adv-x="1929" d="M-6 39l10 24l-10 29l14 45l-10 60l6 18l19 18l28 5l35 26h6l6 -8l13 14h41l41 21l2 22l20 15l-2 30l20 29l35 70l8 20l19 12l12 33l6 47l45 41l13 35l18 10l31 37l2 31l29 6l4 70l14 10l12 31l17 10l4 35l28 16l37 94l8 39l17 13l2 34l24 41l-49 21l-106 14l-45 19 l-29 41l10 22l-10 29l-4 45l6 18l19 17l30 6l33 26h8l4 -8l13 12h41h-4h49l41 17l12 -19l39 2l41 5l35 2l84 4l71 6l17 -6h18l33 -11l49 11l139 -9l180 11l205 6l82 -19l68 23h49l57 -21l37 -34l-14 -11l8 -75l-25 -41v-27l7 -41l-7 -33v-41l-18 -24v-19l18 -24l2 -80 l-2 -78l7 -4v-14l-37 -17l-82 -12l-82 12l-41 47l12 62l-12 57l-6 23v18l12 10v31l-12 12v27l-37 25l-94 -15l-66 19l-18 -9l-29 7l-63 -9l-70 7l-35 -19l-24 -33l12 -18l-6 -6l10 -19l-6 -88l14 -82l10 -16l-10 -14v-11l21 -18l65 6h19l24 19l-12 38l12 31l-8 51l8 48 l41 45l31 10l106 -6l29 -13h12l4 -16l17 -31l-2 -127l-15 -43l15 -12l-13 -131l9 -62l-11 -77l7 -6l10 -17l-10 -14v-47l10 -17l-2 -82l-43 -30l-41 -6l-39 6l-51 -6l-29 12l-35 24l21 84l-21 84l-47 43l-53 -18l-23 -25l-14 -73l14 -72v-19l-14 -10l-4 -63v-21l18 -22h23 l12 -13l172 -6l-2 19l76 -10l80 20l32 -4h19l6 4l35 37l-6 65l-11 95l7 41l10 24l35 23l106 10l47 -6h19l35 -27l-5 -24l17 -29l-17 -12l5 -41v-13h-5l9 -82l-9 -84l13 -47l-13 -53l13 -31v-28v-27l-21 -37l-22 -20l-58 14l-155 -14l-27 2l-203 -2h-65l-98 -4l-17 8l-145 -6 l-164 -8l-21 12l-61 -12l-37 10l-24 20v13l-11 10l6 24v35l-6 82l19 53l24 6l6 7l17 12l84 4l31 14l14 25l-8 45l-4 31l-23 6l-47 14l-8 -24l-39 8l-41 -2h-25l-10 18l-12 -8l-37 -4h-47l-6 6l-76 -12l-25 16l-37 -10l-51 -21l-37 -59l-12 -12l25 -17l10 -14l43 -4l10 -14 l100 -5l37 -24l-14 -31v-39l18 -24l-4 -4v-13h-8l25 -26l-25 -17v-22l-10 -19l-33 -22l-209 -12l-178 -13l-104 13l-47 18zM666 645l12 -8l45 8l25 -10l10 10h20l33 -8l59 2l29 10l10 37l-16 62l6 28l10 19l-18 22l14 25l-6 43l2 28l-2 33l10 39l-43 -8l-16 20l-19 -10 l-16 -22l-10 -29l-23 -12l-16 -33l-16 -33l-21 -43l-8 -6l-6 -16l-10 -27l-15 -23l-18 -28v-19z" />
<glyph unicode="&#xc7;" horiz-adv-x="1265" d="M100 614l4 113l-4 100l19 47l14 70l10 53l-6 31v16l25 35l31 37l43 82l16 16v13l63 59l21 41l88 55l53 17l17 10l77 25l99 -7l110 -18l113 -43l10 -12h41l64 45l28 -2l68 -13l20 7l58 -33l16 -31v-10h-10l-6 -53l-4 -54l-17 -24v-58l17 -12v-12h-9l-20 -94v-25l20 -16 l-12 -17l-8 -37v-65l8 -82l-59 -37l-29 -4l-29 8l-53 -10l-26 14l-33 29l-13 86v20l-12 13v16l12 12v29l-34 49v35l-27 23v16l-45 43v10l-35 25l-26 10l-48 12h-43l-59 -12l-80 -39l-16 -24v-19l-58 -45l-12 -27v-28l-35 -37v-4l6 -4h-6l-16 -25v-37l-16 -63l-11 -41v-17 l11 -14v-18l-11 -17l6 -147l15 -10v-78l12 -19v-22l23 -41l30 -23l-8 -26l21 -11l8 -28l78 -49l34 -4l25 -19l43 -4l86 6l33 -2l49 37h16l35 47l35 35l8 35h4l17 12l12 76l10 119l35 28l-8 13l41 -11l82 8l28 -10l54 -24h20l-6 -21l6 -24h-10l-10 -31l-9 -70l-8 -8l17 -35 l-21 -16v-29l-20 -47l-7 -43l-32 -76l-72 -84l-29 -32l-18 -9l-47 -41l-74 -28l-47 -4l-76 -27l-18 2l-2 -14l12 -21l-4 -26l6 -33l33 -27l26 -12l41 -47l5 -76l-19 -70l-45 -41l-47 -49l-53 -14l-56 -4l-49 -8l-24 16l-54 -8l-36 14v13l-31 -5l-19 37l-41 19l13 90l26 18 l11 31l55 -16l76 -41l24 22l13 55l-35 35l-25 45l4 27l72 37l16 53l-8 -2v8l-100 19l-92 39l-31 6l-37 37l-41 16l-49 49v17l-31 34l-6 19v12l-18 16l-4 43l-31 45l-4 48v18l-21 16l6 29l-6 8l-12 39l-12 25v59z" />
<glyph unicode="&#xc8;" horiz-adv-x="1265" d="M45 1178l8 100l-6 29l4 45l25 34l12 17l37 10l61 -6l113 -6l18 -10l21 4l141 -9l180 11l205 6l150 4h47l57 -21l39 -34l-16 -11l10 -75l-27 -41v-27v-74v-41l-18 -24v-19l18 -24l4 -80l-4 -78l9 -4v-14l-37 -17l-27 4l-108 -18l-29 14l-33 41l-8 125l-6 23v18l10 10v31 l-10 12v27l-37 25l-162 4l-18 -9l-27 7l-135 -2l-33 -19l-27 -33l15 -18l-6 -6l8 -19l10 -170l8 -16l-8 -14v-11l21 -18l65 6h19l24 19l-14 38l14 31l4 49l-4 50l41 45l29 10l106 -6l31 -13h12l4 -16l17 -31l-4 -127l-13 -43l13 -12l-11 -131l-8 -76l6 -63l4 -6l13 -17 l-13 -14v-47l13 -17l-4 -82l-43 -30l-41 -6l-66 18l-51 -6l-35 24l-4 129l4 39l-49 43l-51 -18l-23 -25l-16 -73l16 -72v-19l-16 -10l-2 -63v-21l18 -22h23l10 -13l172 13l154 10l32 -4h21l4 4l37 37l-6 65l-13 95l7 41l12 24l35 23l106 10l45 -6h19l37 -27l-7 -24v-41 l7 -41v-13l-11 -6l4 -160l13 -47l-13 -53l13 -31v-28v-27l-21 -37l-22 -20l-211 -4l-27 12l-205 -8h-65l-99 -4l-14 8l-147 -4l-162 -10l-82 4l-37 6l-25 20v13l-12 10l6 24v35l-6 82l21 53l22 6l6 7l17 12l84 4l16 20l-10 144l4 8l-10 29l10 12l4 219l-10 33l-4 14l10 13 l4 120l-4 131l6 31l19 45l-13 35l-123 14l-49 23zM285 1657l28 90l47 45l27 6l49 -8l13 2l38 -12l11 -13l53 -18l6 -16l86 -41l16 -4l21 -21l33 -18l55 -25l47 -18l31 -39l-6 -31l-23 -41l-37 -18l-14 4l-45 24h-33v-2l-12 2l-6 8l-2 7l-15 2l-10 2h-31l-34 14h-43l-29 8 l-103 23l-57 12l-45 47z" />
<glyph unicode="&#xc9;" horiz-adv-x="1265" d="M45 1178l8 100l-6 29l4 45l25 34l12 17l37 10l61 -6l113 -6l18 -10l21 4l141 -9l180 11l205 6l150 4h47l57 -21l39 -34l-16 -11l10 -75l-27 -41v-27v-74v-41l-18 -24v-19l18 -24l4 -80l-4 -78l9 -4v-14l-37 -17l-27 4l-108 -18l-29 14l-33 41l-8 125l-6 23v18l10 10v31 l-10 12v27l-37 25l-162 4l-18 -9l-27 7l-135 -2l-33 -19l-27 -33l15 -18l-6 -6l8 -19l10 -170l8 -16l-8 -14v-11l21 -18l65 6h19l24 19l-14 38l14 31l4 49l-4 50l41 45l29 10l106 -6l31 -13h12l4 -16l17 -31l-4 -127l-13 -43l13 -12l-11 -131l-8 -76l6 -63l4 -6l13 -17 l-13 -14v-47l13 -17l-4 -82l-43 -30l-41 -6l-66 18l-51 -6l-35 24l-4 129l4 39l-49 43l-51 -18l-23 -25l-16 -73l16 -72v-19l-16 -10l-2 -63v-21l18 -22h23l10 -13l172 13l154 10l32 -4h21l4 4l37 37l-6 65l-13 95l7 41l12 24l35 23l106 10l45 -6h19l37 -27l-7 -24v-41 l7 -41v-13l-11 -6l4 -160l13 -47l-13 -53l13 -31v-28v-27l-21 -37l-22 -20l-211 -4l-27 12l-205 -8h-65l-99 -4l-14 8l-147 -4l-162 -10l-82 4l-37 6l-25 20v13l-12 10l6 24v35l-6 82l21 53l22 6l6 7l17 12l84 4l16 20l-10 144l4 8l-10 29l10 12l4 219l-10 33l-4 14l10 13 l4 120l-4 131l6 31l19 45l-13 35l-123 14l-49 23zM469 1599l33 39l45 19l57 24l31 19l20 20l17 4l86 41l8 17l51 18l12 12l39 13l11 -2l49 8l26 -6l47 -45l29 -49l-6 -52l-16 -30l-15 -29l-30 -18l-58 -11l-102 -22l-31 -10h-43l-33 -15h-30l-11 2l-14 -6l-2 -4l-8 -8 l-10 -4v4h-35l-43 -27l-17 -4l-34 21l-5 38l-12 13z" />
<glyph unicode="&#xca;" horiz-adv-x="1265" d="M45 1178l8 100l-6 29l4 45l25 34l12 17l37 10l61 -6l113 -6l18 -10l21 4l141 -9l180 11l205 6l150 4h47l57 -21l39 -34l-16 -11l10 -75l-27 -41v-27v-74v-41l-18 -24v-19l18 -24l4 -80l-4 -78l9 -4v-14l-37 -17l-27 4l-108 -18l-29 14l-33 41l-8 125l-6 23v18l10 10v31 l-10 12v27l-37 25l-162 4l-18 -9l-27 7l-135 -2l-33 -19l-27 -33l15 -18l-6 -6l8 -19l10 -170l8 -16l-8 -14v-11l21 -18l65 6h19l24 19l-14 38l14 31l4 49l-4 50l41 45l29 10l106 -6l31 -13h12l4 -16l17 -31l-4 -127l-13 -43l13 -12l-11 -131l-8 -76l6 -63l4 -6l13 -17 l-13 -14v-47l13 -17l-4 -82l-43 -30l-41 -6l-66 18l-51 -6l-35 24l-4 129l4 39l-49 43l-51 -18l-23 -25l-16 -73l16 -72v-19l-16 -10l-2 -63v-21l18 -22h23l10 -13l172 13l154 10l32 -4h21l4 4l37 37l-6 65l-13 95l7 41l12 24l35 23l106 10l45 -6h19l37 -27l-7 -24v-41 l7 -41v-13l-11 -6l4 -160l13 -47l-13 -53l13 -31v-28v-27l-21 -37l-22 -20l-211 -4l-27 12l-205 -8h-65l-99 -4l-14 8l-147 -4l-162 -10l-82 4l-37 6l-25 20v13l-12 10l6 24v35l-6 82l21 53l22 6l6 7l17 12l84 4l16 20l-10 144l4 8l-10 29l10 12l4 219l-10 33l-4 14l10 13 l4 120l-4 131l6 31l19 45l-13 35l-123 14l-49 23zM264 1618l39 18l39 27l31 16l18 21l12 4l86 41l23 16l43 19l8 12l33 12l41 8l45 -8l33 -12l8 -12l41 -19l16 -14l72 -27l12 -6l21 -12l22 -27l47 -24l35 -19l17 -82l-5 -32l-14 -29l-26 -19l-17 5l-37 18l-24 6v-2l-9 2 l-6 8l-2 6l-12 5h-8h-25l-28 14l-37 4l-39 20l-49 21l-62 8l-76 -20l-38 -27l-35 -20h-25h-8l-31 -21v2h-24l-39 -24l-11 -5l-28 19l-15 29l-4 32z" />
<glyph unicode="&#xcb;" horiz-adv-x="1265" d="M45 1178l8 100l-6 29l4 45l25 34l12 17l37 10l61 -6l113 -6l18 -10l21 4l141 -9l180 11l205 6l150 4h47l57 -21l39 -34l-16 -11l10 -75l-27 -41v-27v-74v-41l-18 -24v-19l18 -24l4 -80l-4 -78l9 -4v-14l-37 -17l-27 4l-108 -18l-29 14l-33 41l-8 125l-6 23v18l10 10v31 l-10 12v27l-37 25l-162 4l-18 -9l-27 7l-135 -2l-33 -19l-27 -33l15 -18l-6 -6l8 -19l10 -170l8 -16l-8 -14v-11l21 -18l65 6h19l24 19l-14 38l14 31l4 49l-4 50l41 45l29 10l106 -6l31 -13h12l4 -16l17 -31l-4 -127l-13 -43l13 -12l-11 -131l-8 -76l6 -63l4 -6l13 -17 l-13 -14v-47l13 -17l-4 -82l-43 -30l-41 -6l-66 18l-51 -6l-35 24l-4 129l4 39l-49 43l-51 -18l-23 -25l-16 -73l16 -72v-19l-16 -10l-2 -63v-21l18 -22h23l10 -13l172 13l154 10l32 -4h21l4 4l37 37l-6 65l-13 95l7 41l12 24l35 23l106 10l45 -6h19l37 -27l-7 -24v-41 l7 -41v-13l-11 -6l4 -160l13 -47l-13 -53l13 -31v-28v-27l-21 -37l-22 -20l-211 -4l-27 12l-205 -8h-65l-99 -4l-14 8l-147 -4l-162 -10l-82 4l-37 6l-25 20v13l-12 10l6 24v35l-6 82l21 53l22 6l6 7l17 12l84 4l16 20l-10 144l4 8l-10 29l10 12l4 219l-10 33l-4 14l10 13 l4 120l-4 131l6 31l19 45l-13 35l-123 14l-49 23zM160 1640l6 46l51 71l35 27l47 -8l20 22h43l13 -14h43l37 -25l18 -30l8 -9l17 -51l12 -8l-8 -72l-21 -45l-4 -37l-31 -18l-38 -29l-23 27l-31 -27l-71 6l-9 7l-26 8l-53 37l-21 32l-8 31l18 29l-18 28zM707 1608l10 78 l10 49l29 24h22l25 25l14 10l29 4h33l69 -14l21 -8l30 -27v-6l35 -37l10 -31l-14 -43l14 -43l-10 -6l-4 -37l-31 -35v-10l-26 -4l-10 -20l-15 -11l-41 -2l-73 -6l-17 19l-39 20l-55 78z" />
<glyph unicode="&#xcc;" horiz-adv-x="1032" d="M45 1266l21 47l12 51l14 18l58 25l59 -2l59 2l27 -14l41 -2l51 6l55 -2l47 -4l50 6l45 -2l55 12l53 2l58 -8l59 2l88 -8l55 -19l23 -22v-6l-6 -7l10 -10v-18l-25 -25l7 -57l-7 -8l21 -17l-21 -59l-20 -17l-43 -10l-41 6l-21 -10l-18 10l-74 4l-63 -8l-8 -6l-15 -16 l-14 -99l6 -112l14 -53l2 -7v-16l-8 -14v-45l6 -6h2v-15h-2l-6 -82l8 -10l-6 -90l13 -19l-11 -18l7 -119l-5 -96l17 -47l16 -12l113 -4l69 4l39 -19l33 -6l10 -10v-27l15 -37l2 -24l-10 -37l8 -33l-8 -37l-41 -18l-7 -4l-104 -8l-102 10l-97 -6l-14 8l-23 -10l-69 8l-78 -6 l-25 -7l-26 9l-78 -4l-70 -15l-77 2l-41 13l-37 28l-19 37l6 16v17l-6 53v19h6l13 53l20 31l41 16l103 2l20 -12l14 12l90 -2l31 12l8 17l2 131l-16 18l12 57l-6 82l10 15v20l-4 6l-12 189l12 65l-12 19l16 24l-10 27l10 24l-4 23l-6 6l10 12v41l7 60v14l-23 16l-102 -6 l-45 -6l-27 6l-37 -8l-72 6l-34 33l-9 76zM145 1661l29 90l47 45l27 6l49 -8l12 2l39 -12l10 -12l54 -19l6 -16l86 -41l16 -4l21 -21l32 -18l56 -25l47 -18l31 -39l-7 -31l-22 -41l-37 -18l-14 4l-45 24h-33v-2l-12 2l-7 9l-2 6l-14 2l-10 2h-31l-35 14h-43l-28 8l-103 23 l-57 12l-45 47z" />
<glyph unicode="&#xcd;" horiz-adv-x="1032" d="M45 1266l21 47l12 51l14 18l58 25l59 -2l59 2l27 -14l41 -2l51 6l55 -2l47 -4l50 6l45 -2l55 12l53 2l58 -8l59 2l88 -8l55 -19l23 -22v-6l-6 -7l10 -10v-18l-25 -25l7 -57l-7 -8l21 -17l-21 -59l-20 -17l-43 -10l-41 6l-21 -10l-18 10l-74 4l-63 -8l-8 -6l-15 -16 l-14 -99l6 -112l14 -53l2 -7v-16l-8 -14v-45l6 -6h2v-15h-2l-6 -82l8 -10l-6 -90l13 -19l-11 -18l7 -119l-5 -96l17 -47l16 -12l113 -4l69 4l39 -19l33 -6l10 -10v-27l15 -37l2 -24l-10 -37l8 -33l-8 -37l-41 -18l-7 -4l-104 -8l-102 10l-97 -6l-14 8l-23 -10l-69 8l-78 -6 l-25 -7l-26 9l-78 -4l-70 -15l-77 2l-41 13l-37 28l-19 37l6 16v17l-6 53v19h6l13 53l20 31l41 16l103 2l20 -12l14 12l90 -2l31 12l8 17l2 131l-16 18l12 57l-6 82l10 15v20l-4 6l-12 189l12 65l-12 19l16 24l-10 27l10 24l-4 23l-6 6l10 12v41l7 60v14l-23 16l-102 -6 l-45 -6l-27 6l-37 -8l-72 6l-34 33l-9 76zM240 1575l32 39l45 18l58 25l31 18l20 21l16 4l86 41l9 16l51 19l12 12l39 12l10 -2l49 8l27 -6l47 -45l29 -49l-6 -51l-17 -31l-14 -29l-31 -18l-57 -10l-103 -23l-30 -10h-43l-33 -14h-31l-10 2l-14 -6l-2 -5l-9 -8l-10 -4v4h-35 l-43 -26l-16 -4l-35 20l-4 39l-12 12z" />
<glyph unicode="&#xce;" horiz-adv-x="1032" d="M45 1266l21 47l12 51l14 18l58 25l59 -2l59 2l27 -14l41 -2l51 6l55 -2l47 -4l50 6l45 -2l55 12l53 2l58 -8l59 2l88 -8l55 -19l23 -22v-6l-6 -7l10 -10v-18l-25 -25l7 -57l-7 -8l21 -17l-21 -59l-20 -17l-43 -10l-41 6l-21 -10l-18 10l-74 4l-63 -8l-8 -6l-15 -16 l-14 -99l6 -112l14 -53l2 -7v-16l-8 -14v-45l6 -6h2v-15h-2l-6 -82l8 -10l-6 -90l13 -19l-11 -18l7 -119l-5 -96l17 -47l16 -12l113 -4l69 4l39 -19l33 -6l10 -10v-27l15 -37l2 -24l-10 -37l8 -33l-8 -37l-41 -18l-7 -4l-104 -8l-102 10l-97 -6l-14 8l-23 -10l-69 8l-78 -6 l-25 -7l-26 9l-78 -4l-70 -15l-77 2l-41 13l-37 28l-19 37l6 16v17l-6 53v19h6l13 53l20 31l41 16l103 2l20 -12l14 12l90 -2l31 12l8 17l2 131l-16 18l12 57l-6 82l10 15v20l-4 6l-12 189l12 65l-12 19l16 24l-10 27l10 24l-4 23l-6 6l10 12v41l7 60v14l-23 16l-102 -6 l-45 -6l-27 6l-37 -8l-72 6l-34 33l-9 76zM150 1618l38 18l39 27l31 16l18 21l13 4l86 41l22 16l43 19l9 12l32 12l41 8l45 -8l33 -12l8 -12l41 -19l17 -14l71 -27l13 -6l20 -12l23 -27l47 -24l34 -19l17 -82l-4 -32l-15 -29l-26 -19l-17 5l-36 18l-25 6v-2l-8 2l-6 8l-2 6 l-13 5h-8h-24l-29 14l-37 4l-39 20l-49 21l-61 8l-76 -20l-39 -27l-35 -20h-25h-8l-30 -21v2h-25l-39 -24l-10 -5l-29 19l-14 29l-4 32z" />
<glyph unicode="&#xcf;" horiz-adv-x="1032" d="M45 1266l21 47l12 51l14 18l58 25l59 -2l59 2l27 -14l41 -2l51 6l55 -2l47 -4l50 6l45 -2l55 12l53 2l58 -8l59 2l88 -8l55 -19l23 -22v-6l-6 -7l10 -10v-18l-25 -25l7 -57l-7 -8l21 -17l-21 -59l-20 -17l-43 -10l-41 6l-21 -10l-18 10l-74 4l-63 -8l-8 -6l-15 -16 l-14 -99l6 -112l14 -53l2 -7v-16l-8 -14v-45l6 -6h2v-15h-2l-6 -82l8 -10l-6 -90l13 -19l-11 -18l7 -119l-5 -96l17 -47l16 -12l113 -4l69 4l39 -19l33 -6l10 -10v-27l15 -37l2 -24l-10 -37l8 -33l-8 -37l-41 -18l-7 -4l-104 -8l-102 10l-97 -6l-14 8l-23 -10l-69 8l-78 -6 l-25 -7l-26 9l-78 -4l-70 -15l-77 2l-41 13l-37 28l-19 37l6 16v17l-6 53v19h6l13 53l20 31l41 16l103 2l20 -12l14 12l90 -2l31 12l8 17l2 131l-16 18l12 57l-6 82l10 15v20l-4 6l-12 189l12 65l-12 19l16 24l-10 27l10 24l-4 23l-6 6l10 12v41l7 60v14l-23 16l-102 -6 l-45 -6l-27 6l-37 -8l-72 6l-34 33l-9 76zM53 1640l6 46l52 71l34 27l48 -8l20 22h43l12 -14h43l37 -25l19 -30l8 -9l16 -51l12 -8l-8 -72l-20 -45l-4 -37l-31 -18l-39 -29l-22 27l-31 -27l-72 6l-8 7l-27 8l-53 37l-20 32l-9 31l19 29l-19 28zM600 1608l10 78l11 49l28 24 h23l24 25l15 10l28 4h33l70 -14l20 -8l31 -27v-6l35 -37l10 -31l-14 -43l14 -43l-10 -6l-4 -37l-31 -35v-10l-27 -4l-10 -20l-14 -11l-41 -2l-74 -6l-16 19l-39 20l-56 78z" />
<glyph unicode="&#xd1;" horiz-adv-x="1378" d="M0 1268l16 24v37l52 53l65 13l164 -6l170 -7l35 -36l6 -41l18 -48h6l19 -59l29 -47v-12l24 -23l10 -18v-23l17 -20v-15l14 -12v-22l51 -50l6 -24l19 -19v-16l6 -6l25 -41l30 -31l9 -33l30 -30v-11l25 -22l16 -37l19 -14h16l14 14l11 105l-17 94l6 67l-14 142v4l-10 12 l-66 12l-59 -12l-70 29l-18 24l-6 60l-6 6v94l18 41v6l59 29l117 -17l66 23l57 -16l149 -3l172 13l35 -17l6 -18l13 -18l-2 -50l12 -49l6 -8l-16 -35v-47l-35 -29l-55 -18h-76l-25 -35l-6 -78l14 -10v-18l-14 -13l8 -88l11 -12l-11 -37v-28v-19l11 -10v-57l-11 -15v-51v-55 l11 -13l-11 -28l6 -6h5v-11h-5l-14 -28l19 -37v-31v-84l-19 -22l19 -52v-32l16 -9l-4 -137l12 -14l-12 -49l-31 -43l-41 -19l-41 -6l-4 -6l-29 6l-71 6l-8 6l-41 66v12l-17 10v25l-31 37v18l-57 88l-8 27l-57 107l-41 77l-25 23l6 14v19l-18 8l-12 31l-37 34l-15 54h-6 l-12 24l4 8l-29 48l-6 22l-10 12l-29 41l4 29l-34 37l-33 14l-17 -33l11 -18l-11 -80v-43l-14 -24l8 -213l-10 -13l16 -57l-16 -39v-51v-31l31 -22l24 4l129 -13l29 4l23 -18l6 -25l6 -16l-8 -70l8 -71l-29 -37l-41 -19h-43l-180 11l-23 -9l-18 13l-180 -15h-111l-14 19 l-12 55l14 45l8 51l-14 50l20 22l39 19l105 20l18 20l-12 64l8 6v10l-14 9l6 6l-11 12l5 37l14 22v41l-14 15v67l-11 31l6 18l-14 11v14l19 10v23v18l-11 39l17 51l-11 17l11 12v22l-6 7l-11 18l11 16l-11 54h6l15 108l-10 64l-82 24h-41l-41 35l-15 41l15 12zM178 1593 l17 23l59 113l27 2l2 22l30 23l29 16l37 20l41 21l121 6l37 2l45 -6l10 -18l16 8l56 -37l16 -16l96 -23l12 -10l23 6l39 4h18l13 41l24 25l4 16l13 6l36 -6l33 -35l37 -14l27 -31l4 -25l-21 -34l4 -15l-6 -12l-18 -8l-23 -51l-12 -11l-43 -41l-23 -20l-20 2l-18 -14l-48 -25 l-22 6l-27 -16l-14 -8l-14 10l-29 -6l-78 22h-14l-6 17l-43 20h-19l-71 64l-54 2l-41 -6l-69 -23l-17 -18l-2 -21l-28 -55l-39 10l-54 31l-16 22l2 21l-27 8z" />
<glyph unicode="&#xd2;" horiz-adv-x="1271" d="M47 788h8l33 123l4 45l8 19v18h6l21 43l-12 23l24 22l6 43l19 17v18l33 23v14l79 76v10l76 55h17l24 27l123 33l59 10h105l39 -16l78 -9l71 -20l64 -41l6 -21l35 -22l49 -41v-18l45 -29l27 -53l32 -29l15 -8l18 -19v-6l-24 -20l18 -15v-28l12 -13l-6 -51l27 -24l12 -41 l-12 -33l6 -62l20 -20l11 -51l-25 -35v-31l14 -12v-14l-14 -17l6 -35l8 -45l-20 -12v-43l-12 -10l6 -43l-27 -41l6 -6l-39 -94v-17l-63 -100l-6 -17l-60 -43l-6 -18l-24 -35l-93 -53l-34 -6l-58 -29l-90 -12l-6 -6l-111 6l-86 12l-77 23l-19 12h-41l-4 29l-65 43l-41 43 l-25 -5l-39 109l-4 4l-74 125v35l-18 18l6 13v18l-20 16l8 54l6 24l-14 10l-7 220zM305 1673l29 90l47 45l27 7l49 -9l12 2l39 -12l10 -12l53 -19l7 -16l86 -41l16 -4l20 -21l33 -18l55 -25l48 -18l30 -39l-6 -31l-22 -41l-37 -18l-15 4l-45 25h-32v-2l-13 2l-6 8l-2 6 l-14 2l-10 2h-31l-35 14h-43l-29 9l-102 22l-57 12l-45 48zM313 719l9 -8l12 -35l-6 -230l24 -34l-16 -31l57 -41l-6 -35l55 -47l72 -55l80 -4l12 -13h62l39 25l59 18l63 39l25 37l39 70h8l-14 14l35 29v65l20 17v12l14 76l-14 112v60l10 69l-20 31v25l2 26l-21 33v29 l-26 53l-58 57l-28 13v6l-29 35h-29l-14 12l-111 18l-75 -12l-41 -37h-17l-34 -35l-52 -28l-12 -23l-14 -80l-17 -8l-4 -59l-16 -31v-53l-14 -72h-9v-10z" />
<glyph unicode="&#xd3;" horiz-adv-x="1271" d="M47 788h8l33 123l4 45l8 19v18h6l21 43l-12 23l24 22l6 43l19 17v18l33 23v14l79 76v10l76 55h17l24 27l123 33l59 10h105l39 -16l78 -9l71 -20l64 -41l6 -21l35 -22l49 -41v-18l45 -29l27 -53l32 -29l15 -8l18 -19v-6l-24 -20l18 -15v-28l12 -13l-6 -51l27 -24l12 -41 l-12 -33l6 -62l20 -20l11 -51l-25 -35v-31l14 -12v-14l-14 -17l6 -35l8 -45l-20 -12v-43l-12 -10l6 -43l-27 -41l6 -6l-39 -94v-17l-63 -100l-6 -17l-60 -43l-6 -18l-24 -35l-93 -53l-34 -6l-58 -29l-90 -12l-6 -6l-111 6l-86 12l-77 23l-19 12h-41l-4 29l-65 43l-41 43 l-25 -5l-39 109l-4 4l-74 125v35l-18 18l6 13v18l-20 16l8 54l6 24l-14 10l-7 220zM313 719l9 -8l12 -35l-6 -230l24 -34l-16 -31l57 -41l-6 -35l55 -47l72 -55l80 -4l12 -13h62l39 25l59 18l63 39l25 37l39 70h8l-14 14l35 29v65l20 17v12l14 76l-14 112v60l10 69l-20 31 v25l2 26l-21 33v29l-26 53l-58 57l-28 13v6l-29 35h-29l-14 12l-111 18l-75 -12l-41 -37h-17l-34 -35l-52 -28l-12 -23l-14 -80l-17 -8l-4 -59l-16 -31v-53l-14 -72h-9v-10zM424 1554l33 39l45 19l57 24l31 19l20 20l17 4l86 41l8 17l51 18l12 12l39 13l11 -2l49 8l26 -6 l47 -45l29 -49l-6 -52l-16 -30l-15 -29l-30 -19l-58 -10l-102 -22l-31 -11h-43l-33 -14h-30l-11 2l-14 -6l-2 -4l-8 -8l-11 -4v4h-34l-43 -27l-17 -4l-35 21l-4 38l-12 13z" />
<glyph unicode="&#xd4;" horiz-adv-x="1271" d="M47 788h8l33 123l4 45l8 19v18h6l21 43l-12 23l24 22l6 43l19 17v18l33 23v14l79 76v10l76 55h17l24 27l123 33l59 10h105l39 -16l78 -9l71 -20l64 -41l6 -21l35 -22l49 -41v-18l45 -29l27 -53l32 -29l15 -8l18 -19v-6l-24 -20l18 -15v-28l12 -13l-6 -51l27 -24l12 -41 l-12 -33l6 -62l20 -20l11 -51l-25 -35v-31l14 -12v-14l-14 -17l6 -35l8 -45l-20 -12v-43l-12 -10l6 -43l-27 -41l6 -6l-39 -94v-17l-63 -100l-6 -17l-60 -43l-6 -18l-24 -35l-93 -53l-34 -6l-58 -29l-90 -12l-6 -6l-111 6l-86 12l-77 23l-19 12h-41l-4 29l-65 43l-41 43 l-25 -5l-39 109l-4 4l-74 125v35l-18 18l6 13v18l-20 16l8 54l6 24l-14 10l-7 220zM244 1618l39 18l39 27l30 16l19 21l12 4l86 41l23 16l43 19l8 12l32 12l41 8l46 -8l32 -12l8 -12l41 -19l17 -14l71 -27l13 -6l20 -12l23 -27l47 -24l35 -19l16 -82l-4 -32l-14 -29l-27 -19 l-16 5l-37 18l-25 6v-2l-8 2l-6 8l-2 6l-12 5h-9h-24l-29 14l-37 4l-39 20l-49 21l-61 8l-76 -20l-39 -27l-35 -20h-24h-9l-30 -21v2h-25l-39 -24l-10 -5l-29 19l-14 29l-4 32zM313 719l9 -8l12 -35l-6 -230l24 -34l-16 -31l57 -41l-6 -35l55 -47l72 -55l80 -4l12 -13h62 l39 25l59 18l63 39l25 37l39 70h8l-14 14l35 29v65l20 17v12l14 76l-14 112v60l10 69l-20 31v25l2 26l-21 33v29l-26 53l-58 57l-28 13v6l-29 35h-29l-14 12l-111 18l-75 -12l-41 -37h-17l-34 -35l-52 -28l-12 -23l-14 -80l-17 -8l-4 -59l-16 -31v-53l-14 -72h-9v-10z" />
<glyph unicode="&#xd5;" horiz-adv-x="1271" d="M47 788h8l33 123l4 45l8 19v18h6l21 43l-12 23l24 22l6 43l19 17v18l33 23v14l79 76v10l76 55h17l24 27l123 33l59 10h105l39 -16l78 -9l71 -20l64 -41l6 -21l35 -22l49 -41v-18l45 -29l27 -53l32 -29l15 -8l18 -19v-6l-24 -20l18 -15v-28l12 -13l-6 -51l27 -24l12 -41 l-12 -33l6 -62l20 -20l11 -51l-25 -35v-31l14 -12v-14l-14 -17l6 -35l8 -45l-20 -12v-43l-12 -10l6 -43l-27 -41l6 -6l-39 -94v-17l-63 -100l-6 -17l-60 -43l-6 -18l-24 -35l-93 -53l-34 -6l-58 -29l-90 -12l-6 -6l-111 6l-86 12l-77 23l-19 12h-41l-4 29l-65 43l-41 43 l-25 -5l-39 109l-4 4l-74 125v35l-18 18l6 13v18l-20 16l8 54l6 24l-14 10l-7 220zM162 1567l14 22l60 113l28 4l2 23l31 22l29 14l34 21l41 22l121 4l39 3l43 -5l12 -18l17 6l53 -37l19 -16l96 -23l10 -10l25 6l38 4h17l14 41l25 27l2 14l14 8l37 -8l31 -32l39 -17l24 -29 l6 -26l-20 -33l4 -16l-6 -13l-19 -8l-22 -51l-12 -10l-43 -41l-23 -21l-20 2l-19 -14l-47 -25l-22 7l-27 -15l-16 -10l-13 12l-30 -8l-76 23h-15l-6 16l-43 21h-18l-72 63l-53 4l-41 -8l-70 -23l-16 -18l-2 -21l-29 -53l-39 8l-53 31l-16 25l2 20l-27 6zM313 719l9 -8 l12 -35l-6 -230l24 -34l-16 -31l57 -41l-6 -35l55 -47l72 -55l80 -4l12 -13h62l39 25l59 18l63 39l25 37l39 70h8l-14 14l35 29v65l20 17v12l14 76l-14 112v60l10 69l-20 31v25l2 26l-21 33v29l-26 53l-58 57l-28 13v6l-29 35h-29l-14 12l-111 18l-75 -12l-41 -37h-17 l-34 -35l-52 -28l-12 -23l-14 -80l-17 -8l-4 -59l-16 -31v-53l-14 -72h-9v-10z" />
<glyph unicode="&#xd6;" horiz-adv-x="1271" d="M47 788h8l33 123l4 45l8 19v18h6l21 43l-12 23l24 22l6 43l19 17v18l33 23v14l79 76v10l76 55h17l24 27l123 33l59 10h105l39 -16l78 -9l71 -20l64 -41l6 -21l35 -22l49 -41v-18l45 -29l27 -53l32 -29l15 -8l18 -19v-6l-24 -20l18 -15v-28l12 -13l-6 -51l27 -24l12 -41 l-12 -33l6 -62l20 -20l11 -51l-25 -35v-31l14 -12v-14l-14 -17l6 -35l8 -45l-20 -12v-43l-12 -10l6 -43l-27 -41l6 -6l-39 -94v-17l-63 -100l-6 -17l-60 -43l-6 -18l-24 -35l-93 -53l-34 -6l-58 -29l-90 -12l-6 -6l-111 6l-86 12l-77 23l-19 12h-41l-4 29l-65 43l-41 43 l-25 -5l-39 109l-4 4l-74 125v35l-18 18l6 13v18l-20 16l8 54l6 24l-14 10l-7 220zM188 1636l7 45l51 72l35 27l47 -8l20 22h43l12 -14h43l37 -25l19 -31l8 -8l16 -51l13 -8l-9 -72l-20 -45l-4 -37l-31 -18l-39 -29l-22 27l-31 -27l-72 6l-8 6l-27 9l-53 36l-20 33l-8 31 l18 29l-18 28zM313 719l9 -8l12 -35l-6 -230l24 -34l-16 -31l57 -41l-6 -35l55 -47l72 -55l80 -4l12 -13h62l39 25l59 18l63 39l25 37l39 70h8l-14 14l35 29v65l20 17v12l14 76l-14 112v60l10 69l-20 31v25l2 26l-21 33v29l-26 53l-58 57l-28 13v6l-29 35h-29l-14 12 l-111 18l-75 -12l-41 -37h-17l-34 -35l-52 -28l-12 -23l-14 -80l-17 -8l-4 -59l-16 -31v-53l-14 -72h-9v-10zM735 1604l10 77l11 50l28 24h23l24 25l15 10l28 4h33l70 -14l20 -8l31 -27v-6l35 -37l10 -31l-14 -43l14 -43l-10 -6l-4 -37l-31 -35v-10l-27 -4l-10 -20l-14 -11 l-41 -2l-74 -6l-16 19l-39 20l-55 78z" />
<glyph unicode="&#xd8;" horiz-adv-x="1179" d="M16 -14l37 41l17 43l24 22l19 47l22 35v25l23 26l-62 119v35l-18 18l6 13v18l-18 16l8 54l4 24l-12 10l-7 220l-12 36h8l29 123l4 45l8 19v18h4l19 43l-10 23l22 22l6 43l17 17v18l28 23v14l74 76v10l68 55h16l22 27l111 33l55 10l52 6l43 -6l34 -16l72 -9l55 -20l15 27 v24l22 25v8l21 18v21l22 45l62 14l63 -18l51 -17v-10l13 -14l43 -41l-6 -66l-70 -71l-21 -70l-16 -10l6 -13l-16 -22l26 -55l29 -29l12 -8l19 -19v-6l-23 -20l17 -15v-28l10 -13l-4 -51l22 -24l13 -41l-13 -33l6 -62l19 -20l10 -51l-22 -35v-31l12 -12v-14l-12 -17l6 -35 l6 -45l-19 -12v-43l-10 -10l4 -43l-22 -41l4 -6l-35 -94v-17l-57 -100l-6 -17l-54 -43l-6 -18l-22 -35l-84 -53l-31 -6l-53 -29l-82 -12l-4 -6l-101 6l-79 12l-70 23l-17 12h-38l-2 29l-13 6l-47 -68l10 -20l-47 -49l-45 -7l-24 -4l-64 31l-14 -6l-53 24v25l-9 4v25z M303 573l21 -75l2 2l34 92l41 49l17 49h18l10 37l23 31l43 57l-4 19l29 24l22 43l39 90l25 70l10 29l20 22l-88 18l-61 -14l-37 -35h-10l-31 -34l-41 -29l-12 -25l-11 -78l-14 -8l-4 -59l-12 -31v-53l-10 -72h-9v-10l9 -8l2 -35zM442 276l37 -34l66 -4l12 -13h51l31 25 l49 18l51 39l23 37l33 70h4l-13 14l29 29v65l19 17v12l12 76l-12 37v59l6 70l-17 30v25l4 26l-16 33v27l-2 6l-39 -76l-20 -30l-39 -66l-19 -14v-35l-63 -82l-29 -74l-22 -41l-15 -35l-28 -26l-7 -31l-12 -31l-24 -22l-17 -49h-6z" />
<glyph unicode="&#xd9;" horiz-adv-x="1349" d="M14 1223l19 41l-6 24l-11 25l4 45v14l52 31l71 18l123 -20l72 4l61 -4l21 4l16 -10l127 8l74 -10l33 -15l14 -12v-12l-18 -19v-39l-9 -84l-12 -34l-24 -17l-78 -4l-4 -8l-56 -29v-10h-6l-18 -55l-4 -2l16 -33l10 -119l-4 -176l10 -31l-22 -53l12 -14l-10 -41l-4 -2l4 -9 l14 -47l-6 -6l14 -37l-8 -26l2 -8l-10 -23l6 -84l8 -39l-6 -29l35 -28l88 -47l29 8l14 -14l121 10l12 10l29 6l43 29l33 47l12 94l12 51l-4 90l-14 25l20 125l-6 68v30v17l2 49l8 16l-4 72v80l7 18l-9 23l-8 78l-16 18l-60 -6l-51 -6h-20l-23 37l-8 63l2 80l-12 35v24l35 31 l155 -2l17 -8l59 6l139 -2l123 12l49 -14h8l9 -10l-2 -17l36 -24l-6 -113l-12 -31l6 -28l-2 -13l-35 -16l-135 -8l-24 6l-23 -43v-29l2 -6l12 -25l-6 -40v-17l19 -39l-9 -141l13 -12l-6 -13l2 -135l6 -6h6v-18l-14 -11l12 -20l-19 -51l-4 -179l13 -32l-15 -54v-43l-10 -10 l-8 -35l-10 -14l-7 -37l-49 -31l-6 -24l-37 -23l-51 -51l-74 -47l-41 -6l-6 -6l-18 -8l-57 -13l-54 15l-94 2l-96 22l-90 37l-66 49l-12 29l-21 24l-41 72l-18 6l-10 11l8 116l-18 15l-7 49l-12 16l19 19l-5 69l-12 23l19 65l-5 23h-4l-6 102v35l10 64l3 6v18l-11 12l13 11 v18l-17 31l23 45l-8 100l10 27l-4 37v18l-29 29l-139 10l-39 25l-2 32zM334 1661l28 90l48 45l26 6l49 -8l13 2l39 -12l10 -12l53 -19l6 -16l86 -41l17 -4l20 -21l33 -18l55 -25l47 -18l31 -39l-6 -31l-23 -41l-37 -18l-14 4l-45 24h-33v-2l-12 2l-6 9l-2 6l-15 2l-10 2h-30 l-35 14h-43l-29 8l-102 23l-58 12l-45 47z" />
<glyph unicode="&#xda;" horiz-adv-x="1349" d="M14 1223l19 41l-6 24l-11 25l4 45v14l52 31l71 18l123 -20l72 4l61 -4l21 4l16 -10l127 8l74 -10l33 -15l14 -12v-12l-18 -19v-39l-9 -84l-12 -34l-24 -17l-78 -4l-4 -8l-56 -29v-10h-6l-18 -55l-4 -2l16 -33l10 -119l-4 -176l10 -31l-22 -53l12 -14l-10 -41l-4 -2l4 -9 l14 -47l-6 -6l14 -37l-8 -26l2 -8l-10 -23l6 -84l8 -39l-6 -29l35 -28l88 -47l29 8l14 -14l121 10l12 10l29 6l43 29l33 47l12 94l12 51l-4 90l-14 25l20 125l-6 68v30v17l2 49l8 16l-4 72v80l7 18l-9 23l-8 78l-16 18l-60 -6l-51 -6h-20l-23 37l-8 63l2 80l-12 35v24l35 31 l155 -2l17 -8l59 6l139 -2l123 12l49 -14h8l9 -10l-2 -17l36 -24l-6 -113l-12 -31l6 -28l-2 -13l-35 -16l-135 -8l-24 6l-23 -43v-29l2 -6l12 -25l-6 -40v-17l19 -39l-9 -141l13 -12l-6 -13l2 -135l6 -6h6v-18l-14 -11l12 -20l-19 -51l-4 -179l13 -32l-15 -54v-43l-10 -10 l-8 -35l-10 -14l-7 -37l-49 -31l-6 -24l-37 -23l-51 -51l-74 -47l-41 -6l-6 -6l-18 -8l-57 -13l-54 15l-94 2l-96 22l-90 37l-66 49l-12 29l-21 24l-41 72l-18 6l-10 11l8 116l-18 15l-7 49l-12 16l19 19l-5 69l-12 23l19 65l-5 23h-4l-6 102v35l10 64l3 6v18l-11 12l13 11 v18l-17 31l23 45l-8 100l10 27l-4 37v18l-29 29l-139 10l-39 25l-2 32zM436 1599l33 39l45 19l57 24l31 19l21 20l16 4l86 41l8 17l51 18l13 12l39 13l10 -2l49 8l27 -6l47 -45l28 -49l-6 -52l-16 -30l-14 -29l-31 -18l-58 -11l-102 -22l-31 -10h-43l-32 -15h-31l-10 2 l-15 -6l-2 -4l-8 -8l-10 -4v4h-35l-43 -27l-16 -4l-35 21l-4 38l-13 13z" />
<glyph unicode="&#xdb;" horiz-adv-x="1349" d="M14 1223l19 41l-6 24l-11 25l4 45v14l52 31l71 18l123 -20l72 4l61 -4l21 4l16 -10l127 8l74 -10l33 -15l14 -12v-12l-18 -19v-39l-9 -84l-12 -34l-24 -17l-78 -4l-4 -8l-56 -29v-10h-6l-18 -55l-4 -2l16 -33l10 -119l-4 -176l10 -31l-22 -53l12 -14l-10 -41l-4 -2l4 -9 l14 -47l-6 -6l14 -37l-8 -26l2 -8l-10 -23l6 -84l8 -39l-6 -29l35 -28l88 -47l29 8l14 -14l121 10l12 10l29 6l43 29l33 47l12 94l12 51l-4 90l-14 25l20 125l-6 68v30v17l2 49l8 16l-4 72v80l7 18l-9 23l-8 78l-16 18l-60 -6l-51 -6h-20l-23 37l-8 63l2 80l-12 35v24l35 31 l155 -2l17 -8l59 6l139 -2l123 12l49 -14h8l9 -10l-2 -17l36 -24l-6 -113l-12 -31l6 -28l-2 -13l-35 -16l-135 -8l-24 6l-23 -43v-29l2 -6l12 -25l-6 -40v-17l19 -39l-9 -141l13 -12l-6 -13l2 -135l6 -6h6v-18l-14 -11l12 -20l-19 -51l-4 -179l13 -32l-15 -54v-43l-10 -10 l-8 -35l-10 -14l-7 -37l-49 -31l-6 -24l-37 -23l-51 -51l-74 -47l-41 -6l-6 -6l-18 -8l-57 -13l-54 15l-94 2l-96 22l-90 37l-66 49l-12 29l-21 24l-41 72l-18 6l-10 11l8 116l-18 15l-7 49l-12 16l19 19l-5 69l-12 23l19 65l-5 23h-4l-6 102v35l10 64l3 6v18l-11 12l13 11 v18l-17 31l23 45l-8 100l10 27l-4 37v18l-29 29l-139 10l-39 25l-2 32zM289 1618l39 18l39 27l30 16l19 21l12 4l86 41l23 16l43 19l8 12l33 12l41 8l45 -8l32 -12l9 -12l40 -19l17 -14l72 -27l12 -6l20 -12l23 -27l47 -24l35 -19l16 -82l-4 -32l-14 -29l-27 -19l-16 5 l-37 18l-25 6v-2l-8 2l-6 8l-2 6l-12 5h-9h-24l-29 14l-37 4l-39 20l-49 21l-61 8l-76 -20l-39 -27l-35 -20h-24h-8l-31 -21v2h-25l-39 -24l-10 -5l-29 19l-14 29l-4 32z" />
<glyph unicode="&#xdc;" horiz-adv-x="1349" d="M14 1223l19 41l-6 24l-11 25l4 45v14l52 31l71 18l123 -20l72 4l61 -4l21 4l16 -10l127 8l74 -10l33 -15l14 -12v-12l-18 -19v-39l-9 -84l-12 -34l-24 -17l-78 -4l-4 -8l-56 -29v-10h-6l-18 -55l-4 -2l16 -33l10 -119l-4 -176l10 -31l-22 -53l12 -14l-10 -41l-4 -2l4 -9 l14 -47l-6 -6l14 -37l-8 -26l2 -8l-10 -23l6 -84l8 -39l-6 -29l35 -28l88 -47l29 8l14 -14l121 10l12 10l29 6l43 29l33 47l12 94l12 51l-4 90l-14 25l20 125l-6 68v30v17l2 49l8 16l-4 72v80l7 18l-9 23l-8 78l-16 18l-60 -6l-51 -6h-20l-23 37l-8 63l2 80l-12 35v24l35 31 l155 -2l17 -8l59 6l139 -2l123 12l49 -14h8l9 -10l-2 -17l36 -24l-6 -113l-12 -31l6 -28l-2 -13l-35 -16l-135 -8l-24 6l-23 -43v-29l2 -6l12 -25l-6 -40v-17l19 -39l-9 -141l13 -12l-6 -13l2 -135l6 -6h6v-18l-14 -11l12 -20l-19 -51l-4 -179l13 -32l-15 -54v-43l-10 -10 l-8 -35l-10 -14l-7 -37l-49 -31l-6 -24l-37 -23l-51 -51l-74 -47l-41 -6l-6 -6l-18 -8l-57 -13l-54 15l-94 2l-96 22l-90 37l-66 49l-12 29l-21 24l-41 72l-18 6l-10 11l8 116l-18 15l-7 49l-12 16l19 19l-5 69l-12 23l19 65l-5 23h-4l-6 102v35l10 64l3 6v18l-11 12l13 11 v18l-17 31l23 45l-8 100l10 27l-4 37v18l-29 29l-139 10l-39 25l-2 32zM225 1640l6 46l52 71l34 27l48 -8l20 22h43l12 -14h43l37 -25l19 -30l8 -9l16 -51l12 -8l-8 -72l-20 -45l-4 -37l-31 -18l-39 -29l-22 27l-31 -27l-72 6l-8 7l-27 8l-53 37l-20 32l-9 31l19 29l-19 28z M772 1608l10 78l11 49l28 24h23l24 25l15 10l28 4h33l70 -14l20 -8l31 -27v-6l35 -37l10 -31l-14 -43l14 -43l-10 -6l-4 -37l-31 -35v-10l-27 -4l-10 -20l-14 -11l-41 -2l-74 -6l-16 19l-39 20l-56 78z" />
<glyph unicode="&#xdd;" horiz-adv-x="1341" d="M4 1204h6l6 6l-12 25l12 10l-6 8v41l6 35l13 35l12 12l51 27l115 -6l155 4l203 -6l23 -13h14v-6l23 -12l18 -18l-6 -64l-6 -37l-13 -10l19 -31l-6 -41l-53 -26l-54 -15h-6l-6 6l-10 -18l-6 -16v-19l34 -47v-24l23 -21v-20l18 -13l13 -28l34 -35v-25l19 -22v-25l16 -24 l35 8l19 35l6 36l65 93l41 53v12h6l35 82l-6 27l-16 8l-101 -23l-24 6l-17 17l11 26v11l-5 6l11 12l-17 23l11 14l-11 41v41v27l41 40l47 25l125 -16l17 -9l35 15l63 -6l20 -13l23 13l160 8l94 -35l-12 -27l12 -12v-18l6 -6l-12 -11l6 -34l-12 -15v-18l-6 -4l12 -13v-34 l-12 -39l-23 -15l-35 19l-31 -13l-26 7l-31 -7l-31 -6l-18 -28v-19l-41 -71l6 -7l-18 -41h-4l-15 -10v-18l-28 -23l-7 -31h-6l-8 -34h-8l-12 -31l-23 -18l-18 -41l-31 -27l-10 -31v-6l10 -12l-35 -35l-16 -25v-16l-49 -59l18 -31l-29 -10l19 -72l-8 -82l-7 -41l-4 -27v-14 l11 -12h34l15 -10l65 10l43 -12l64 -2l39 -3v-18l12 -10l-10 -31l10 -24l-12 -52l4 -28l14 -15l-6 -22l-12 -23h-4l-7 -6v-14l-65 -10l-96 -9l-92 13l-66 -15l-27 6l-135 -6l-139 4l-4 -10l-43 6l-88 17l-19 12l-28 22l2 37l-11 56l5 22l-2 33l18 47l51 35l101 12l30 -12 l66 6l10 12v35l-10 12v29l16 25l-6 32v41v43l-6 29l-10 49l-41 45l-15 25v31l-45 51v18l-12 12v35l-25 29v25l-34 28l-35 35v25l-13 10l-34 84l-13 12l-4 53l-26 25l-86 4h-21v6l-51 21l-25 8l-6 53zM399 1583l33 39l45 18l58 25l30 18l21 21l16 4l86 41l8 16l52 19l12 12 l39 12l10 -2l49 9l27 -7l47 -45l29 -49l-7 -51l-16 -31l-14 -28l-31 -19l-57 -10l-103 -23l-31 -10h-43l-32 -14h-31l-10 2l-15 -6l-2 -4l-8 -9l-10 -4v4h-35l-43 -26l-16 -4l-35 20l-4 39l-12 12z" />
<glyph unicode="&#xdf;" horiz-adv-x="1396" d="M12 901v60l66 53l164 -4l55 -6h16l35 22l12 25l-6 34v54l25 80l59 79l45 52l25 8l41 26l72 15l75 16l60 8l78 7l98 -7l82 -30l45 -4l59 -48l43 -8l17 -33l47 -36l12 -11l8 -32v-17l19 -28l2 -19v-18l12 -11l-12 -49l12 -51l-12 -12l12 -23l-6 -37l-17 -57l-6 -6v-12h-12 l-29 -54l-84 -18l-24 -33v-10l88 -39l57 -61l31 -7l4 -18v-16l6 -7l37 -71l10 -58l19 -24l-9 -47l9 -31l-9 -65v-25l-6 6l-14 -24l6 -29l-24 -35l-9 -22l-8 -29l-41 -86l-96 -88l-41 -33l-78 -37l-59 -16l-99 4l-57 29v18l-24 18l2 23l6 22l-10 33l34 62l4 18l25 31l29 20 l49 33l59 8l41 41l23 39l20 156l-8 43l-12 8l-23 47h-14l-25 12l-80 6l-18 13l-45 8l-49 -8l-29 18l-33 15l-22 20v6l4 19l-23 28l-4 41l23 105l4 12l43 31l86 20l92 41l53 41l6 29l13 14v51l-37 43l-29 23l-55 16l-51 19q-1 0 -2 -0.5t-5 -1t-8.5 -1.5t-10 -2t-10.5 -1.5 t-10.5 -1.5t-9.5 -2t-7.5 -1.5t-4.5 -0.5l-2 -1l-12 13h-70l-35 -29h-12l-10 -16l-12 -15l-7 -41l-12 -28l-12 -19v-45v-43l-6 -31l4 -22l16 -55l-8 6l6 -21l-22 -41l10 -67l10 -35l-14 -19l8 -34l-4 -62l12 -80l-6 -75v-17l-6 -108l6 -4l25 -37l49 -6l16 -11l19 -18v-17 l18 -12l14 -28l-10 -54l10 -18l-4 -19v-6l-10 -12v-41l-18 -23l-84 -4l-33 -6l2 6l-35 13l-53 -13l-37 11l-76 -7l-182 -10l-49 10l-68 -10l-61 51l-4 35l12 47l-12 25l4 47v18h12l18 35v11l54 20l147 -8h29l41 12h12l18 41l-6 43l-6 80l-6 37v18l18 29l-18 94l12 60l6 34 v17l-36 18l-68 -4l-123 14l-43 -10l-37 12l-28 25l4 70h6v22l-10 31z" />
<glyph unicode="&#xe0;" horiz-adv-x="1320" d="M33 336l6 22l8 41l10 23l56 53v12l45 35l47 31l53 6l53 29l70 6l31 16l34 8l72 17l29 10l137 21l57 34l7 17l-3 28l3 25l-13 23l-41 18l-76 14l-22 4l-129 -10l-27 6l-6 -8l-16 -10l-78 -6l6 -31h-6l-12 -10l-4 -35l-13 -31l-12 -18l-78 -31l-63 8l-19 6l-16 41v35l-6 6 h-4v11h4l6 100l10 18l12 37l19 33l35 25l59 49l82 26l18 15l64 4l78 12l129 -12l57 -19l39 -4l47 -22l57 -21l50 -28l16 -17l41 -78h6l10 -36l13 -9l12 -55h12l-4 -45l4 -49v-47l-12 -41l14 -78l-8 -104l12 -37v-17l-6 -106l19 -10l6 -41l16 -15l12 -10h13l41 41l8 27l-8 32 l-25 74l12 33l50 22l51 -12l57 12l8 -6h17l14 -24l16 -17l-6 -8l10 -8v-19h-4l-14 -14l-6 -27l6 -30l-8 -10l8 -56l-8 -16v-25h-8l-17 -18v-33l-30 -49l-70 -47h-12l-13 -19l-123 -16l-77 12l-58 37l-30 21v12l-19 12l-10 12h-23l-59 -36l-80 -41l-92 -17l-78 -12l-147 6 h-23l-10 10l-78 13l-59 41l-29 6l-37 47l-41 84v16l-4 41zM154 1329l28 90l47 45l27 6l49 -8l12 2l39 -12l11 -12l53 -19l6 -16l86 -41l16 -4l21 -21l33 -18l55 -25l47 -18l31 -39l-6 -31l-23 -41l-37 -18l-14 4l-45 25h-33v-2l-12 2l-6 8l-2 6l-15 2l-10 2h-31l-35 14h-43 l-28 9l-103 22l-57 12l-45 47zM283 287l12 -66l4 -4l72 -22l75 -9l13 -12l22 -12l25 12l63 21l74 63l23 4l57 33l29 57v29l14 18l-31 35h-16l-41 6l-43 -18l-57 -16l-97 -7l-22 -18l-70 -4l-12 -12h-19l-41 -25l-30 -37z" />
<glyph unicode="&#xe1;" horiz-adv-x="1320" d="M33 336l6 22l8 41l10 23l56 53v12l45 35l47 31l53 6l53 29l70 6l31 16l34 8l72 17l29 10l137 21l57 34l7 17l-3 28l3 25l-13 23l-41 18l-76 14l-22 4l-129 -10l-27 6l-6 -8l-16 -10l-78 -6l6 -31h-6l-12 -10l-4 -35l-13 -31l-12 -18l-78 -31l-63 8l-19 6l-16 41v35l-6 6 h-4v11h4l6 100l10 18l12 37l19 33l35 25l59 49l82 26l18 15l64 4l78 12l129 -12l57 -19l39 -4l47 -22l57 -21l50 -28l16 -17l41 -78h6l10 -36l13 -9l12 -55h12l-4 -45l4 -49v-47l-12 -41l14 -78l-8 -104l12 -37v-17l-6 -106l19 -10l6 -41l16 -15l12 -10h13l41 41l8 27l-8 32 l-25 74l12 33l50 22l51 -12l57 12l8 -6h17l14 -24l16 -17l-6 -8l10 -8v-19h-4l-14 -14l-6 -27l6 -30l-8 -10l8 -56l-8 -16v-25h-8l-17 -18v-33l-30 -49l-70 -47h-12l-13 -19l-123 -16l-77 12l-58 37l-30 21v12l-19 12l-10 12h-23l-59 -36l-80 -41l-92 -17l-78 -12l-147 6 h-23l-10 10l-78 13l-59 41l-29 6l-37 47l-41 84v16l-4 41zM266 1239l33 39l45 18l57 25l31 18l21 21l16 4l86 41l8 16l51 19l13 12l39 12l10 -2l49 8l27 -6l47 -45l28 -49l-6 -51l-16 -31l-14 -28l-31 -19l-58 -10l-102 -23l-31 -10h-43l-32 -14h-31l-10 2l-15 -6l-2 -4 l-8 -9l-10 -4v4h-35l-43 -26l-16 -4l-35 20l-4 39l-13 12zM283 287l12 -66l4 -4l72 -22l75 -9l13 -12l22 -12l25 12l63 21l74 63l23 4l57 33l29 57v29l14 18l-31 35h-16l-41 6l-43 -18l-57 -16l-97 -7l-22 -18l-70 -4l-12 -12h-19l-41 -25l-30 -37z" />
<glyph unicode="&#xe2;" horiz-adv-x="1320" d="M33 336l6 22l8 41l10 23l56 53v12l45 35l47 31l53 6l53 29l70 6l31 16l34 8l72 17l29 10l137 21l57 34l7 17l-3 28l3 25l-13 23l-41 18l-76 14l-22 4l-129 -10l-27 6l-6 -8l-16 -10l-78 -6l6 -31h-6l-12 -10l-4 -35l-13 -31l-12 -18l-78 -31l-63 8l-19 6l-16 41v35l-6 6 h-4v11h4l6 100l10 18l12 37l19 33l35 25l59 49l82 26l18 15l64 4l78 12l129 -12l57 -19l39 -4l47 -22l57 -21l50 -28l16 -17l41 -78h6l10 -36l13 -9l12 -55h12l-4 -45l4 -49v-47l-12 -41l14 -78l-8 -104l12 -37v-17l-6 -106l19 -10l6 -41l16 -15l12 -10h13l41 41l8 27l-8 32 l-25 74l12 33l50 22l51 -12l57 12l8 -6h17l14 -24l16 -17l-6 -8l10 -8v-19h-4l-14 -14l-6 -27l6 -30l-8 -10l8 -56l-8 -16v-25h-8l-17 -18v-33l-30 -49l-70 -47h-12l-13 -19l-123 -16l-77 12l-58 37l-30 21v12l-19 12l-10 12h-23l-59 -36l-80 -41l-92 -17l-78 -12l-147 6 h-23l-10 10l-78 13l-59 41l-29 6l-37 47l-41 84v16l-4 41zM145 1278l39 18l39 27l31 16l18 21l13 4l86 41l22 16l43 19l8 12l33 12l41 9l45 -9l33 -12l8 -12l41 -19l17 -14l71 -27l12 -6l21 -12l22 -27l48 -24l34 -19l17 -82l-4 -32l-15 -29l-26 -19l-17 5l-37 18l-24 6v-2 l-8 2l-6 8l-2 7l-13 4h-8h-25l-28 14l-37 4l-39 21l-49 20l-62 8l-75 -20l-39 -27l-35 -20h-25h-8l-31 -21v2h-24l-39 -24l-10 -5l-29 19l-14 29l-4 32zM283 287l12 -66l4 -4l72 -22l75 -9l13 -12l22 -12l25 12l63 21l74 63l23 4l57 33l29 57v29l14 18l-31 35h-16l-41 6 l-43 -18l-57 -16l-97 -7l-22 -18l-70 -4l-12 -12h-19l-41 -25l-30 -37z" />
<glyph unicode="&#xe3;" horiz-adv-x="1320" d="M33 336l6 22l8 41l10 23l56 53v12l45 35l47 31l53 6l53 29l70 6l31 16l34 8l72 17l29 10l137 21l57 34l7 17l-3 28l3 25l-13 23l-41 18l-76 14l-22 4l-129 -10l-27 6l-6 -8l-16 -10l-78 -6l6 -31h-6l-12 -10l-4 -35l-13 -31l-12 -18l-78 -31l-63 8l-19 6l-16 41v35l-6 6 h-4v11h4l6 100l10 18l12 37l19 33l35 25l59 49l82 26l18 15l64 4l78 12l129 -12l57 -19l39 -4l47 -22l57 -21l50 -28l16 -17l41 -78h6l10 -36l13 -9l12 -55h12l-4 -45l4 -49v-47l-12 -41l14 -78l-8 -104l12 -37v-17l-6 -106l19 -10l6 -41l16 -15l12 -10h13l41 41l8 27l-8 32 l-25 74l12 33l50 22l51 -12l57 12l8 -6h17l14 -24l16 -17l-6 -8l10 -8v-19h-4l-14 -14l-6 -27l6 -30l-8 -10l8 -56l-8 -16v-25h-8l-17 -18v-33l-30 -49l-70 -47h-12l-13 -19l-123 -16l-77 12l-58 37l-30 21v12l-19 12l-10 12h-23l-59 -36l-80 -41l-92 -17l-78 -12l-147 6 h-23l-10 10l-78 13l-59 41l-29 6l-37 47l-41 84v16l-4 41zM66 1229l14 22l59 111l29 4l2 23l29 22l30 14l35 21l41 22l121 7l37 2l45 -7l12 -18l17 8l53 -37l16 -18l99 -23l10 -8l24 6l39 2h17l14 41l22 27l5 14l14 9l37 -9l31 -32l36 -15l27 -31l6 -24l-20 -35l4 -14 l-6 -13l-19 -8l-22 -53l-13 -8l-43 -41l-22 -21l-21 2l-18 -14l-47 -24l-23 4l-28 -15l-15 -8l-12 10l-31 -8l-76 23h-14l-6 18l-43 21h-18l-74 61l-51 4l-41 -6l-72 -23l-16 -18l-2 -20l-27 -56l-39 10l-55 29l-15 25l2 20l-28 8zM283 287l12 -66l4 -4l72 -22l75 -9l13 -12 l22 -12l25 12l63 21l74 63l23 4l57 33l29 57v29l14 18l-31 35h-16l-41 6l-43 -18l-57 -16l-97 -7l-22 -18l-70 -4l-12 -12h-19l-41 -25l-30 -37z" />
<glyph unicode="&#xe4;" horiz-adv-x="1320" d="M33 336l6 22l8 41l10 23l56 53v12l45 35l47 31l53 6l53 29l70 6l31 16l34 8l72 17l29 10l137 21l57 34l7 17l-3 28l3 25l-13 23l-41 18l-76 14l-22 4l-129 -10l-27 6l-6 -8l-16 -10l-78 -6l6 -31h-6l-12 -10l-4 -35l-13 -31l-12 -18l-78 -31l-63 8l-19 6l-16 41v35l-6 6 h-4v11h4l6 100l10 18l12 37l19 33l35 25l59 49l82 26l18 15l64 4l78 12l129 -12l57 -19l39 -4l47 -22l57 -21l50 -28l16 -17l41 -78h6l10 -36l13 -9l12 -55h12l-4 -45l4 -49v-47l-12 -41l14 -78l-8 -104l12 -37v-17l-6 -106l19 -10l6 -41l16 -15l12 -10h13l41 41l8 27l-8 32 l-25 74l12 33l50 22l51 -12l57 12l8 -6h17l14 -24l16 -17l-6 -8l10 -8v-19h-4l-14 -14l-6 -27l6 -30l-8 -10l8 -56l-8 -16v-25h-8l-17 -18v-33l-30 -49l-70 -47h-12l-13 -19l-123 -16l-77 12l-58 37l-30 21v12l-19 12l-10 12h-23l-59 -36l-80 -41l-92 -17l-78 -12l-147 6 h-23l-10 10l-78 13l-59 41l-29 6l-37 47l-41 84v16l-4 41zM88 1298l6 45l51 72l35 27l47 -8l21 22h43l12 -14h43l37 -25l18 -31l9 -8l16 -51l12 -8l-8 -72l-20 -45l-4 -37l-31 -18l-39 -29l-23 27l-30 -27l-72 6l-8 6l-27 9l-53 37l-21 32l-8 31l19 29l-19 28zM283 287 l12 -66l4 -4l72 -22l75 -9l13 -12l22 -12l25 12l63 21l74 63l23 4l57 33l29 57v29l14 18l-31 35h-16l-41 6l-43 -18l-57 -16l-97 -7l-22 -18l-70 -4l-12 -12h-19l-41 -25l-30 -37zM635 1266l10 77l10 50l29 24h23l24 25l14 10l29 4h33l70 -14l20 -8l31 -27v-6l35 -37l10 -31 l-15 -43l15 -43l-10 -6l-5 -37l-30 -35v-10l-27 -4l-10 -20l-14 -11l-41 -2l-74 -6l-17 19l-38 20l-56 78z" />
<glyph unicode="&#xe5;" horiz-adv-x="1320" d="M33 336l6 22l8 41l10 23l56 53v12l45 35l47 31l53 6l53 29l70 6l31 16l34 8l72 17l29 10l137 21l57 34l7 17l-3 28l3 25l-13 23l-41 18l-76 14l-22 4l-129 -10l-27 6l-6 -8l-16 -10l-78 -6l6 -31h-6l-12 -10l-4 -35l-13 -31l-12 -18l-78 -31l-63 8l-19 6l-16 41v35l-6 6 h-4v11h4l6 100l10 18l12 37l19 33l35 25l59 49l82 26l18 15l64 4l78 12l129 -12l57 -19l39 -4l47 -22l57 -21l50 -28l16 -17l41 -78h6l10 -36l13 -9l12 -55h12l-4 -45l4 -49v-47l-12 -41l14 -78l-8 -104l12 -37v-17l-6 -106l19 -10l6 -41l16 -15l12 -10h13l41 41l8 27l-8 32 l-25 74l12 33l50 22l51 -12l57 12l8 -6h17l14 -24l16 -17l-6 -8l10 -8v-19h-4l-14 -14l-6 -27l6 -30l-8 -10l8 -56l-8 -16v-25h-8l-17 -18v-33l-30 -49l-70 -47h-12l-13 -19l-123 -16l-77 12l-58 37l-30 21v12l-19 12l-10 12h-23l-59 -36l-80 -41l-92 -17l-78 -12l-147 6 h-23l-10 10l-78 13l-59 41l-29 6l-37 47l-41 84v16l-4 41zM283 287l12 -66l4 -4l72 -22l75 -9l13 -12l22 -12l25 12l63 21l74 63l23 4l57 33l29 57v29l14 18l-31 35h-16l-41 6l-43 -18l-57 -16l-97 -7l-22 -18l-70 -4l-12 -12h-19l-41 -25l-30 -37zM330 1317v49l8 43l8 16 l10 23l33 53l41 35l64 25l18 6h57l25 -11l39 -6l41 -8l24 -24l35 -33l10 -21l15 -39l6 -4l6 -22l8 -31l-8 -33l-6 -43l-6 -8l-4 -31l-15 -24l-16 -27l-8 -10l-29 -18l-29 -23l-12 -2l-29 -12l-43 -9l-26 11l-6 -11l-86 5l-19 18l-16 2l-25 23l-30 32l-15 39l-14 45z M461 1343l8 -47l6 -10l19 -16l30 -13h17l47 13l20 10l10 8l19 31l14 18l-4 25l-12 24l-2 17l-19 14l-26 13l-58 2l-16 -9l-18 -4l-21 -22l-8 -21z" />
<glyph unicode="&#xe6;" horiz-adv-x="1548" d="M53 330l15 22l4 41l10 25l45 57v12l37 35l37 31l43 6l43 29l55 6l25 16l28 8l58 17l22 10l109 21l47 34l6 17l8 28l-8 25l-12 23l-31 18l-62 14l-73 13l-68 -13l-6 -8l-14 -10l-39 -12l-17 -25h-4l-12 -10l-2 -39l-8 -35l-10 -20l-113 -21l-51 8l-15 6l-12 41l-16 60 l16 92l8 18l10 37l27 33l37 35l51 39l90 26l13 15l53 4l61 12l105 -12l43 -19l30 -4l39 -22l47 -21l39 -28l13 -17l4 -12l14 16l37 33l41 25l14 16l56 27l55 10l18 8l21 -6h65l47 -8l84 -31h31l98 -96l21 -6l4 -19l39 -67l10 -13l21 -24l4 -25l8 -10l-2 -8l29 -51l8 -101 l-8 -59l8 -6v-56l-4 -4v-14l-33 -25l-123 9l-29 10h-69l-136 6l-16 -8l-22 12l-127 2l-58 -6l-30 -25l-9 -8v-28l9 -37v-17v-14l12 -21l24 -20l15 -41l8 -14l25 -6l38 -41l56 -13l118 8l15 11l39 6l39 24l59 72l18 37l46 18l24 13l41 12l27 -12l35 -13h4l10 -49l-10 -41 l-25 -43l-6 -35l-27 -51h-6l-31 -55l-32 -29v-12l-29 -12l-14 -19l-68 -30l-10 -13l-180 -30l-68 8l-82 28h-27v7l-53 30l-28 23l-23 14l-10 19l-31 16v10l-82 -49l-29 -18l-135 -58l-63 -12l-119 6h-18l-7 10l-61 13l-55 45l-25 8l-27 47l-34 78v16l-9 35zM295 297l8 -64 l4 -4l39 -39l35 -8l27 11v-11l16 -12l22 12l56 21l71 49l21 4l51 98v4l-14 52v39h-13l-34 8l-33 -19l-43 -10l-82 -22l-18 -17l-48 -10l-8 -12h-14l-19 -15l-22 -37zM870 686l33 -12l168 -6l115 -2l43 20l4 43l-23 37l-6 18h-8l-16 13l-60 28l-61 13l-78 -19l-35 -22l-28 -9 l-29 -18l-19 -41l13 -22z" />
<glyph unicode="&#xe7;" horiz-adv-x="1130" d="M82 580v16l10 12l6 41l35 117l10 18v11l41 57l37 55l37 15l31 30l41 27l67 29l131 34h31l39 2l137 -12l72 -31l12 -10h17l34 -24l50 -31h10l33 -37l20 -49l18 -25l21 -49l20 -74l-6 -8l6 -6v-26l-18 -31v-25l-18 -63l-58 -49l-106 -17h-29l-53 2l-53 39l-29 33l2 33 l-8 34v19l10 10l-6 6l29 31l2 35l16 24l-10 17l-13 10l-53 8l-31 6h-16l-84 -16l-94 -41l-37 -80l-14 -20l-2 -17l-13 -63l-4 -152l31 -41l-10 -43l37 -30l18 -17l64 -28l22 -23l51 -12l58 12l65 27l66 41l45 55l6 18l22 17l84 -6l19 -11l18 19l76 -15l18 -12l23 -24 l-12 -17l6 -29l6 -36l-31 -35l-14 -33l12 -27l-98 -98l-60 -37l-116 -41l-49 -2l-29 -16l-31 4l4 -25l-18 -30l8 -33l33 -27l26 -12l41 -47l5 -76l-19 -70l-45 -41l-49 -49l-51 -14l-56 -4l-49 -8l-26 16l-52 -8l-36 14v13l-31 -5l-19 37l-41 19l13 90l24 18l13 31l55 -16 l74 -41l26 22l13 55l-37 35l-25 45l6 27l80 33l12 28l-28 15l-29 2l-47 28l-35 -4l-41 33l-24 -6l-21 27l-16 4l-19 16l-41 45h-12l-47 62l-23 28l-6 33l-37 74l-16 24l6 115h4v33l-12 78v28z" />
<glyph unicode="&#xe8;" horiz-adv-x="1218" d="M55 510v18l15 13l-15 18l8 43l17 84l33 62v10h4l41 86l39 24l36 62l23 22l49 33l51 25l17 16l67 27l72 10l23 8l26 -6h82l57 -8l105 -31h41l121 -96l24 -6l6 -19l50 -67l10 -13l26 -24l7 -25l10 -10l-4 -8l37 -51l10 -101l-10 -43l10 -22l12 -29l-12 -27l-6 -4v-14 l-41 -25l-154 9l-35 10h-86l-170 6l-20 -8l-29 12l-94 -10l-64 12l-71 -6l-37 -25l-19 -12l-18 -16l18 -56l31 -41l31 -20l18 -41l13 -14l30 -6l47 -41l68 -13l152 8l18 11l47 6l49 24l74 72l25 37l53 18l33 13l38 -15l46 15l43 -13h4l14 -49l-14 -41l-29 -43l-8 -35 l-35 -51h-8l-35 -55l-43 -29v-12l-37 -12l-16 -19l-86 -30l-11 -13l-225 -30l-86 8l-102 28h-33v7l-66 30l-36 23l-29 14l-14 19l-37 16l-4 18l-50 56l-6 49l-35 49l7 4l-25 57l-12 29l6 6l-19 43l11 72zM260 1329l29 90l47 45l26 6l50 -8l12 2l39 -12l10 -12l53 -19l6 -16 l86 -41l17 -4l20 -21l33 -18l55 -25l48 -18l30 -39l-6 -31l-22 -41l-37 -18l-15 4l-45 25h-32v-2l-13 2l-6 8l-2 6l-14 2l-11 2h-30l-35 14h-43l-29 9l-102 22l-57 12l-46 47zM379 686l41 -12l219 12l147 -20l54 20l6 43l-31 37l-6 18h-12l-17 13l-73 28l-91 13l-98 -19 l-43 -22l-35 -9l-39 -18l-22 -41l12 -22z" />
<glyph unicode="&#xe9;" horiz-adv-x="1218" d="M55 510v18l15 13l-15 18l8 43l17 84l33 62v10h4l41 86l39 24l36 62l23 22l49 33l51 25l17 16l67 27l72 10l23 8l26 -6h82l57 -8l105 -31h41l121 -96l24 -6l6 -19l50 -67l10 -13l26 -24l7 -25l10 -10l-4 -8l37 -51l10 -101l-10 -43l10 -22l12 -29l-12 -27l-6 -4v-14 l-41 -25l-154 9l-35 10h-86l-170 6l-20 -8l-29 12l-94 -10l-64 12l-71 -6l-37 -25l-19 -12l-18 -16l18 -56l31 -41l31 -20l18 -41l13 -14l30 -6l47 -41l68 -13l152 8l18 11l47 6l49 24l74 72l25 37l53 18l33 13l38 -15l46 15l43 -13h4l14 -49l-14 -41l-29 -43l-8 -35 l-35 -51h-8l-35 -55l-43 -29v-12l-37 -12l-16 -19l-86 -30l-11 -13l-225 -30l-86 8l-102 28h-33v7l-66 30l-36 23l-29 14l-14 19l-37 16l-4 18l-50 56l-6 49l-35 49l7 4l-25 57l-12 29l6 6l-19 43l11 72zM379 686l41 -12l219 12l147 -20l54 20l6 43l-31 37l-6 18h-12l-17 13 l-73 28l-91 13l-98 -19l-43 -22l-35 -9l-39 -18l-22 -41l12 -22zM399 1239l33 39l45 18l58 25l30 18l21 21l16 4l86 41l8 16l52 19l12 12l39 12l10 -2l49 8l27 -6l47 -45l29 -49l-7 -51l-16 -31l-14 -28l-31 -19l-57 -10l-103 -23l-31 -10h-43l-32 -14h-31l-10 2l-15 -6 l-2 -4l-8 -9l-10 -4v4h-35l-43 -26l-16 -4l-35 20l-4 39l-12 12z" />
<glyph unicode="&#xea;" horiz-adv-x="1218" d="M55 510v18l15 13l-15 18l8 43l17 84l33 62v10h4l41 86l39 24l36 62l23 22l49 33l51 25l17 16l67 27l72 10l23 8l26 -6h82l57 -8l105 -31h41l121 -96l24 -6l6 -19l50 -67l10 -13l26 -24l7 -25l10 -10l-4 -8l37 -51l10 -101l-10 -43l10 -22l12 -29l-12 -27l-6 -4v-14 l-41 -25l-154 9l-35 10h-86l-170 6l-20 -8l-29 12l-94 -10l-64 12l-71 -6l-37 -25l-19 -12l-18 -16l18 -56l31 -41l31 -20l18 -41l13 -14l30 -6l47 -41l68 -13l152 8l18 11l47 6l49 24l74 72l25 37l53 18l33 13l38 -15l46 15l43 -13h4l14 -49l-14 -41l-29 -43l-8 -35 l-35 -51h-8l-35 -55l-43 -29v-12l-37 -12l-16 -19l-86 -30l-11 -13l-225 -30l-86 8l-102 28h-33v7l-66 30l-36 23l-29 14l-14 19l-37 16l-4 18l-50 56l-6 49l-35 49l7 4l-25 57l-12 29l6 6l-19 43l11 72zM240 1278l39 18l38 27l31 16l19 21l12 4l86 41l22 16l43 19l9 12 l32 12l41 9l45 -9l33 -12l8 -12l41 -19l17 -14l71 -27l13 -6l20 -12l23 -27l47 -24l35 -19l16 -82l-4 -32l-14 -29l-27 -19l-16 5l-37 18l-25 6v-2l-8 2l-6 8l-2 7l-13 4h-8h-24l-29 14l-37 4l-39 21l-49 20l-61 8l-76 -20l-39 -27l-35 -20h-24h-9l-30 -21v2h-25l-39 -24 l-10 -5l-29 19l-14 29l-4 32zM379 686l41 -12l219 12l147 -20l54 20l6 43l-31 37l-6 18h-12l-17 13l-73 28l-91 13l-98 -19l-43 -22l-35 -9l-39 -18l-22 -41l12 -22z" />
<glyph unicode="&#xeb;" horiz-adv-x="1218" d="M55 510v18l15 13l-15 18l8 43l17 84l33 62v10h4l41 86l39 24l36 62l23 22l49 33l51 25l17 16l67 27l72 10l23 8l26 -6h82l57 -8l105 -31h41l121 -96l24 -6l6 -19l50 -67l10 -13l26 -24l7 -25l10 -10l-4 -8l37 -51l10 -101l-10 -43l10 -22l12 -29l-12 -27l-6 -4v-14 l-41 -25l-154 9l-35 10h-86l-170 6l-20 -8l-29 12l-94 -10l-64 12l-71 -6l-37 -25l-19 -12l-18 -16l18 -56l31 -41l31 -20l18 -41l13 -14l30 -6l47 -41l68 -13l152 8l18 11l47 6l49 24l74 72l25 37l53 18l33 13l38 -15l46 15l43 -13h4l14 -49l-14 -41l-29 -43l-8 -35 l-35 -51h-8l-35 -55l-43 -29v-12l-37 -12l-16 -19l-86 -30l-11 -13l-225 -30l-86 8l-102 28h-33v7l-66 30l-36 23l-29 14l-14 19l-37 16l-4 18l-50 56l-6 49l-35 49l7 4l-25 57l-12 29l6 6l-19 43l11 72zM156 1300l6 46l51 71l35 27l47 -8l20 22h43l13 -14h43l37 -25l18 -30 l8 -9l17 -51l12 -8l-8 -72l-21 -45l-4 -37l-31 -18l-39 -29l-22 27l-31 -27l-71 6l-9 7l-26 8l-54 37l-20 32l-8 31l18 29l-18 28zM379 686l41 -12l219 12l147 -20l54 20l6 43l-31 37l-6 18h-12l-17 13l-73 28l-91 13l-98 -19l-43 -22l-35 -9l-39 -18l-22 -41l12 -22z M702 1268l11 78l10 49l29 24h22l25 25l14 10l29 4h32l70 -14l21 -8l30 -27v-6l35 -37l10 -31l-14 -43l14 -43l-10 -6l-4 -37l-31 -35v-10l-26 -4l-11 -20l-14 -11l-41 -2l-74 -6l-16 19l-39 20l-55 78z" />
<glyph unicode="&#xec;" horiz-adv-x="933" d="M25 70l6 10v33l8 49v35l35 43l49 22l100 -18l123 12l31 35l-12 71l18 84l-18 7l14 61l-14 49l12 31l-10 65l10 23l-4 25l4 20l-21 18l-28 7l-127 -13l-90 9l-54 57l19 39l-17 24l9 56l-11 51l41 37l13 4l55 6l51 -6l12 -12l13 10l28 -2l58 -6l84 -7h6l12 13l10 -13 l64 -10l8 4l51 -18l58 -17l16 -57l-16 -61l-17 -17l17 -18l8 -12l-17 -60v-65l-16 -27l16 -61v-35l-30 -45v-6l14 -13l-8 -90l-17 -57l11 -53l14 -25l33 -23l57 9l131 -9l17 -12l61 -6l-4 -47l10 -14l12 -68l-12 -16l-6 -74l-29 -25h-12l-4 -4l-72 -12l-125 12l-49 4l-8 -8 l-76 8l-117 4h-34l-15 -14l-24 12l-127 11l-33 -17h-64l-59 29l-16 59zM68 1329l28 90l47 45l27 6l49 -8l12 2l39 -12l11 -12l53 -19l6 -16l86 -41l16 -4l21 -21l33 -18l55 -25l47 -18l31 -39l-6 -31l-23 -41l-37 -18l-14 4l-45 25h-33v-2l-12 2l-6 8l-2 6l-15 2l-10 2h-31 l-35 14h-43l-28 9l-103 22l-57 12l-45 47z" />
<glyph unicode="&#xed;" horiz-adv-x="933" d="M25 70l6 10v33l8 49v35l35 43l49 22l100 -18l123 12l31 35l-12 71l18 84l-18 7l14 61l-14 49l12 31l-10 65l10 23l-4 25l4 20l-21 18l-28 7l-127 -13l-90 9l-54 57l19 39l-17 24l9 56l-11 51l41 37l13 4l55 6l51 -6l12 -12l13 10l28 -2l58 -6l84 -7h6l12 13l10 -13 l64 -10l8 4l51 -18l58 -17l16 -57l-16 -61l-17 -17l17 -18l8 -12l-17 -60v-65l-16 -27l16 -61v-35l-30 -45v-6l14 -13l-8 -90l-17 -57l11 -53l14 -25l33 -23l57 9l131 -9l17 -12l61 -6l-4 -47l10 -14l12 -68l-12 -16l-6 -74l-29 -25h-12l-4 -4l-72 -12l-125 12l-49 4l-8 -8 l-76 8l-117 4h-34l-15 -14l-24 12l-127 11l-33 -17h-64l-59 29l-16 59zM242 1241l32 39l45 18l58 25l31 18l20 21l16 4l86 41l9 16l51 19l12 12l39 12l10 -2l49 9l27 -7l47 -45l29 -49l-6 -51l-17 -31l-14 -28l-31 -19l-57 -10l-103 -23l-30 -10h-43l-33 -14h-31l-10 2 l-14 -6l-2 -4l-9 -9l-10 -4v4h-35l-43 -26l-16 -4l-35 20l-4 39l-12 12z" />
<glyph unicode="&#xee;" horiz-adv-x="933" d="M25 70l6 10v33l8 49v35l35 43l49 22l100 -18l123 12l31 35l-12 71l18 84l-18 7l14 61l-14 49l12 31l-10 65l10 23l-4 25l4 20l-21 18l-28 7l-127 -13l-90 9l-54 57l19 39l-17 24l9 56l-11 51l41 37l13 4l55 6l51 -6l12 -12l13 10l28 -2l58 -6l84 -7h6l12 13l10 -13 l64 -10l8 4l51 -18l58 -17l16 -57l-16 -61l-17 -17l17 -18l8 -12l-17 -60v-65l-16 -27l16 -61v-35l-30 -45v-6l14 -13l-8 -90l-17 -57l11 -53l14 -25l33 -23l57 9l131 -9l17 -12l61 -6l-4 -47l10 -14l12 -68l-12 -16l-6 -74l-29 -25h-12l-4 -4l-72 -12l-125 12l-49 4l-8 -8 l-76 8l-117 4h-34l-15 -14l-24 12l-127 11l-33 -17h-64l-59 29l-16 59zM68 1278l38 18l39 27l31 16l19 21l12 4l86 41l22 16l43 19l9 12l32 12l41 9l45 -9l33 -12l8 -12l41 -19l17 -14l71 -27l13 -6l20 -12l23 -27l47 -24l35 -19l16 -82l-4 -32l-14 -29l-27 -19l-16 5 l-37 18l-25 6v-2l-8 2l-6 8l-2 7l-13 4h-8h-24l-29 14l-37 4l-39 21l-49 20l-61 8l-76 -20l-39 -27l-35 -20h-24h-9l-30 -21v2h-25l-39 -24l-10 -5l-29 19l-14 29l-4 32z" />
<glyph unicode="&#xef;" horiz-adv-x="933" d="M-27 1300l7 46l51 71l35 27l47 -8l20 22h43l12 -14h43l37 -25l19 -30l8 -9l16 -51l13 -8l-9 -72l-20 -45l-4 -37l-31 -18l-39 -29l-22 27l-31 -27l-72 6l-8 7l-27 8l-53 37l-20 32l-8 31l18 29l-18 28zM25 70l6 10v33l8 49v35l35 43l49 22l100 -18l123 12l31 35l-12 71 l18 84l-18 7l14 61l-14 49l12 31l-10 65l10 23l-4 25l4 20l-21 18l-28 7l-127 -13l-90 9l-54 57l19 39l-17 24l9 56l-11 51l41 37l13 4l55 6l51 -6l12 -12l13 10l28 -2l58 -6l84 -7h6l12 13l10 -13l64 -10l8 4l51 -18l58 -17l16 -57l-16 -61l-17 -17l17 -18l8 -12l-17 -60 v-65l-16 -27l16 -61v-35l-30 -45v-6l14 -13l-8 -90l-17 -57l11 -53l14 -25l33 -23l57 9l131 -9l17 -12l61 -6l-4 -47l10 -14l12 -68l-12 -16l-6 -74l-29 -25h-12l-4 -4l-72 -12l-125 12l-49 4l-8 -8l-76 8l-117 4h-34l-15 -14l-24 12l-127 11l-33 -17h-64l-59 29l-16 59z M520 1268l10 78l11 49l28 24h23l24 25l15 10l28 4h33l70 -14l20 -8l31 -27v-6l35 -37l10 -31l-14 -43l14 -43l-10 -6l-4 -37l-31 -35v-10l-27 -4l-10 -20l-14 -11l-41 -2l-74 -6l-16 19l-39 20l-55 78z" />
<glyph unicode="&#xf1;" d="M2 944l16 47l41 29l56 12l59 -6l133 -6l72 -10h12l12 -49v-11l13 -14l65 31l4 6l66 43l33 4l73 37l70 10l31 6l94 -31l63 -16l37 -12l35 -19l78 -94l35 -74l12 -49l14 -12l-4 -70l13 -12l-9 -106l9 -177l-11 -47l6 -59l27 -25l35 -8l53 -22l19 6l4 -4l-2 -15l26 -32 l-4 -41l-6 -54l6 -75l-28 -33l-39 -17l-11 -10l-88 4l-47 15l-88 -15l-65 15l-156 -7l-16 7l-7 18l-20 2l-14 6l-9 15l13 16l12 55l-25 62v55l5 4v12l43 31l26 10l82 6l25 29l-7 166l-10 31v18l10 10l-10 70l10 41l-10 43l-8 51l-39 37l-90 8l-45 -32l-59 -17l-31 2l-70 -55 l-37 -16v-15l-41 -47v-10l-12 -12l19 -72l-7 -35l-12 -16l21 -19l-9 -98l-12 -14l19 -41l59 -29l100 -8l31 -10l16 -19l-6 -43l11 -55l-17 -51l-4 -68l-59 -16l-88 -9l-74 5l-27 8l-63 -8l-39 8l-47 -4l-41 -15h-41h-76l-41 15l-20 51l4 41l14 14l-10 98l28 54l66 12h51 l49 47v16l-16 25l-12 174l4 21l-4 77l12 82l4 17l-18 22l-140 8l-24 17l-19 76l6 92zM223 1235l15 20l53 101l26 4l2 18l25 21l27 12l32 19l37 20l109 6l35 2l39 -6l10 -16l16 8l43 -41l17 -17l96 -22l10 -6l21 4l24 6h14l17 43l22 25l2 12l13 8l45 -12l28 -29l35 -12 l23 -27l4 -24l-19 -31l5 -12l-7 -13l-16 -6l-20 -47l-11 -8l-39 -51l-20 -19l-18 2l-17 -12l-43 -22l-20 4l-25 -13l-12 -8l-13 10l-26 -8l-78 23h-14l-4 16l-39 19h-19l-61 53l-47 4l-37 -6l-57 -27l-15 -16l-2 -19l-27 -32l-34 8l-58 33l-12 22l2 16l-24 7z" />
<glyph unicode="&#xf2;" horiz-adv-x="1224" d="M47 479l4 23l6 41l11 106l14 13v34l33 47l8 35l16 19l6 22l19 12l31 41l104 97l41 22l106 29l15 12l45 12l141 -8l76 -16l88 -10l107 -37l12 -23l53 -37l12 -10v-24l66 -48h6l10 -43l19 -4l22 -24l6 -70l19 -12l18 -53v-45l17 -25l-15 -100l-16 -101l-17 -18l-12 -82 l-35 -53v-13l-36 -41v-16l-29 -31l-60 -53h-8l-67 -51l-33 -6l-80 -33l-98 -16l-90 10l-17 -8l-170 10l-24 -4l-54 47l-36 2l-45 49l-21 6l-76 82l-41 101l-10 14l-6 57v17l-16 24l-15 60l6 22v25zM256 1329l29 90l47 45l26 6l50 -8l12 2l39 -12l10 -12l53 -19l6 -16l86 -41 l17 -4l20 -21l33 -18l55 -25l47 -18l31 -39l-6 -31l-23 -41l-36 -18l-15 4l-45 25h-33v-2l-12 2l-6 8l-2 6l-14 2l-11 2h-30l-35 14h-43l-29 9l-102 22l-58 12l-45 47zM322 487l14 -98l10 -53l25 -23v-14l47 -45l45 -18l55 -19l45 -6l119 18l31 25l63 29l35 30l59 76l7 29 l16 20v17l8 6h6v10l-6 8l-8 64l-16 28v25l-11 16l-6 9l-8 41l-59 45l-74 41l-184 8l-29 -13l-6 -6h-23l-41 -22v-15l-65 -57v-14l-25 -23v-18l-10 -8l-8 -93h-6z" />
<glyph unicode="&#xf3;" horiz-adv-x="1224" d="M47 479l4 23l6 41l11 106l14 13v34l33 47l8 35l16 19l6 22l19 12l31 41l104 97l41 22l106 29l15 12l45 12l141 -8l76 -16l88 -10l107 -37l12 -23l53 -37l12 -10v-24l66 -48h6l10 -43l19 -4l22 -24l6 -70l19 -12l18 -53v-45l17 -25l-15 -100l-16 -101l-17 -18l-12 -82 l-35 -53v-13l-36 -41v-16l-29 -31l-60 -53h-8l-67 -51l-33 -6l-80 -33l-98 -16l-90 10l-17 -8l-170 10l-24 -4l-54 47l-36 2l-45 49l-21 6l-76 82l-41 101l-10 14l-6 57v17l-16 24l-15 60l6 22v25zM322 487l14 -98l10 -53l25 -23v-14l47 -45l45 -18l55 -19l45 -6l119 18 l31 25l63 29l35 30l59 76l7 29l16 20v17l8 6h6v10l-6 8l-8 64l-16 28v25l-11 16l-6 9l-8 41l-59 45l-74 41l-184 8l-29 -13l-6 -6h-23l-41 -22v-15l-65 -57v-14l-25 -23v-18l-10 -8l-8 -93h-6zM432 1239l33 39l45 18l57 25l31 18l20 21l17 4l86 41l8 16l51 19l13 12l38 12 l11 -2l49 8l27 -6l47 -45l28 -49l-6 -51l-16 -31l-15 -28l-30 -19l-58 -10l-102 -23l-31 -10h-43l-33 -14h-30l-11 2l-14 -6l-2 -4l-8 -9l-10 -4v4h-35l-43 -26l-17 -4l-34 20l-4 39l-13 12z" />
<glyph unicode="&#xf4;" horiz-adv-x="1224" d="M47 479l4 23l6 41l11 106l14 13v34l33 47l8 35l16 19l6 22l19 12l31 41l104 97l41 22l106 29l15 12l45 12l141 -8l76 -16l88 -10l107 -37l12 -23l53 -37l12 -10v-24l66 -48h6l10 -43l19 -4l22 -24l6 -70l19 -12l18 -53v-45l17 -25l-15 -100l-16 -101l-17 -18l-12 -82 l-35 -53v-13l-36 -41v-16l-29 -31l-60 -53h-8l-67 -51l-33 -6l-80 -33l-98 -16l-90 10l-17 -8l-170 10l-24 -4l-54 47l-36 2l-45 49l-21 6l-76 82l-41 101l-10 14l-6 57v17l-16 24l-15 60l6 22v25zM244 1278l39 18l39 27l30 16l19 21l12 4l86 41l23 16l43 19l8 12l32 12 l41 9l46 -9l32 -12l8 -12l41 -19l17 -14l71 -27l13 -6l20 -12l23 -27l47 -24l35 -19l16 -82l-4 -32l-14 -29l-27 -19l-16 5l-37 18l-25 6v-2l-8 2l-6 8l-2 7l-12 4h-9h-24l-29 14l-37 4l-39 21l-49 20l-61 8l-76 -20l-39 -27l-35 -20h-24h-9l-30 -21v2h-25l-39 -24l-10 -5 l-29 19l-14 29l-4 32zM322 487l14 -98l10 -53l25 -23v-14l47 -45l45 -18l55 -19l45 -6l119 18l31 25l63 29l35 30l59 76l7 29l16 20v17l8 6h6v10l-6 8l-8 64l-16 28v25l-11 16l-6 9l-8 41l-59 45l-74 41l-184 8l-29 -13l-6 -6h-23l-41 -22v-15l-65 -57v-14l-25 -23v-18 l-10 -8l-8 -93h-6z" />
<glyph unicode="&#xf5;" horiz-adv-x="1224" d="M47 479l4 23l6 41l11 106l14 13v34l33 47l8 35l16 19l6 22l19 12l31 41l104 97l41 22l106 29l15 12l45 12l141 -8l76 -16l88 -10l107 -37l12 -23l53 -37l12 -10v-24l66 -48h6l10 -43l19 -4l22 -24l6 -70l19 -12l18 -53v-45l17 -25l-15 -100l-16 -101l-17 -18l-12 -82 l-35 -53v-13l-36 -41v-16l-29 -31l-60 -53h-8l-67 -51l-33 -6l-80 -33l-98 -16l-90 10l-17 -8l-170 10l-24 -4l-54 47l-36 2l-45 49l-21 6l-76 82l-41 101l-10 14l-6 57v17l-16 24l-15 60l6 22v25zM174 1235l14 20l54 101l26 4l2 18l25 21l27 12l32 19l37 20l109 6l35 2 l38 -6l11 -16l16 8l43 -41l16 -17l97 -22l10 -6l20 4l25 6h14l17 43l22 25l2 12l13 8l45 -12l28 -29l35 -12l23 -27l4 -24l-19 -31l4 -12l-6 -13l-16 -6l-21 -47l-10 -8l-39 -51l-20 -19l-19 2l-16 -12l-43 -22l-21 4l-24 -13l-12 -8l-13 10l-26 -8l-78 23h-14l-5 16l-38 19 h-19l-61 53l-47 4l-37 -6l-58 -27l-14 -16l-2 -19l-27 -32l-34 8l-58 33l-12 22l2 16l-25 7zM322 487l14 -98l10 -53l25 -23v-14l47 -45l45 -18l55 -19l45 -6l119 18l31 25l63 29l35 30l59 76l7 29l16 20v17l8 6h6v10l-6 8l-8 64l-16 28v25l-11 16l-6 9l-8 41l-59 45l-74 41 l-184 8l-29 -13l-6 -6h-23l-41 -22v-15l-65 -57v-14l-25 -23v-18l-10 -8l-8 -93h-6z" />
<glyph unicode="&#xf6;" horiz-adv-x="1224" d="M47 479l4 23l6 41l11 106l14 13v34l33 47l8 35l16 19l6 22l19 12l31 41l104 97l41 22l106 29l15 12l45 12l141 -8l76 -16l88 -10l107 -37l12 -23l53 -37l12 -10v-24l66 -48h6l10 -43l19 -4l22 -24l6 -70l19 -12l18 -53v-45l17 -25l-15 -100l-16 -101l-17 -18l-12 -82 l-35 -53v-13l-36 -41v-16l-29 -31l-60 -53h-8l-67 -51l-33 -6l-80 -33l-98 -16l-90 10l-17 -8l-170 10l-24 -4l-54 47l-36 2l-45 49l-21 6l-76 82l-41 101l-10 14l-6 57v17l-16 24l-15 60l6 22v25zM172 1300l6 46l51 71l35 27l47 -8l21 22h43l12 -14h43l37 -25l18 -30l9 -9 l16 -51l12 -8l-8 -72l-20 -45l-5 -37l-30 -18l-39 -29l-23 27l-30 -27l-72 6l-8 7l-27 8l-53 37l-21 32l-8 31l19 29l-19 28zM322 487l14 -98l10 -53l25 -23v-14l47 -45l45 -18l55 -19l45 -6l119 18l31 25l63 29l35 30l59 76l7 29l16 20v17l8 6h6v10l-6 8l-8 64l-16 28v25 l-11 16l-6 9l-8 41l-59 45l-74 41l-184 8l-29 -13l-6 -6h-23l-41 -22v-15l-65 -57v-14l-25 -23v-18l-10 -8l-8 -93h-6zM719 1268l10 78l10 49l29 24h23l24 25l14 10l29 4h33l70 -14l20 -8l31 -27v-6l35 -37l10 -31l-15 -43l15 -43l-10 -6l-5 -37l-30 -35v-10l-27 -4l-10 -20 l-14 -11l-41 -2l-74 -6l-17 19l-38 20l-56 78z" />
<glyph unicode="&#xf7;" d="M4 1253l14 54l9 47l32 28l54 13l94 -33l37 -14l32 -43l60 47l90 6l82 -8l55 -11l41 -18v-6l23 -12l4 -23v-18l16 -23h15l16 -61l6 -39l12 -47l-12 -82l-12 -37l6 -4l-16 -31l-11 -47l37 -29l43 31l19 49l22 35l29 51v14l65 56l-12 24l25 31l94 154l53 98l18 14l11 8l88 7 l8 10l47 -10l51 -33l11 -29l-11 -24l6 -7l-24 -28v-15l-31 -20v-31h-2l-47 -59l-41 -72l-49 -51v-23l-35 -79l-6 -17l-53 -53l-31 -53l-16 -17l-7 -30l-34 -35v-31l-35 -39l-19 -37l-53 -65v-19l-12 -8v-24l-29 -25l-12 -41l-19 -35l-30 -31l-4 -28l-23 -72l4 -6l-22 -35 l-37 -35l-8 -45l-50 -55l-10 -41h-6l-12 -31l-31 -45v-22l-31 -19l-4 -6v-14l-41 -41v-10l4 -7l-10 -12v-16l35 -25l47 -12h43l74 12h8l18 19l-18 71l6 4l-14 13l-4 65v35l4 33v14h8l8 29v12h10l15 29l-4 6l12 18l-8 7l24 45l25 24l29 55l24 27l66 31l32 28l150 13l16 -13 h60v-4l71 -37l41 -34h9l22 -35l2 -31l19 -35l-2 -34h-9l-10 -11v-39l-31 -34l-34 -7l-7 -6l-30 -10l-52 6h-18l-65 35v47h6l6 8l-19 39l-18 12h-41l-35 -24l-31 -16l-32 -41l-9 -43h-4l-18 -17l6 -6v-12l-18 -19l6 -123l28 -34v-19l50 -35l57 -6h18l7 6l24 23l23 37l94 24 l53 -20l29 -25l8 -20l33 -31h14l2 -25l55 -59l-6 -4l11 -12l-11 -17l6 -24l-16 -13l10 -12v-24l-32 -23l-173 -16l-284 16h-29l-127 12l-41 -12l-168 8l-166 -8l-94 -16h-37l-45 16l-12 19l-10 12h-21v12l8 4l-12 12v19l19 18v11l-7 6l-8 41l21 24l16 6l19 11l6 8v10l34 6 l78 35l21 35l-4 6l65 82l4 33l25 32l-4 9v8h4l82 131l35 84v29l12 12l-4 4h-8l24 24h19l41 48l10 43l24 28l25 37v8l41 49l39 35l4 35l-35 -20h-59l-60 20l-36 84l-7 117l4 26h-4v13l35 35v12l15 41l-15 20l21 21v47l-6 72l-50 51l-41 8l-45 -31l-18 -45h-6l-15 -41h-4v-20 l-6 -27l-31 -96l-4 -127l-2 -51l-2 -41l-10 -82l-35 -29l-55 16l-43 7h-57l-17 69l10 101v24l15 72l37 127v18l18 25l-12 22v15l12 10l-6 31v4l-29 6l-51 12l-39 37z" />
<glyph unicode="&#xf8;" horiz-adv-x="1224" d="M39 479l4 23l8 41l8 106l15 13v34l35 47l6 35l18 19l4 22l19 12l30 41l107 97l41 22l106 29l13 12l47 12l141 -8l74 -16l90 -10l45 -17l18 15l2 8l23 16l2 19l33 41l61 4l60 -31l47 -25v-10l8 -16l35 -47l-17 -64l-43 -43l-39 -14l-2 -2l17 -13h4l12 -43l16 -4l25 -24 l4 -70l21 -12l18 -53v-45l16 -25l-14 -100l-18 -101l-17 -18l-10 -82l-37 -53v-13l-37 -41v-16l-26 -31l-60 -53h-10l-68 -51l-32 -6l-78 -33l-98 -16l-54 18l-39 -18l-211 8l-30 26l-37 -38l-49 -62l-49 2h-23l-53 10l-19 27l-49 35l4 22l-6 6l4 25l41 33l25 39l29 18l8 17 l-25 26l-41 101l-12 14l-6 57v17l-17 24l-14 60l8 22v25zM315 487l13 -98l10 -53l4 -4l16 6l19 45l37 43l35 29l51 86l47 41l37 59l37 27l8 37l26 43l2 2l-131 6l-26 -13l-8 -6h-23l-41 -22v-15l-66 -57v-14l-24 -23v-18l-10 -8l-9 -93h-4zM524 215l33 -4l117 18l33 25 l61 29l37 30l57 76l8 29l17 20v17l6 6h6v10l-6 8l-6 64l-17 28v25l-12 16l-6 9v4l-27 -21l-26 -43l-29 -22l-41 -68l-29 -37l-20 -33l-33 -22l-10 -29l-19 -28l-28 -19l-25 -45l-4 2z" />
<glyph unicode="&#xf9;" horiz-adv-x="1351" d="M6 932l4 55l45 35l25 12l29 -10l20 10l10 -12l97 14l71 -20l43 10l94 -10l37 -23l19 -37l-6 -104l-7 -23l-24 -81l6 -72v-23h-6v-45l6 -33l6 -94l-12 -12l8 -49l-8 -41v-45l12 -29l6 -49l41 -23l119 7l57 41h21l22 24l52 29l18 22l53 84l-6 45l-4 74v33l16 37l-12 16 l-4 82l-6 12l-37 25l-78 -16l-28 8l-80 8l-43 47l-2 27l14 26l8 37l-6 41l-4 29l-8 10l10 14l47 27l53 -10l51 6l15 6l110 -10l60 20l92 -6l18 -12l70 -10l39 -54l-4 -47l4 -59l-14 -12l-5 -41l7 -25l-7 -29l7 -34l-7 -82l-20 -19l14 -69l-14 -33l-6 -74l6 -84l-10 -16 l10 -31l-10 -33l30 -24l136 -7l34 -12l23 -28l-4 -37l4 -29l-10 -12v-17l16 -28l-12 -37l2 -29l-31 -27l-28 -8l-72 4l-31 15l-129 4l-104 -4l-6 8l-17 8l-8 16l4 19l-4 22l-12 13l-27 -4l-55 -43h-19l-12 -15l-18 -6l-43 -20l-15 4l-47 -27l-67 -12l-84 4l-66 14l-29 25 l-2 -10l-20 4l-53 32l-19 31l-12 -6l-10 12l-25 35l-2 31l-27 24l-18 39l-12 95l-6 6v57l12 107l6 131l-8 12l8 35l-12 24l16 52l-10 34l-41 25l-41 -29l-35 8l-37 11l-20 -9l-17 29l9 23l-13 18l4 90v17zM211 1329l29 90l47 45l26 6l49 -8l13 2l39 -12l10 -12l53 -19l6 -16 l86 -41l17 -4l20 -21l33 -18l55 -25l47 -18l31 -39l-6 -31l-23 -41l-36 -18l-15 4l-45 25h-33v-2l-12 2l-6 8l-2 6l-14 2l-11 2h-30l-35 14h-43l-29 9l-102 22l-58 12l-45 47z" />
<glyph unicode="&#xfa;" horiz-adv-x="1351" d="M6 932l4 55l45 35l25 12l29 -10l20 10l10 -12l97 14l71 -20l43 10l94 -10l37 -23l19 -37l-6 -104l-7 -23l-24 -81l6 -72v-23h-6v-45l6 -33l6 -94l-12 -12l8 -49l-8 -41v-45l12 -29l6 -49l41 -23l119 7l57 41h21l22 24l52 29l18 22l53 84l-6 45l-4 74v33l16 37l-12 16 l-4 82l-6 12l-37 25l-78 -16l-28 8l-80 8l-43 47l-2 27l14 26l8 37l-6 41l-4 29l-8 10l10 14l47 27l53 -10l51 6l15 6l110 -10l60 20l92 -6l18 -12l70 -10l39 -54l-4 -47l4 -59l-14 -12l-5 -41l7 -25l-7 -29l7 -34l-7 -82l-20 -19l14 -69l-14 -33l-6 -74l6 -84l-10 -16 l10 -31l-10 -33l30 -24l136 -7l34 -12l23 -28l-4 -37l4 -29l-10 -12v-17l16 -28l-12 -37l2 -29l-31 -27l-28 -8l-72 4l-31 15l-129 4l-104 -4l-6 8l-17 8l-8 16l4 19l-4 22l-12 13l-27 -4l-55 -43h-19l-12 -15l-18 -6l-43 -20l-15 4l-47 -27l-67 -12l-84 4l-66 14l-29 25 l-2 -10l-20 4l-53 32l-19 31l-12 -6l-10 12l-25 35l-2 31l-27 24l-18 39l-12 95l-6 6v57l12 107l6 131l-8 12l8 35l-12 24l16 52l-10 34l-41 25l-41 -29l-35 8l-37 11l-20 -9l-17 29l9 23l-13 18l4 90v17zM350 1239l33 39l45 18l57 25l31 18l21 21l16 4l86 41l8 16l51 19 l13 12l39 12l10 -2l49 8l27 -6l47 -45l28 -49l-6 -51l-16 -31l-15 -28l-30 -19l-58 -10l-102 -23l-31 -10h-43l-32 -14h-31l-10 2l-15 -6l-2 -4l-8 -9l-10 -4v4h-35l-43 -26l-16 -4l-35 20l-4 39l-13 12z" />
<glyph unicode="&#xfb;" horiz-adv-x="1351" d="M6 932l4 55l45 35l25 12l29 -10l20 10l10 -12l97 14l71 -20l43 10l94 -10l37 -23l19 -37l-6 -104l-7 -23l-24 -81l6 -72v-23h-6v-45l6 -33l6 -94l-12 -12l8 -49l-8 -41v-45l12 -29l6 -49l41 -23l119 7l57 41h21l22 24l52 29l18 22l53 84l-6 45l-4 74v33l16 37l-12 16 l-4 82l-6 12l-37 25l-78 -16l-28 8l-80 8l-43 47l-2 27l14 26l8 37l-6 41l-4 29l-8 10l10 14l47 27l53 -10l51 6l15 6l110 -10l60 20l92 -6l18 -12l70 -10l39 -54l-4 -47l4 -59l-14 -12l-5 -41l7 -25l-7 -29l7 -34l-7 -82l-20 -19l14 -69l-14 -33l-6 -74l6 -84l-10 -16 l10 -31l-10 -33l30 -24l136 -7l34 -12l23 -28l-4 -37l4 -29l-10 -12v-17l16 -28l-12 -37l2 -29l-31 -27l-28 -8l-72 4l-31 15l-129 4l-104 -4l-6 8l-17 8l-8 16l4 19l-4 22l-12 13l-27 -4l-55 -43h-19l-12 -15l-18 -6l-43 -20l-15 4l-47 -27l-67 -12l-84 4l-66 14l-29 25 l-2 -10l-20 4l-53 32l-19 31l-12 -6l-10 12l-25 35l-2 31l-27 24l-18 39l-12 95l-6 6v57l12 107l6 131l-8 12l8 35l-12 24l16 52l-10 34l-41 25l-41 -29l-35 8l-37 11l-20 -9l-17 29l9 23l-13 18l4 90v17zM207 1278l39 18l39 27l30 16l19 21l12 4l86 41l23 16l43 19l8 12 l33 12l41 9l45 -9l32 -12l9 -12l41 -19l16 -14l72 -27l12 -6l20 -12l23 -27l47 -24l35 -19l16 -82l-4 -32l-14 -29l-27 -19l-16 5l-37 18l-25 6v-2l-8 2l-6 8l-2 7l-12 4h-9h-24l-29 14l-37 4l-39 21l-49 20l-61 8l-76 -20l-39 -27l-35 -20h-24h-8l-31 -21v2h-25l-39 -24 l-10 -5l-29 19l-14 29l-4 32z" />
<glyph unicode="&#xfc;" horiz-adv-x="1351" d="M6 932l4 55l45 35l25 12l29 -10l20 10l10 -12l97 14l71 -20l43 10l94 -10l37 -23l19 -37l-6 -104l-7 -23l-24 -81l6 -72v-23h-6v-45l6 -33l6 -94l-12 -12l8 -49l-8 -41v-45l12 -29l6 -49l41 -23l119 7l57 41h21l22 24l52 29l18 22l53 84l-6 45l-4 74v33l16 37l-12 16 l-4 82l-6 12l-37 25l-78 -16l-28 8l-80 8l-43 47l-2 27l14 26l8 37l-6 41l-4 29l-8 10l10 14l47 27l53 -10l51 6l15 6l110 -10l60 20l92 -6l18 -12l70 -10l39 -54l-4 -47l4 -59l-14 -12l-5 -41l7 -25l-7 -29l7 -34l-7 -82l-20 -19l14 -69l-14 -33l-6 -74l6 -84l-10 -16 l10 -31l-10 -33l30 -24l136 -7l34 -12l23 -28l-4 -37l4 -29l-10 -12v-17l16 -28l-12 -37l2 -29l-31 -27l-28 -8l-72 4l-31 15l-129 4l-104 -4l-6 8l-17 8l-8 16l4 19l-4 22l-12 13l-27 -4l-55 -43h-19l-12 -15l-18 -6l-43 -20l-15 4l-47 -27l-67 -12l-84 4l-66 14l-29 25 l-2 -10l-20 4l-53 32l-19 31l-12 -6l-10 12l-25 35l-2 31l-27 24l-18 39l-12 95l-6 6v57l12 107l6 131l-8 12l8 35l-12 24l16 52l-10 34l-41 25l-41 -29l-35 8l-37 11l-20 -9l-17 29l9 23l-13 18l4 90v17zM160 1300l6 46l51 71l35 27l47 -8l20 22h43l13 -14h43l37 -25 l18 -30l8 -9l17 -51l12 -8l-8 -72l-21 -45l-4 -37l-31 -18l-38 -29l-23 27l-31 -27l-71 6l-9 7l-26 8l-53 37l-21 32l-8 31l18 29l-18 28zM707 1268l10 78l10 49l29 24h22l25 25l14 10l29 4h33l69 -14l21 -8l30 -27v-6l35 -37l10 -31l-14 -43l14 -43l-10 -6l-4 -37l-31 -35 v-10l-26 -4l-10 -20l-15 -11l-41 -2l-73 -6l-17 19l-39 20l-55 78z" />
<glyph unicode="&#xfd;" horiz-adv-x="1265" d="M-31 -127l13 72v10h6l18 25h4l21 34l49 25l37 22l37 7l51 -7l63 -34l37 -35l-6 -84l-14 -23l-33 -39l12 -14l82 16l25 25h4l6 -6l55 65l4 23h4l15 31l-6 123l-35 36l-6 64l-13 12l-6 35l-47 100l-12 72l-25 64l-33 90l-30 41l-19 63l-12 47l-41 23l-59 4l-76 -4l-25 30 l6 29l-6 27l-4 2l19 24l-15 23l15 31l-19 24l4 6v11l66 53l31 18l104 -6l76 4l90 -4l43 -10l53 10l68 -18l24 -11l25 -36l-8 -72l-17 -23l9 -41l4 -6l12 -16v-25l-25 -16l-34 -25l-35 -12l-21 6l-26 -6v-29l16 -12l8 -35l27 -61l18 -58l19 -57l4 -6v-41l59 -84l6 -16l31 -19 v19l29 32l22 70l31 51l12 41l76 117l6 41l17 29l-15 18l-8 23l-53 6h-19l-10 -8h-31l-22 38l-2 84l14 41l-12 52l53 41l35 6l24 -2l52 14l118 -12l150 6l33 -6l47 6l35 -17l6 -30v-13l8 -4l8 -18l-6 -74l2 -67l-12 -19h-17l-14 -18l-33 12l-30 -4l-19 -8h-16l-13 12l-22 -12 l-18 -17l-7 -37l7 -45l-13 -28l-18 -25v-16h-4l-19 -39l-10 -33h-8l-10 -14v-27l-13 -14v-17l-22 -34l-6 -25l-19 -16l-6 -31l-35 -59l6 -5l-30 -28l-6 -53l-35 -56v-4l-17 -18l6 -13v-18l-40 -45l-19 -53l-18 -17v-24l-13 -13l-4 -34l-53 -91h-6l-25 -43l8 -8l-36 -53 l-23 -22h-14l-10 -19l-13 -14h-28l-17 -23l-55 -28l-76 -7l-12 -10l-78 -4l-63 4l-25 10h-29l-6 7h-16l-45 45v-11l-58 50l-4 22l-18 18l-4 35l-19 51l8 39l-8 2v25zM381 1239l33 39l45 18l57 25l31 18l20 21l17 4l86 41l8 16l51 19l12 12l39 12l11 -2l49 8l26 -6l47 -45 l29 -49l-6 -51l-16 -31l-15 -28l-31 -19l-57 -10l-102 -23l-31 -10h-43l-33 -14h-30l-11 2l-14 -6l-2 -4l-8 -9l-11 -4v4h-34l-43 -26l-17 -4l-35 20l-4 39l-12 12z" />
<glyph unicode="&#xff;" horiz-adv-x="1265" d="M-31 -127l13 72v10h6l18 25h4l21 34l49 25l37 22l37 7l51 -7l63 -34l37 -35l-6 -84l-14 -23l-33 -39l12 -14l82 16l25 25h4l6 -6l55 65l4 23h4l15 31l-6 123l-35 36l-6 64l-13 12l-6 35l-47 100l-12 72l-25 64l-33 90l-30 41l-19 63l-12 47l-41 23l-59 4l-76 -4l-25 30 l6 29l-6 27l-4 2l19 24l-15 23l15 31l-19 24l4 6v11l66 53l31 18l104 -6l76 4l90 -4l43 -10l53 10l68 -18l24 -11l25 -36l-8 -72l-17 -23l9 -41l4 -6l12 -16v-25l-25 -16l-34 -25l-35 -12l-21 6l-26 -6v-29l16 -12l8 -35l27 -61l18 -58l19 -57l4 -6v-41l59 -84l6 -16l31 -19 v19l29 32l22 70l31 51l12 41l76 117l6 41l17 29l-15 18l-8 23l-53 6h-19l-10 -8h-31l-22 38l-2 84l14 41l-12 52l53 41l35 6l24 -2l52 14l118 -12l150 6l33 -6l47 6l35 -17l6 -30v-13l8 -4l8 -18l-6 -74l2 -67l-12 -19h-17l-14 -18l-33 12l-30 -4l-19 -8h-16l-13 12l-22 -12 l-18 -17l-7 -37l7 -45l-13 -28l-18 -25v-16h-4l-19 -39l-10 -33h-8l-10 -14v-27l-13 -14v-17l-22 -34l-6 -25l-19 -16l-6 -31l-35 -59l6 -5l-30 -28l-6 -53l-35 -56v-4l-17 -18l6 -13v-18l-40 -45l-19 -53l-18 -17v-24l-13 -13l-4 -34l-53 -91h-6l-25 -43l8 -8l-36 -53 l-23 -22h-14l-10 -19l-13 -14h-28l-17 -23l-55 -28l-76 -7l-12 -10l-78 -4l-63 4l-25 10h-29l-6 7h-16l-45 45v-11l-58 50l-4 22l-18 18l-4 35l-19 51l8 39l-8 2v25zM225 1300l6 46l52 71l34 27l48 -8l20 22h43l12 -14h43l37 -25l19 -30l8 -9l16 -51l12 -8l-8 -72l-20 -45 l-4 -37l-31 -18l-39 -29l-22 27l-31 -27l-72 6l-8 7l-27 8l-53 37l-20 32l-9 31l19 29l-19 28zM772 1268l10 78l11 49l28 24h23l24 25l15 10l28 4h33l70 -14l20 -8l31 -27v-6l35 -37l10 -31l-14 -43l14 -43l-10 -6l-4 -37l-31 -35v-10l-27 -4l-10 -20l-14 -11l-41 -2l-74 -6 l-16 19l-39 20l-56 78z" />
<glyph unicode="&#x152;" horiz-adv-x="1746" d="M51 647l12 60l-12 10l6 86l6 139l31 53v33l19 10v23l20 31v34l49 54l54 45l-7 8l25 24v11l51 30l72 21v10h12l35 21l16 -7l27 13v6l55 22l23 5l51 6l55 6l58 8l16 10l14 -14l117 -2l139 -8l183 8h34l68 8l104 -8l150 4h49l57 -21l37 -34l-14 -11l8 -75l-24 -41v-27l6 -43 l-6 -31v-41l-19 -24v-19l19 -24l2 -80l-2 -78l6 -4v-14l-37 -17l-60 -8l-59 19l-45 -11l-41 47l8 64l-8 55l-6 23v18l12 10v31l-12 12v27l-37 25l-160 4l-18 -9l-29 7l-92 10l-41 -12l-33 -35l-2 -60l-4 -77l4 -93l11 -16l-11 -14v-11l21 -18l65 6h19l24 19l-12 38l12 31v99 l41 45l31 10l106 -6l29 -13h12l5 -16l16 -31l-2 -127l-14 -43l14 -12l-12 -131l-2 -139l6 -6l10 -17l-10 -14v-47l10 -17l-2 -82l-43 -30l-41 -6l-39 6l-51 -6l-29 12l-35 24l-6 134l6 34l-47 43l-53 -18l-23 -25l-8 -45l-6 -28l6 -166l25 -35h69l31 -10l60 4l12 -10l4 -7h6 l162 27l33 -4h18l6 4l19 6l16 31l-6 65l-10 95l6 41l10 24l35 23l65 -9l41 19l47 -6h19l35 -27l-4 -24v-41l4 -41v-13h-4l12 -90l-12 -76l12 -47l-12 -53l12 -31v-28v-27l-21 -37l-22 -20l-57 -13l-156 13l-27 2l-180 8l-22 -10h-54l-35 -10l-30 6l-23 -13l-106 13l-60 2h-8 h-8l-47 2l-17 -4h-120l-37 -6h-6l-33 -7l-152 31l-90 16l-39 43l-35 7l-34 26h-15l-12 19l-16 8l-23 33l-53 71l-37 41l-6 56l-10 10l-7 53l-12 12l-4 47l-16 13v26l-9 43v76zM322 569l12 -12l24 -88l17 -23v-24l43 -64l39 -24l45 -37l63 -29l31 8l61 -8l29 8h12l17 35l4 88 l-4 82l-6 60v26l14 15v22l10 12l-10 17l-6 84l6 43l-8 110v23l8 192v33l-6 10l-88 -4l-51 -4l-54 -14l-43 -23l-28 -10v-8l-23 -10l-49 -76l-43 -127l8 -16l-12 -23l-12 -156l12 -16l-8 -66z" />
<glyph unicode="&#x153;" horiz-adv-x="1652" d="M39 479l4 23l6 41l6 106l15 13v34l24 47l6 35l13 19l6 22l14 12l25 41l84 97l34 22l82 29l13 12l37 12l114 -8l60 -16l69 -10l86 -37l11 -23l40 -37l11 -10v-24l22 -21l10 10l29 62l21 22l37 33l40 25l15 16l55 27l55 10l19 8l20 -6h66l47 -8l84 -31h31l96 -96l20 -6 l7 -19l38 -67l11 -13l20 -24l4 -25l8 -10l-4 -8l31 -51l6 -101v-65v-56l-2 -4v-14l-35 -25l-123 9l-26 10h-70l-135 6l-18 -8l-21 12l-119 2l-57 -6l-29 -25l-14 -10l-6 -53l4 -21l27 -41l24 -20l14 -41l11 -14l22 -6l41 -41l53 -13l111 8l14 11l39 6l39 24l60 72l18 37 l45 18l25 13h67l35 -13h4l10 -49l-10 -41l-24 -43l-7 -35l-28 -51h-4l-31 -55l-33 -29v-12l-31 -12l-12 -19l-69 -30l-9 -13l-180 -30l-67 8l-82 28h-27v7l-53 30l-29 23l-25 14l-8 19l-30 16l-5 18l-6 11l-8 -13l-49 -53h-6l-53 -51l-27 -6l-61 -33l-80 -16l-119 4l-78 -4 l-72 22l-45 35l-37 49l-16 6l-61 82l-31 101l-10 14l-2 57v17l-17 24l-10 60l6 22v25zM297 487l8 -98l10 -53l21 -23v-14l37 -45l37 -18l30 -19l90 19l39 18l56 59l45 76l6 29l12 20v17l8 6h4v10l-4 8l-8 64l-12 28v25l-10 16l-2 9l-7 41l-49 45l-51 41l-115 -5l-4 -6h-18 l-33 -22v-15l-51 -57v-14l-21 -23v-18l-10 -8l-6 -93h-2zM987 686l33 -12l151 -19l117 11l43 20l4 43l-22 37l-6 18h-9l-16 13l-59 28l-70 13l-55 -19l-35 -22l-29 -9l-28 -18l-19 -41v-43z" />
<glyph unicode="&#x178;" horiz-adv-x="1341" d="M4 1204h6l6 6l-12 25l12 10l-6 8v41l6 35l13 35l12 12l51 27l115 -6l155 4l203 -6l23 -13h14v-6l23 -12l18 -18l-6 -64l-6 -37l-13 -10l19 -31l-6 -41l-53 -26l-54 -15h-6l-6 6l-10 -18l-6 -16v-19l34 -47v-24l23 -21v-20l18 -13l13 -28l34 -35v-25l19 -22v-25l16 -24 l35 8l19 35l6 36l65 93l41 53v12h6l35 82l-6 27l-16 8l-101 -23l-24 6l-17 17l11 26v11l-5 6l11 12l-17 23l11 14l-11 41v41v27l41 40l47 25l125 -16l17 -9l35 15l63 -6l20 -13l23 13l160 8l94 -35l-12 -27l12 -12v-18l6 -6l-12 -11l6 -34l-12 -15v-18l-6 -4l12 -13v-34 l-12 -39l-23 -15l-35 19l-31 -13l-26 7l-31 -7l-31 -6l-18 -28v-19l-41 -71l6 -7l-18 -41h-4l-15 -10v-18l-28 -23l-7 -31h-6l-8 -34h-8l-12 -31l-23 -18l-18 -41l-31 -27l-10 -31v-6l10 -12l-35 -35l-16 -25v-16l-49 -59l18 -31l-29 -10l19 -72l-8 -82l-7 -41l-4 -27v-14 l11 -12h34l15 -10l65 10l43 -12l64 -2l39 -3v-18l12 -10l-10 -31l10 -24l-12 -52l4 -28l14 -15l-6 -22l-12 -23h-4l-7 -6v-14l-65 -10l-96 -9l-92 13l-66 -15l-27 6l-135 -6l-139 4l-4 -10l-43 6l-88 17l-19 12l-28 22l2 37l-11 56l5 22l-2 33l18 47l51 35l101 12l30 -12 l66 6l10 12v35l-10 12v29l16 25l-6 32v41v43l-6 29l-10 49l-41 45l-15 25v31l-45 51v18l-12 12v35l-25 29v25l-34 28l-35 35v25l-13 10l-34 84l-13 12l-4 53l-26 25l-86 4h-21v6l-51 21l-25 8l-6 53zM233 1655l7 45l51 72l35 26l47 -8l20 22h43l13 -14h43l36 -24l19 -31 l8 -8l16 -52l13 -8l-9 -71l-20 -45l-4 -37l-31 -19l-39 -28l-22 26l-31 -26l-72 6l-8 6l-26 8l-54 37l-20 33l-8 30l18 29l-18 29zM780 1622l11 78l10 49l28 25h23l25 24l14 10l29 4h32l70 -14l20 -8l31 -27v-6l35 -37l10 -30l-14 -43l14 -43l-10 -7l-4 -36l-31 -35v-10 l-26 -5l-11 -20l-14 -10l-41 -2l-74 -6l-16 18l-39 20l-55 78z" />
<glyph unicode="&#x2c6;" horiz-adv-x="849" d="M47 1278l39 18l39 27l31 16l18 21l12 4l86 41l23 16l43 19l8 12l33 12l41 9l45 -9l33 -12l8 -12l41 -19l16 -14l72 -27l12 -6l21 -12l22 -27l47 -24l35 -19l16 -82l-4 -32l-14 -29l-27 -19l-16 5l-37 18l-24 6v-2l-9 2l-6 8l-2 7l-12 4h-8h-25l-29 14l-36 4l-39 21 l-49 20l-62 8l-76 -20l-39 -27l-34 -20h-25h-8l-31 -21v2h-24l-39 -24l-11 -5l-28 19l-15 29l-4 32z" />
<glyph unicode="&#x2dc;" horiz-adv-x="849" d="M-6 1235l14 20l53 101l27 4l2 18l25 21l26 12l33 19l37 20l108 6l35 2l39 -6l10 -16l17 8l43 -41l16 -17l96 -22l11 -6l20 4l25 6h14l17 43l22 25l2 12l12 8l45 -12l29 -29l35 -12l22 -27l5 -24l-19 -31l4 -12l-6 -13l-16 -6l-21 -47l-10 -8l-39 -51l-20 -19l-19 2 l-16 -12l-43 -22l-21 4l-24 -13l-13 -8l-12 10l-27 -8l-77 23h-15l-4 16l-39 19h-18l-62 53l-47 4l-37 -6l-57 -27l-14 -16l-2 -19l-27 -32l-35 8l-57 33l-12 22l2 16l-25 7z" />
<glyph unicode="&#x2000;" horiz-adv-x="930" />
<glyph unicode="&#x2001;" horiz-adv-x="1860" />
<glyph unicode="&#x2002;" horiz-adv-x="930" />
<glyph unicode="&#x2003;" horiz-adv-x="1860" />
<glyph unicode="&#x2004;" horiz-adv-x="620" />
<glyph unicode="&#x2005;" horiz-adv-x="465" />
<glyph unicode="&#x2006;" horiz-adv-x="310" />
<glyph unicode="&#x2007;" horiz-adv-x="310" />
<glyph unicode="&#x2008;" horiz-adv-x="232" />
<glyph unicode="&#x2009;" horiz-adv-x="372" />
<glyph unicode="&#x200a;" horiz-adv-x="103" />
<glyph unicode="&#x2010;" d="M143 594l17 49h8l22 35l60 8l74 10l96 -8l35 12l28 -22l88 6l76 -6l84 6l8 2l97 14l120 -14l111 8l43 -16l41 -43l-8 -39l8 -33v-16v-41l-14 -17l6 -83l-51 -41l-66 -11l-158 -8l-41 12l-131 -8l-73 -4l-39 -10l-29 14l-131 -14l-135 12l-99 6l-14 11l-22 69l-7 6l13 25 v29l-13 12l9 49l-9 31z" />
<glyph unicode="&#x2011;" d="M143 594l17 49h8l22 35l60 8l74 10l96 -8l35 12l28 -22l88 6l76 -6l84 6l8 2l97 14l120 -14l111 8l43 -16l41 -43l-8 -39l8 -33v-16v-41l-14 -17l6 -83l-51 -41l-66 -11l-158 -8l-41 12l-131 -8l-73 -4l-39 -10l-29 14l-131 -14l-135 12l-99 6l-14 11l-22 69l-7 6l13 25 v29l-13 12l9 49l-9 31z" />
<glyph unicode="&#x2012;" d="M143 594l17 49h8l22 35l60 8l74 10l96 -8l35 12l28 -22l88 6l76 -6l84 6l8 2l97 14l120 -14l111 8l43 -16l41 -43l-8 -39l8 -33v-16v-41l-14 -17l6 -83l-51 -41l-66 -11l-158 -8l-41 12l-131 -8l-73 -4l-39 -10l-29 14l-131 -14l-135 12l-99 6l-14 11l-22 69l-7 6l13 25 v29l-13 12l9 49l-9 31z" />
<glyph unicode="&#x2013;" d="M106 594l17 49h8l23 35l59 8l82 2l33 12l30 -22l86 6l62 -10l293 10l8 2l96 14l117 -14l115 8l43 -16l41 -43l14 -57l-14 -15v-16v-41l-15 -17l6 -83l-53 -41l-63 -11l-160 -8l-41 12l-129 -8l-119 -4l-186 -10l-31 14l-92 8l-84 -10l-98 6l-15 11l-24 69l-4 6l12 25v29 l-12 12l16 45l-16 35z" />
<glyph unicode="&#x2014;" d="M-16 594l16 49h8l23 35l59 8l82 2l33 12l31 -22l86 6l77 -10l287 14l82 -4l8 2l232 14l231 -6l41 -16l41 -43l12 -31l-12 -41v-16v-41l-12 -17l6 -83l-53 -41l-64 -11l-160 -8l-41 12l-264 -8l-127 -4l-270 -10l-31 14l-82 8l-94 -10l-98 6l-15 11l-24 69l-4 6l12 25v29 l-12 12l12 41l-12 39z" />
<glyph unicode="&#x2018;" horiz-adv-x="870" d="M197 965l18 45l27 14l2 20l-4 56l10 16l-2 37l12 21v10l23 14l8 31l28 33l31 24l19 55l18 2h12l33 41l66 43l28 11l9 14l47 10l45 -8l24 -22l35 -11l31 -65l12 -13l-6 -28l-23 -25l5 -12l-60 -64l-61 -47l-29 -4l-23 -26l-12 -29l10 -53l37 -23l17 -88l8 -16l8 -25 l-12 -29l-6 -24l8 -6v-10l-25 -25v-21l-45 -32l-35 -17l-71 -16l-70 6l-27 8l-36 33l-11 31l-26 22l-8 64l-17 6l-12 49z" />
<glyph unicode="&#x2019;" horiz-adv-x="870" d="M164 793l6 22l-4 27l12 26l25 4l41 68l57 55l18 19l19 -15l12 29l12 27l-12 53l-39 22l-16 37l10 21l-12 31l-8 67l10 27l-12 6l-2 8l24 27v18l39 37l43 29l47 -15l53 2l35 15l25 -17l24 -6l15 -16l16 -29l23 -22l22 -31l-6 -33l14 -6l27 -49l-18 -17v-47l-9 -71l-10 -17 l-8 -59l-12 -21l-7 -16l-18 -10l-4 -31l-31 -33l-26 -26l-11 -33l-12 -21h-20l-33 -47l-74 -45l-4 -26l-27 10l-92 -14l-24 20l-37 12z" />
<glyph unicode="&#x201a;" horiz-adv-x="870" d="M135 -301l6 22l-4 25l15 27l22 6l41 67l59 56l19 18l16 -14l13 26l14 29l-14 51l-39 23l-17 37l10 20l-12 31l-8 70l10 24l-10 6l-2 10l22 25v18l41 39l41 17l52 -8l51 18l35 2l24 -14l23 -8l16 -17l14 -29l25 -20l23 -33l-9 -30l15 -9l26 -49l-18 -16v-47l-8 -70 l-11 -16l-8 -60l-12 -20l-6 -19l-19 -10l-4 -31l-28 -32l-29 -27l-8 -31l-15 -20h-20l-31 -49l-76 -45l-2 -25l-26 8l-94 -14l-23 20l-39 13z" />
<glyph unicode="&#x201c;" horiz-adv-x="1241" d="M104 952l19 43l24 19l5 20l-7 58l9 16l-2 35l10 20l-2 13l24 16l6 29l29 36l27 23l16 55l19 6h12l35 41l63 45l29 11l4 14l96 6l23 -20l37 -13l24 -24l8 -39l13 -10l-7 -31l-20 -23l2 -14l-55 -65l-60 -52l-28 -2l-23 -28l-12 -29l16 -51l35 -23l19 -88l10 -16l10 -23 l-12 -30l-4 -25l6 -6v-10l-21 -27v-18l-47 -35l-31 -17l-65 9l-76 -23l-29 6l-36 33l-13 27l-26 22l-11 64l-14 8l-18 47zM610 942l19 14l2 50l10 67l10 19l11 61l14 18l6 15l16 12l9 29l28 33l31 26l8 33l14 18h21l37 45l69 43l9 25l28 -8l92 10l21 -22l37 -13l28 -20 l11 -35l-4 -21v-26l-13 -29l-24 -4l-45 -68l-58 -51l-20 -18l-16 14l-13 -26l-16 -25l14 -53l37 -25l12 -37l-8 -20l8 -29l9 -72l-11 -22l11 -8v-11l-21 -24l-4 -21l-37 -34l-43 -15l-55 -14l-49 4h-37l-21 18l-24 5l-17 18l-10 31l-27 22l-18 31l6 31l-12 8z" />
<glyph unicode="&#x201d;" horiz-adv-x="1241" d="M68 809l4 20v27l12 29l25 4l45 67l57 52l20 18l17 -14l12 26l16 25l-14 53l-37 25l-12 37l8 20l-8 29l-8 71l10 23l-10 8v10l20 25l4 20l37 35l43 15l51 -11l54 21h37l20 -19l25 -4l16 -18l10 -31l27 -22l18 -31l-6 -31l12 -8l25 -51l-18 -15l-2 -49l-11 -67l-10 -19 l-10 -61l-15 -19l-6 -14l-16 -12l-8 -29l-29 -33l-31 -26l-8 -33l-14 -18h-21l-37 -46l-69 -43l-8 -24l-29 8l-92 -10l-21 22l-37 13zM584 819l6 31l20 22l-2 15l56 65l59 52l29 2l22 28l12 29l-16 51l-35 23l-18 88l-10 16l-11 23l13 30l4 25l-6 6v10l20 27v18l47 35l31 17 l84 -2l57 16l29 -6l37 -33l12 -27l27 -22l10 -64l14 -8l19 -47l10 -20l-19 -43l-24 -19l-4 -20l6 -58l-8 -16l2 -35l-10 -20l2 -13l-25 -16l-6 -29l-29 -37l-26 -22l-17 -55l-18 -7h-13l-34 -41l-64 -45l-29 -10l-4 -14l-96 -6l-22 20l-37 12l-33 64z" />
<glyph unicode="&#x201e;" horiz-adv-x="1241" d="M45 -285l6 21l-2 26l12 27l25 4l45 70l57 49l21 18l16 -14l13 29l16 24l-14 51l-37 27l-13 35l9 20l-9 31l-8 70l11 24l-11 9v8l21 26l4 21l37 33l43 14l51 -10l53 20h37l21 -16l24 -6l16 -19l13 -31l24 -20l19 -33l-6 -28l12 -11l-37 -51l43 -14l-2 -47l-10 -68l-10 -18 l-11 -62l-14 -18l-6 -17l-17 -10l-6 -31l-30 -30l-31 -29l-8 -31l-15 -18h-20l-37 -47l-70 -43l-8 -25l-26 10l-95 -12l-20 23l-37 14zM561 -276l6 30l21 25l-2 12l55 66l59 51l29 2l23 31l12 28l-16 49l-35 25l-19 88l-8 16l-12 23l12 29l4 24l-6 8v9l23 26v19l45 34l30 19 l68 16l35 -16l39 14l28 -8l37 -31l12 -28l27 -23l10 -63l17 -6l16 -48l10 -22l-18 -43l-25 -19l-4 -20l6 -55l-6 -17v-37l-10 -20l2 -10l-25 -17l-6 -30l-28 -35l-27 -25l-16 -53l-19 -6h-12l-35 -43l-63 -45l-29 -8l-4 -17l-96 -4l-23 21l-37 10l-33 63z" />
<glyph unicode="&#x2022;" horiz-adv-x="1269" d="M258 481l10 86l11 58l24 88l6 -4l8 16l66 63l27 25l18 33h35l14 8l82 29l98 -4l74 -29l8 2l74 -47l72 -45l28 -29l62 -108l4 -97l25 -32l-23 -37l6 -23l-33 -57l-24 -12l2 -17l-37 -88l-18 -6l-33 -59l-74 -23l-12 6l-25 -31l-41 -14l-100 2l-131 31l-72 61l-55 35 l-23 60l-20 24z" />
<glyph unicode="&#x2026;" d="M80 104l2 56v14l12 10v13l39 63l45 25l31 8l82 -6l14 -8h25l32 -31l37 -51l4 -52l7 -22l-11 -27l4 -4l-30 -63l-35 -35l-53 -23l-74 4l-47 17l-43 37l-12 22v15zM508 104l4 56v14l10 10v13l41 63l43 25l31 8l84 -6l12 -8h25l33 -31l38 -51l2 -52l9 -22l-11 -27l2 -4 l-30 -63l-35 -35l-53 -23l-74 4l-47 17l-43 37l-12 22v15zM928 104l4 56v14l10 10v13l41 63l43 25l29 8l84 -6l14 -8h25l32 -31l37 -51l4 -52l9 -22l-13 -27l4 -4l-32 -63l-35 -35l-51 -23l-76 4l-45 17l-43 37l-15 22v15z" />
<glyph unicode="&#x202f;" horiz-adv-x="372" />
</font>
</defs>
</svg>
